<svg width="500" height="450" viewBox="0 0 500 450" fill="none" xmlns="http://www.w3.org/2000/svg">
<path d="M96.8458 158.13C81.0758 179.33 70.9358 210.48 78.6258 236.57C91.7658 281.16 147.526 284.52 185.716 289.68C212.036 293.24 238.206 313.93 260.716 326.77C290.716 343.89 338.976 370.9 373.576 353.36C402.256 338.83 417.676 303.68 426.476 274.52C440.266 228.86 441.596 173.78 411.576 134C370.716 80 299.236 89 239.846 98.24C200.096 104.43 161.456 110.46 126.116 131.53C114.706 138.387 104.76 147.426 96.8458 158.13Z" fill="#B29758"/>
<path opacity="0.4" d="M96.8458 158.13C81.0758 179.33 70.9358 210.48 78.6258 236.57C91.7658 281.16 147.526 284.52 185.716 289.68C212.036 293.24 238.206 313.93 260.716 326.77C290.716 343.89 338.976 370.9 373.576 353.36C402.256 338.83 417.676 303.68 426.476 274.52C440.266 228.86 441.596 173.78 411.576 134C370.716 80 299.236 89 239.846 98.24C200.096 104.43 161.456 110.46 126.116 131.53C114.706 138.387 104.76 147.426 96.8458 158.13Z" fill="white"/>
<path d="M50.9399 412.89C50.9399 416.45 142.25 419.34 254.94 419.34C367.63 419.34 458.94 416.45 458.94 412.89C458.94 409.33 367.63 406.44 254.99 406.44C142.35 406.44 50.9399 409.33 50.9399 412.89Z" fill="#B29758"/>
<path opacity="0.6" d="M50.9399 412.89C50.9399 416.45 142.25 419.34 254.94 419.34C367.63 419.34 458.94 416.45 458.94 412.89C458.94 409.33 367.63 406.44 254.99 406.44C142.35 406.44 50.9399 409.33 50.9399 412.89Z" fill="white"/>
<path d="M277.96 93.3999H96.8101V323.18H277.96V93.3999Z" fill="white" stroke="#263238" stroke-width="0.75" stroke-linecap="round" stroke-linejoin="round"/>
<path d="M277.96 93.3999H96.8101V107.11H277.96V93.3999Z" fill="#263238" stroke="#263238" stroke-width="0.75" stroke-linecap="round" stroke-linejoin="round"/>
<path d="M132.59 253.66H101.97V318.65H132.59V253.66Z" fill="#B29758"/>
<path opacity="0.6" d="M132.59 253.66H101.97V318.65H132.59V253.66Z" fill="white"/>
<path d="M165.98 253.66H135.36V318.65H165.98V253.66Z" fill="#B29758"/>
<path opacity="0.6" d="M165.98 253.66H135.36V318.65H165.98V253.66Z" fill="white"/>
<path d="M201.46 253.66H170.84V318.65H201.46V253.66Z" fill="#B29758"/>
<path opacity="0.6" d="M201.46 253.66H170.84V318.65H201.46V253.66Z" fill="white"/>
<path d="M236.93 253.66H206.31V318.65H236.93V253.66Z" fill="#B29758"/>
<path opacity="0.6" d="M236.93 253.66H206.31V318.65H236.93V253.66Z" fill="white"/>
<path d="M273.27 253.66H242.65V318.65H273.27V253.66Z" fill="white" stroke="#263238" stroke-width="0.75" stroke-linecap="round" stroke-linejoin="round"/>
<path d="M272.78 98.8198H101.98V114.57H272.78V98.8198Z" fill="#B29758"/>
<path opacity="0.6" d="M272.78 98.8198H101.98V114.57H272.78V98.8198Z" fill="white"/>
<path d="M270.38 101.88H105.05V108.85H270.38V101.88Z" fill="white"/>
<path d="M270.37 101.88H251.65V108.85H270.37V101.88Z" fill="#263238" stroke="#263238" stroke-width="0.75" stroke-linecap="round" stroke-linejoin="round"/>
<path d="M178 128.69H143C142.642 128.69 142.298 128.548 142.045 128.295C141.792 128.041 141.65 127.698 141.65 127.34C141.65 126.982 141.792 126.639 142.045 126.385C142.298 126.132 142.642 125.99 143 125.99H178C178.358 125.99 178.701 126.132 178.954 126.385C179.208 126.639 179.35 126.982 179.35 127.34C179.35 127.698 179.208 128.041 178.954 128.295C178.701 128.548 178.358 128.69 178 128.69Z" fill="#263238"/>
<path d="M178 138.1H143C142.814 138.116 142.626 138.093 142.449 138.033C142.272 137.972 142.109 137.876 141.972 137.75C141.834 137.623 141.724 137.469 141.648 137.298C141.573 137.127 141.534 136.942 141.534 136.755C141.534 136.568 141.573 136.383 141.648 136.211C141.724 136.04 141.834 135.886 141.972 135.76C142.109 135.634 142.272 135.537 142.449 135.477C142.626 135.417 142.814 135.394 143 135.41H178C178.337 135.439 178.651 135.593 178.879 135.842C179.107 136.091 179.234 136.417 179.234 136.755C179.234 137.093 179.107 137.418 178.879 137.667C178.651 137.916 178.337 138.071 178 138.1Z" fill="#263238"/>
<path d="M178 147.52H143C142.642 147.52 142.298 147.378 142.045 147.124C141.792 146.871 141.65 146.528 141.65 146.17C141.65 145.812 141.792 145.468 142.045 145.215C142.298 144.962 142.642 144.82 143 144.82H178C178.358 144.82 178.701 144.962 178.954 145.215C179.208 145.468 179.35 145.812 179.35 146.17C179.35 146.528 179.208 146.871 178.954 147.124C178.701 147.378 178.358 147.52 178 147.52Z" fill="#263238"/>
<path d="M178 156.93H105.36C105.023 156.901 104.71 156.747 104.481 156.498C104.253 156.249 104.126 155.923 104.126 155.585C104.126 155.247 104.253 154.921 104.481 154.672C104.71 154.423 105.023 154.269 105.36 154.24H178C178.337 154.269 178.65 154.423 178.879 154.672C179.107 154.921 179.234 155.247 179.234 155.585C179.234 155.923 179.107 156.249 178.879 156.498C178.65 156.747 178.337 156.901 178 156.93Z" fill="#263238"/>
<path d="M178 166.35H105.36C105.002 166.35 104.659 166.208 104.406 165.954C104.152 165.701 104.01 165.358 104.01 165C104.01 164.642 104.152 164.298 104.406 164.045C104.659 163.792 105.002 163.65 105.36 163.65H178C178.358 163.65 178.702 163.792 178.955 164.045C179.208 164.298 179.35 164.642 179.35 165C179.35 165.358 179.208 165.701 178.955 165.954C178.702 166.208 178.358 166.35 178 166.35Z" fill="#263238"/>
<path d="M178 175.77H105.36C105.002 175.77 104.659 175.628 104.406 175.374C104.152 175.121 104.01 174.778 104.01 174.42C104.01 174.062 104.152 173.718 104.406 173.465C104.659 173.212 105.002 173.07 105.36 173.07H178C178.358 173.07 178.702 173.212 178.955 173.465C179.208 173.718 179.35 174.062 179.35 174.42C179.35 174.778 179.208 175.121 178.955 175.374C178.702 175.628 178.358 175.77 178 175.77Z" fill="#263238"/>
<path d="M178 185.18H105.36C105.023 185.151 104.71 184.997 104.481 184.748C104.253 184.499 104.126 184.173 104.126 183.835C104.126 183.497 104.253 183.171 104.481 182.922C104.71 182.673 105.023 182.519 105.36 182.49H178C178.337 182.519 178.65 182.673 178.879 182.922C179.107 183.171 179.234 183.497 179.234 183.835C179.234 184.173 179.107 184.499 178.879 184.748C178.65 184.997 178.337 185.151 178 185.18Z" fill="#263238"/>
<path d="M178 193.55H105.36C105.023 193.521 104.71 193.367 104.481 193.117C104.253 192.868 104.126 192.543 104.126 192.205C104.126 191.867 104.253 191.541 104.481 191.292C104.71 191.043 105.023 190.889 105.36 190.86H178C178.337 190.889 178.65 191.043 178.879 191.292C179.107 191.541 179.234 191.867 179.234 192.205C179.234 192.543 179.107 192.868 178.879 193.117C178.65 193.367 178.337 193.521 178 193.55Z" fill="#263238"/>
<path d="M178 203H105.36C105.002 203 104.659 202.858 104.406 202.604C104.152 202.351 104.01 202.008 104.01 201.65C104.01 201.292 104.152 200.948 104.406 200.695C104.659 200.442 105.002 200.3 105.36 200.3H178C178.358 200.3 178.702 200.442 178.955 200.695C179.208 200.948 179.35 201.292 179.35 201.65C179.35 202.008 179.208 202.351 178.955 202.604C178.702 202.858 178.358 203 178 203Z" fill="#263238"/>
<path d="M178 212.38H105.36C105.023 212.351 104.71 212.197 104.481 211.948C104.253 211.699 104.126 211.373 104.126 211.035C104.126 210.697 104.253 210.371 104.481 210.122C104.71 209.873 105.023 209.719 105.36 209.69H178C178.337 209.719 178.65 209.873 178.879 210.122C179.107 210.371 179.234 210.697 179.234 211.035C179.234 211.373 179.107 211.699 178.879 211.948C178.65 212.197 178.337 212.351 178 212.38Z" fill="#263238"/>
<path d="M178 221.8H105.36C105.002 221.8 104.659 221.658 104.406 221.404C104.152 221.151 104.01 220.808 104.01 220.45C104.01 220.092 104.152 219.748 104.406 219.495C104.659 219.242 105.002 219.1 105.36 219.1H178C178.358 219.1 178.702 219.242 178.955 219.495C179.208 219.748 179.35 220.092 179.35 220.45C179.35 220.808 179.208 221.151 178.955 221.404C178.702 221.658 178.358 221.8 178 221.8Z" fill="#263238"/>
<path d="M178 231.21H105.36C105.023 231.181 104.71 231.027 104.481 230.778C104.253 230.529 104.126 230.203 104.126 229.865C104.126 229.527 104.253 229.201 104.481 228.952C104.71 228.703 105.023 228.549 105.36 228.52H178C178.337 228.549 178.65 228.703 178.879 228.952C179.107 229.201 179.234 229.527 179.234 229.865C179.234 230.203 179.107 230.529 178.879 230.778C178.65 231.027 178.337 231.181 178 231.21Z" fill="#263238"/>
<path d="M178 240.63H105.36C105.023 240.601 104.71 240.447 104.481 240.198C104.253 239.949 104.126 239.623 104.126 239.285C104.126 238.947 104.253 238.621 104.481 238.372C104.71 238.123 105.023 237.969 105.36 237.94H178C178.337 237.969 178.65 238.123 178.879 238.372C179.107 238.621 179.234 238.947 179.234 239.285C179.234 239.623 179.107 239.949 178.879 240.198C178.65 240.447 178.337 240.601 178 240.63Z" fill="#263238"/>
<path d="M271.5 128.69H198.89C198.532 128.69 198.189 128.548 197.935 128.295C197.682 128.041 197.54 127.698 197.54 127.34C197.54 126.982 197.682 126.639 197.935 126.385C198.189 126.132 198.532 125.99 198.89 125.99H271.5C271.858 125.99 272.201 126.132 272.455 126.385C272.708 126.639 272.85 126.982 272.85 127.34C272.85 127.698 272.708 128.041 272.455 128.295C272.201 128.548 271.858 128.69 271.5 128.69Z" fill="#263238"/>
<path d="M271.5 138.1H198.89C198.704 138.116 198.516 138.093 198.339 138.033C198.162 137.972 197.999 137.876 197.861 137.75C197.723 137.623 197.613 137.469 197.538 137.298C197.463 137.127 197.424 136.942 197.424 136.755C197.424 136.568 197.463 136.383 197.538 136.211C197.613 136.04 197.723 135.886 197.861 135.76C197.999 135.634 198.162 135.537 198.339 135.477C198.516 135.417 198.704 135.394 198.89 135.41H271.5C271.686 135.394 271.874 135.417 272.051 135.477C272.228 135.537 272.391 135.634 272.529 135.76C272.666 135.886 272.777 136.04 272.852 136.211C272.927 136.383 272.966 136.568 272.966 136.755C272.966 136.942 272.927 137.127 272.852 137.298C272.777 137.469 272.666 137.623 272.529 137.75C272.391 137.876 272.228 137.972 272.051 138.033C271.874 138.093 271.686 138.116 271.5 138.1Z" fill="#263238"/>
<path d="M271.5 147.52H198.89C198.532 147.52 198.189 147.378 197.935 147.124C197.682 146.871 197.54 146.528 197.54 146.17C197.54 145.812 197.682 145.468 197.935 145.215C198.189 144.962 198.532 144.82 198.89 144.82H271.5C271.858 144.82 272.201 144.962 272.455 145.215C272.708 145.468 272.85 145.812 272.85 146.17C272.85 146.528 272.708 146.871 272.455 147.124C272.201 147.378 271.858 147.52 271.5 147.52Z" fill="#263238"/>
<path d="M271.5 156.93H198.89C198.704 156.946 198.516 156.923 198.339 156.863C198.162 156.803 197.999 156.706 197.861 156.58C197.723 156.453 197.613 156.299 197.538 156.128C197.463 155.957 197.424 155.772 197.424 155.585C197.424 155.398 197.463 155.213 197.538 155.042C197.613 154.87 197.723 154.717 197.861 154.59C197.999 154.464 198.162 154.367 198.339 154.307C198.516 154.247 198.704 154.224 198.89 154.24H271.5C271.686 154.224 271.874 154.247 272.051 154.307C272.228 154.367 272.391 154.464 272.529 154.59C272.666 154.717 272.777 154.87 272.852 155.042C272.927 155.213 272.966 155.398 272.966 155.585C272.966 155.772 272.927 155.957 272.852 156.128C272.777 156.299 272.666 156.453 272.529 156.58C272.391 156.706 272.228 156.803 272.051 156.863C271.874 156.923 271.686 156.946 271.5 156.93Z" fill="#263238"/>
<path d="M271.5 166.35H198.89C198.532 166.35 198.189 166.208 197.935 165.954C197.682 165.701 197.54 165.358 197.54 165C197.54 164.642 197.682 164.298 197.935 164.045C198.189 163.792 198.532 163.65 198.89 163.65H271.5C271.858 163.65 272.201 163.792 272.455 164.045C272.708 164.298 272.85 164.642 272.85 165C272.85 165.358 272.708 165.701 272.455 165.954C272.201 166.208 271.858 166.35 271.5 166.35Z" fill="#263238"/>
<path d="M271.5 175.77H198.89C198.713 175.77 198.537 175.735 198.373 175.667C198.21 175.599 198.061 175.5 197.935 175.374C197.81 175.249 197.711 175.1 197.643 174.936C197.575 174.773 197.54 174.597 197.54 174.42C197.54 174.243 197.575 174.067 197.643 173.903C197.711 173.739 197.81 173.591 197.935 173.465C198.061 173.34 198.21 173.24 198.373 173.173C198.537 173.105 198.713 173.07 198.89 173.07H271.5C271.677 173.07 271.853 173.105 272.017 173.173C272.18 173.24 272.329 173.34 272.455 173.465C272.58 173.591 272.679 173.739 272.747 173.903C272.815 174.067 272.85 174.243 272.85 174.42C272.85 174.597 272.815 174.773 272.747 174.936C272.679 175.1 272.58 175.249 272.455 175.374C272.329 175.5 272.18 175.599 272.017 175.667C271.853 175.735 271.677 175.77 271.5 175.77Z" fill="#263238"/>
<path d="M271.5 185.18H198.89C198.704 185.196 198.516 185.173 198.339 185.113C198.162 185.053 197.999 184.956 197.861 184.83C197.723 184.703 197.613 184.549 197.538 184.378C197.463 184.207 197.424 184.022 197.424 183.835C197.424 183.648 197.463 183.463 197.538 183.292C197.613 183.12 197.723 182.967 197.861 182.84C197.999 182.714 198.162 182.617 198.339 182.557C198.516 182.497 198.704 182.474 198.89 182.49H271.5C271.686 182.474 271.874 182.497 272.051 182.557C272.228 182.617 272.391 182.714 272.529 182.84C272.666 182.967 272.777 183.12 272.852 183.292C272.927 183.463 272.966 183.648 272.966 183.835C272.966 184.022 272.927 184.207 272.852 184.378C272.777 184.549 272.666 184.703 272.529 184.83C272.391 184.956 272.228 185.053 272.051 185.113C271.874 185.173 271.686 185.196 271.5 185.18Z" fill="#263238"/>
<path d="M272.81 191.51H198.81V243.12H272.81V191.51Z" fill="#B29758"/>
<path opacity="0.6" d="M272.81 191.51H198.81V243.12H272.81V191.51Z" fill="white"/>
<path d="M130.68 131.36C130.885 130.733 130.993 130.079 131 129.42C131 127.01 128.56 126.87 126.15 126.87H125.55V126.3H136V126.87C133.28 126.87 132.32 128.6 131.44 131.19L125.88 147.85C125.46 149.08 125.11 150 123.8 150H123.69L118.78 134.09L114.18 147.85C113.75 149.08 113.4 150 112.09 150H112L104.86 126.87H102.35V126.3H111.54V126.87H108.93L114.23 145.12H114.44L118.44 132.95L116.57 126.87H114.06V126.3H123.25V126.87H120.63L125.94 145.12H126.15L130.68 131.36Z" fill="#263238"/>
<path d="M298.67 120.4H223.25V322.71H298.67V120.4Z" fill="#B29758"/>
<path opacity="0.4" d="M298.67 120.4H223.25V322.71H298.67V120.4Z" fill="white"/>
<path d="M410.04 112.83H228.89V342.61H410.04V112.83Z" fill="white" stroke="#263238" stroke-width="0.75" stroke-linecap="round" stroke-linejoin="round"/>
<path d="M410.04 112.83H228.89V126.54H410.04V112.83Z" fill="#263238" stroke="#263238" stroke-width="0.75" stroke-linecap="round" stroke-linejoin="round"/>
<path d="M353.52 145.37H289.91V264.28H353.52V145.37Z" fill="#B29758"/>
<path opacity="0.6" d="M353.52 145.37H289.91V264.28H353.52V145.37Z" fill="white"/>
<path d="M404.87 273.08H234.07V338.07H404.87V273.08Z" fill="#B29758"/>
<path opacity="0.6" d="M404.87 273.08H234.07V338.07H404.87V273.08Z" fill="white"/>
<path d="M404.87 118.25H234.07V134H404.87V118.25Z" fill="#B29758"/>
<path opacity="0.6" d="M404.87 118.25H234.07V134H404.87V118.25Z" fill="white"/>
<path d="M402.47 121.31H237.14V128.28H402.47V121.31Z" fill="white"/>
<path d="M402.46 121.31H383.74V128.28H402.46V121.31Z" fill="#263238" stroke="#263238" stroke-width="0.75" stroke-linecap="round" stroke-linejoin="round"/>
<path d="M279.22 148.11H235.63C235.444 148.126 235.256 148.103 235.079 148.043C234.902 147.982 234.739 147.886 234.601 147.76C234.464 147.633 234.354 147.479 234.278 147.308C234.203 147.137 234.164 146.952 234.164 146.765C234.164 146.578 234.203 146.393 234.278 146.221C234.354 146.05 234.464 145.896 234.601 145.77C234.739 145.644 234.902 145.547 235.079 145.487C235.256 145.427 235.444 145.404 235.63 145.42H279.22C279.407 145.404 279.594 145.427 279.771 145.487C279.948 145.547 280.111 145.644 280.249 145.77C280.387 145.896 280.497 146.05 280.572 146.221C280.647 146.393 280.686 146.578 280.686 146.765C280.686 146.952 280.647 147.137 280.572 147.308C280.497 147.479 280.387 147.633 280.249 147.76C280.111 147.886 279.948 147.982 279.771 148.043C279.594 148.103 279.407 148.126 279.22 148.11Z" fill="#263238"/>
<path d="M279.22 157.53H235.63C235.272 157.53 234.929 157.388 234.676 157.134C234.423 156.881 234.28 156.538 234.28 156.18C234.28 155.822 234.423 155.478 234.676 155.225C234.929 154.972 235.272 154.83 235.63 154.83H279.22C279.578 154.83 279.922 154.972 280.175 155.225C280.428 155.478 280.57 155.822 280.57 156.18C280.57 156.538 280.428 156.881 280.175 157.134C279.922 157.388 279.578 157.53 279.22 157.53Z" fill="#263238"/>
<path d="M279.22 166.94H235.63C235.444 166.956 235.256 166.933 235.079 166.873C234.902 166.813 234.739 166.716 234.601 166.59C234.464 166.463 234.354 166.309 234.278 166.138C234.203 165.967 234.164 165.782 234.164 165.595C234.164 165.408 234.203 165.223 234.278 165.052C234.354 164.88 234.464 164.727 234.601 164.6C234.739 164.474 234.902 164.377 235.079 164.317C235.256 164.257 235.444 164.234 235.63 164.25H279.22C279.407 164.234 279.594 164.257 279.771 164.317C279.948 164.377 280.111 164.474 280.249 164.6C280.387 164.727 280.497 164.88 280.572 165.052C280.647 165.223 280.686 165.408 280.686 165.595C280.686 165.782 280.647 165.967 280.572 166.138C280.497 166.309 280.387 166.463 280.249 166.59C280.111 166.716 279.948 166.813 279.771 166.873C279.594 166.933 279.407 166.956 279.22 166.94Z" fill="#263238"/>
<path d="M279.22 176.36H235.63C235.453 176.36 235.277 176.325 235.114 176.257C234.95 176.189 234.801 176.09 234.676 175.965C234.55 175.839 234.451 175.69 234.383 175.527C234.315 175.363 234.28 175.187 234.28 175.01C234.28 174.833 234.315 174.657 234.383 174.493C234.451 174.329 234.55 174.181 234.676 174.055C234.801 173.93 234.95 173.831 235.114 173.763C235.277 173.695 235.453 173.66 235.63 173.66H279.22C279.578 173.66 279.922 173.802 280.175 174.055C280.428 174.308 280.57 174.652 280.57 175.01C280.57 175.368 280.428 175.711 280.175 175.965C279.922 176.218 279.578 176.36 279.22 176.36Z" fill="#263238"/>
<path d="M279.22 185.77H235.63C235.444 185.786 235.256 185.763 235.079 185.703C234.902 185.643 234.739 185.546 234.601 185.42C234.464 185.293 234.354 185.14 234.278 184.968C234.203 184.797 234.164 184.612 234.164 184.425C234.164 184.238 234.203 184.053 234.278 183.882C234.354 183.71 234.464 183.557 234.601 183.43C234.739 183.304 234.902 183.207 235.079 183.147C235.256 183.087 235.444 183.064 235.63 183.08H279.22C279.407 183.064 279.594 183.087 279.771 183.147C279.948 183.207 280.111 183.304 280.249 183.43C280.387 183.557 280.497 183.71 280.572 183.882C280.647 184.053 280.686 184.238 280.686 184.425C280.686 184.612 280.647 184.797 280.572 184.968C280.497 185.14 280.387 185.293 280.249 185.42C280.111 185.546 279.948 185.643 279.771 185.703C279.594 185.763 279.407 185.786 279.22 185.77Z" fill="#263238"/>
<path d="M279.22 195.19H235.63C235.444 195.206 235.256 195.183 235.079 195.123C234.902 195.063 234.739 194.966 234.601 194.84C234.464 194.713 234.354 194.559 234.278 194.388C234.203 194.217 234.164 194.032 234.164 193.845C234.164 193.658 234.203 193.473 234.278 193.302C234.354 193.13 234.464 192.977 234.601 192.85C234.739 192.724 234.902 192.627 235.079 192.567C235.256 192.507 235.444 192.484 235.63 192.5H279.22C279.407 192.484 279.594 192.507 279.771 192.567C279.948 192.627 280.111 192.724 280.249 192.85C280.387 192.977 280.497 193.13 280.572 193.302C280.647 193.473 280.686 193.658 280.686 193.845C280.686 194.032 280.647 194.217 280.572 194.388C280.497 194.559 280.387 194.713 280.249 194.84C280.111 194.966 279.948 195.063 279.771 195.123C279.594 195.183 279.407 195.206 279.22 195.19Z" fill="#263238"/>
<path d="M279.22 204.61H235.63C235.453 204.61 235.277 204.575 235.114 204.507C234.95 204.439 234.801 204.34 234.676 204.215C234.55 204.089 234.451 203.94 234.383 203.777C234.315 203.613 234.28 203.437 234.28 203.26C234.28 203.083 234.315 202.907 234.383 202.743C234.451 202.579 234.55 202.431 234.676 202.305C234.801 202.18 234.95 202.081 235.114 202.013C235.277 201.945 235.453 201.91 235.63 201.91H279.22C279.578 201.91 279.922 202.052 280.175 202.305C280.428 202.558 280.57 202.902 280.57 203.26C280.57 203.618 280.428 203.961 280.175 204.215C279.922 204.468 279.578 204.61 279.22 204.61Z" fill="#263238"/>
<path d="M279.22 213H235.63C235.272 213 234.929 212.858 234.676 212.604C234.423 212.351 234.28 212.008 234.28 211.65C234.28 211.292 234.423 210.948 234.676 210.695C234.929 210.442 235.272 210.3 235.63 210.3H279.22C279.578 210.3 279.922 210.442 280.175 210.695C280.428 210.948 280.57 211.292 280.57 211.65C280.57 212.008 280.428 212.351 280.175 212.604C279.922 212.858 279.578 213 279.22 213Z" fill="#263238"/>
<path d="M279.22 222.39H235.63C235.444 222.406 235.256 222.383 235.079 222.323C234.902 222.263 234.739 222.166 234.601 222.04C234.464 221.913 234.354 221.759 234.278 221.588C234.203 221.417 234.164 221.232 234.164 221.045C234.164 220.858 234.203 220.673 234.278 220.501C234.354 220.33 234.464 220.177 234.601 220.05C234.739 219.924 234.902 219.827 235.079 219.767C235.256 219.707 235.444 219.684 235.63 219.7H279.22C279.407 219.684 279.594 219.707 279.771 219.767C279.948 219.827 280.111 219.924 280.249 220.05C280.387 220.177 280.497 220.33 280.572 220.501C280.647 220.673 280.686 220.858 280.686 221.045C280.686 221.232 280.647 221.417 280.572 221.588C280.497 221.759 280.387 221.913 280.249 222.04C280.111 222.166 279.948 222.263 279.771 222.323C279.594 222.383 279.407 222.406 279.22 222.39Z" fill="#263238"/>
<path d="M279.22 231.81H235.63C235.272 231.81 234.929 231.668 234.676 231.414C234.423 231.161 234.28 230.818 234.28 230.46C234.28 230.102 234.423 229.758 234.676 229.505C234.929 229.252 235.272 229.11 235.63 229.11H279.22C279.578 229.11 279.922 229.252 280.175 229.505C280.428 229.758 280.57 230.102 280.57 230.46C280.57 230.818 280.428 231.161 280.175 231.414C279.922 231.668 279.578 231.81 279.22 231.81Z" fill="#263238"/>
<path d="M279.22 241.22H235.63C235.444 241.236 235.256 241.213 235.079 241.153C234.902 241.093 234.739 240.996 234.601 240.87C234.464 240.743 234.354 240.59 234.278 240.418C234.203 240.247 234.164 240.062 234.164 239.875C234.164 239.688 234.203 239.503 234.278 239.332C234.354 239.16 234.464 239.007 234.601 238.88C234.739 238.754 234.902 238.657 235.079 238.597C235.256 238.537 235.444 238.514 235.63 238.53H279.22C279.407 238.514 279.594 238.537 279.771 238.597C279.948 238.657 280.111 238.754 280.249 238.88C280.387 239.007 280.497 239.16 280.572 239.332C280.647 239.503 280.686 239.688 280.686 239.875C280.686 240.062 280.647 240.247 280.572 240.418C280.497 240.59 280.387 240.743 280.249 240.87C280.111 240.996 279.948 241.093 279.771 241.153C279.594 241.213 279.407 241.236 279.22 241.22Z" fill="#263238"/>
<path d="M279.22 250.64H235.63C235.272 250.64 234.929 250.498 234.676 250.245C234.423 249.991 234.28 249.648 234.28 249.29C234.28 248.932 234.423 248.589 234.676 248.335C234.929 248.082 235.272 247.94 235.63 247.94H279.22C279.578 247.94 279.922 248.082 280.175 248.335C280.428 248.589 280.57 248.932 280.57 249.29C280.57 249.648 280.428 249.991 280.175 250.245C279.922 250.498 279.578 250.64 279.22 250.64Z" fill="#263238"/>
<path d="M279.22 260.05H235.63C235.444 260.066 235.256 260.043 235.079 259.983C234.902 259.923 234.739 259.826 234.601 259.7C234.464 259.573 234.354 259.42 234.278 259.248C234.203 259.077 234.164 258.892 234.164 258.705C234.164 258.518 234.203 258.333 234.278 258.162C234.354 257.99 234.464 257.837 234.601 257.71C234.739 257.584 234.902 257.487 235.079 257.427C235.256 257.367 235.444 257.344 235.63 257.36H279.22C279.407 257.344 279.594 257.367 279.771 257.427C279.948 257.487 280.111 257.584 280.249 257.71C280.387 257.837 280.497 257.99 280.572 258.162C280.647 258.333 280.686 258.518 280.686 258.705C280.686 258.892 280.647 259.077 280.572 259.248C280.497 259.42 280.387 259.573 280.249 259.7C280.111 259.826 279.948 259.923 279.771 259.983C279.594 260.043 279.407 260.066 279.22 260.05Z" fill="#263238"/>
<path d="M279.22 269.47H235.63C235.444 269.486 235.256 269.463 235.079 269.403C234.902 269.343 234.739 269.246 234.601 269.12C234.464 268.993 234.354 268.839 234.278 268.668C234.203 268.497 234.164 268.312 234.164 268.125C234.164 267.938 234.203 267.753 234.278 267.582C234.354 267.41 234.464 267.257 234.601 267.13C234.739 267.004 234.902 266.907 235.079 266.847C235.256 266.787 235.444 266.764 235.63 266.78H279.22C279.407 266.764 279.594 266.787 279.771 266.847C279.948 266.907 280.111 267.004 280.249 267.13C280.387 267.257 280.497 267.41 280.572 267.582C280.647 267.753 280.686 267.938 280.686 268.125C280.686 268.312 280.647 268.497 280.572 268.668C280.497 268.839 280.387 268.993 280.249 269.12C280.111 269.246 279.948 269.343 279.771 269.403C279.594 269.463 279.407 269.486 279.22 269.47Z" fill="#263238"/>
<path d="M404.54 148.11H361C360.814 148.126 360.626 148.103 360.449 148.043C360.272 147.982 360.109 147.886 359.972 147.76C359.834 147.633 359.724 147.479 359.648 147.308C359.573 147.137 359.534 146.952 359.534 146.765C359.534 146.578 359.573 146.393 359.648 146.221C359.724 146.05 359.834 145.896 359.972 145.77C360.109 145.644 360.272 145.547 360.449 145.487C360.626 145.427 360.814 145.404 361 145.42H404.59C404.777 145.404 404.964 145.427 405.141 145.487C405.319 145.547 405.481 145.644 405.619 145.77C405.757 145.896 405.867 146.05 405.942 146.221C406.017 146.393 406.056 146.578 406.056 146.765C406.056 146.952 406.017 147.137 405.942 147.308C405.867 147.479 405.757 147.633 405.619 147.76C405.481 147.886 405.319 147.982 405.141 148.043C404.964 148.103 404.777 148.126 404.59 148.11H404.54Z" fill="#263238"/>
<path d="M404.54 157.53H361C360.823 157.53 360.647 157.495 360.483 157.427C360.319 157.359 360.171 157.26 360.045 157.134C359.92 157.009 359.821 156.86 359.753 156.696C359.685 156.533 359.65 156.357 359.65 156.18C359.65 156.003 359.685 155.827 359.753 155.663C359.821 155.499 359.92 155.351 360.045 155.225C360.171 155.1 360.319 155 360.483 154.933C360.647 154.865 360.823 154.83 361 154.83H404.59C404.948 154.83 405.291 154.972 405.544 155.225C405.798 155.478 405.94 155.822 405.94 156.18C405.94 156.538 405.798 156.881 405.544 157.134C405.291 157.388 404.948 157.53 404.59 157.53H404.54Z" fill="#263238"/>
<path d="M404.54 166.94H361C360.814 166.956 360.626 166.933 360.449 166.873C360.272 166.813 360.109 166.716 359.972 166.59C359.834 166.463 359.724 166.309 359.648 166.138C359.573 165.967 359.534 165.782 359.534 165.595C359.534 165.408 359.573 165.223 359.648 165.052C359.724 164.88 359.834 164.727 359.972 164.6C360.109 164.474 360.272 164.377 360.449 164.317C360.626 164.257 360.814 164.234 361 164.25H404.59C404.777 164.234 404.964 164.257 405.141 164.317C405.319 164.377 405.481 164.474 405.619 164.6C405.757 164.727 405.867 164.88 405.942 165.052C406.017 165.223 406.056 165.408 406.056 165.595C406.056 165.782 406.017 165.967 405.942 166.138C405.867 166.309 405.757 166.463 405.619 166.59C405.481 166.716 405.319 166.813 405.141 166.873C404.964 166.933 404.777 166.956 404.59 166.94H404.54Z" fill="#263238"/>
<path d="M404.54 176.36H361C360.823 176.36 360.647 176.325 360.483 176.257C360.319 176.189 360.171 176.09 360.045 175.965C359.92 175.839 359.821 175.69 359.753 175.527C359.685 175.363 359.65 175.187 359.65 175.01C359.65 174.833 359.685 174.657 359.753 174.493C359.821 174.329 359.92 174.181 360.045 174.055C360.171 173.93 360.319 173.831 360.483 173.763C360.647 173.695 360.823 173.66 361 173.66H404.59C404.948 173.66 405.291 173.802 405.544 174.055C405.798 174.308 405.94 174.652 405.94 175.01C405.94 175.368 405.798 175.711 405.544 175.965C405.291 176.218 404.948 176.36 404.59 176.36H404.54Z" fill="#263238"/>
<path d="M404.54 185.77H361C360.814 185.786 360.626 185.763 360.449 185.703C360.272 185.643 360.109 185.546 359.972 185.42C359.834 185.293 359.724 185.14 359.648 184.968C359.573 184.797 359.534 184.612 359.534 184.425C359.534 184.238 359.573 184.053 359.648 183.882C359.724 183.71 359.834 183.557 359.972 183.43C360.109 183.304 360.272 183.207 360.449 183.147C360.626 183.087 360.814 183.064 361 183.08H404.59C404.777 183.064 404.964 183.087 405.141 183.147C405.319 183.207 405.481 183.304 405.619 183.43C405.757 183.557 405.867 183.71 405.942 183.882C406.017 184.053 406.056 184.238 406.056 184.425C406.056 184.612 406.017 184.797 405.942 184.968C405.867 185.14 405.757 185.293 405.619 185.42C405.481 185.546 405.319 185.643 405.141 185.703C404.964 185.763 404.777 185.786 404.59 185.77H404.54Z" fill="#263238"/>
<path d="M404.54 195.19H361C360.814 195.206 360.626 195.183 360.449 195.123C360.272 195.063 360.109 194.966 359.972 194.84C359.834 194.713 359.724 194.559 359.648 194.388C359.573 194.217 359.534 194.032 359.534 193.845C359.534 193.658 359.573 193.473 359.648 193.302C359.724 193.13 359.834 192.977 359.972 192.85C360.109 192.724 360.272 192.627 360.449 192.567C360.626 192.507 360.814 192.484 361 192.5H404.59C404.777 192.484 404.964 192.507 405.141 192.567C405.319 192.627 405.481 192.724 405.619 192.85C405.757 192.977 405.867 193.13 405.942 193.302C406.017 193.473 406.056 193.658 406.056 193.845C406.056 194.032 406.017 194.217 405.942 194.388C405.867 194.559 405.757 194.713 405.619 194.84C405.481 194.966 405.319 195.063 405.141 195.123C404.964 195.183 404.777 195.206 404.59 195.19H404.54Z" fill="#263238"/>
<path d="M404.54 204.61H361C360.823 204.61 360.647 204.575 360.483 204.507C360.319 204.439 360.171 204.34 360.045 204.215C359.92 204.089 359.821 203.94 359.753 203.777C359.685 203.613 359.65 203.437 359.65 203.26C359.65 203.083 359.685 202.907 359.753 202.743C359.821 202.579 359.92 202.431 360.045 202.305C360.171 202.18 360.319 202.081 360.483 202.013C360.647 201.945 360.823 201.91 361 201.91H404.59C404.948 201.91 405.291 202.052 405.544 202.305C405.798 202.558 405.94 202.902 405.94 203.26C405.94 203.618 405.798 203.961 405.544 204.215C405.291 204.468 404.948 204.61 404.59 204.61H404.54Z" fill="#263238"/>
<path d="M404.9 210.93H359.91V262.54H404.9V210.93Z" fill="#B29758"/>
<path opacity="0.6" d="M404.9 210.93H359.91V262.54H404.9V210.93Z" fill="white"/>
<path d="M427.33 304.39C427.06 294.23 427.85 276.89 418.93 269.75C411.1 263.48 405.01 271.99 402.82 278.85C397.49 295.5 398.06 358.16 399.44 370.78C399.44 370.78 398.08 358.14 388.15 363.56C378.22 368.98 393.15 397.43 393.15 397.43C393.15 397.43 381.41 388.85 375.99 396.07C370.57 403.29 382.77 411.43 382.77 411.43C382.77 411.43 371.48 408.27 371.48 411.43C371.48 414.59 375.09 417.3 385.48 418.66H441.48C441.48 418.66 450.48 413.66 448.71 408.27C446.94 402.88 437.38 406 437.38 406C437.38 406 451.83 388.39 450.92 380.71C450.01 373.03 431.5 382.06 431.5 382.06C431.5 382.06 445.96 345.48 443.25 329.22C441.11 316.41 431.17 325.22 425.76 330.1C427.032 321.592 427.557 312.989 427.33 304.39Z" fill="#B29758"/>
<path opacity="0.1" d="M427.33 304.39C427.06 294.23 427.85 276.89 418.93 269.75C411.1 263.48 405.01 271.99 402.82 278.85C397.49 295.5 398.06 358.16 399.44 370.78C399.44 370.78 398.08 358.14 388.15 363.56C378.22 368.98 393.15 397.43 393.15 397.43C393.15 397.43 381.41 388.85 375.99 396.07C370.57 403.29 382.77 411.43 382.77 411.43C382.77 411.43 371.48 408.27 371.48 411.43C371.48 414.59 375.09 417.3 385.48 418.66H441.48C441.48 418.66 450.48 413.66 448.71 408.27C446.94 402.88 437.38 406 437.38 406C437.38 406 451.83 388.39 450.92 380.71C450.01 373.03 431.5 382.06 431.5 382.06C431.5 382.06 445.96 345.48 443.25 329.22C441.11 316.41 431.17 325.22 425.76 330.1C427.032 321.592 427.557 312.989 427.33 304.39Z" fill="black"/>
<path d="M409.32 417.45L413.44 294" stroke="#B29758" stroke-width="1.72695" stroke-linecap="round" stroke-linejoin="round"/>
<path d="M411.63 366.27L432.86 346.39" stroke="#B29758" stroke-width="1.72695" stroke-linecap="round" stroke-linejoin="round"/>
<path d="M421.57 357.23L426.08 344.59" stroke="#B29758" stroke-width="1.72695" stroke-linecap="round" stroke-linejoin="round"/>
<path d="M394.02 381.62L409.97 398.63" stroke="#B29758" stroke-width="1.72695" stroke-linecap="round" stroke-linejoin="round"/>
<path d="M437.38 391.56L410.28 405.56" stroke="#B29758" stroke-width="1.72695" stroke-linecap="round" stroke-linejoin="round"/>
<path d="M423.72 398.46L432.86 399.24" stroke="#B29758" stroke-width="1.72695" stroke-linecap="round" stroke-linejoin="round"/>
<path d="M229.917 401.055C229.917 401.055 237.471 401.499 239.25 401.055C241.029 400.61 244.588 397.722 245.032 399.946C245.477 402.17 243.034 405.284 241.502 407.056C239.97 408.828 233.736 410.395 231.943 411.292C230.15 412.188 227.495 414.405 225.271 414.405C223.047 414.405 221.741 407.063 221.741 407.063C221.741 407.063 228.406 403.067 230.213 400.172" fill="white"/>
<path d="M229.917 401.055C229.917 401.055 237.471 401.499 239.25 401.055C241.029 400.61 244.588 397.722 245.032 399.946C245.477 402.17 243.034 405.284 241.502 407.056C239.97 408.828 233.736 410.395 231.943 411.292C230.15 412.188 227.495 414.405 225.271 414.405C223.047 414.405 221.741 407.063 221.741 407.063C221.741 407.063 228.406 403.067 230.213 400.172" stroke="#263238" stroke-linejoin="round"/>
<path d="M244.637 399.275C240.105 407.635 232.635 409.054 232.635 409.054L223.175 412.209C223.725 413.431 224.417 414.398 225.215 414.398C227.439 414.398 230.108 412.174 231.887 411.285C233.666 410.395 239.893 408.835 241.446 407.049C242.999 405.262 245.449 402.163 244.976 399.939C244.954 399.682 244.832 399.444 244.637 399.275Z" fill="white" stroke="#263238" stroke-linejoin="round"/>
<path d="M149.757 395.414C149.757 395.414 143.968 401.972 143.474 403.886C143.015 405.721 147.434 408.39 148.578 409.195C151.589 411.27 154.872 412.919 158.335 414.095C159.564 414.518 165.593 415.937 164.802 412.951C164.216 410.741 159.585 408.192 158.999 406.893C158.413 405.594 157.446 403.06 157.446 403.06L149.757 395.414Z" fill="white" stroke="#263238" stroke-linejoin="round"/>
<path d="M148.578 409.23C151.589 411.306 154.872 412.954 158.335 414.13C159.401 414.497 164.089 415.612 164.788 413.946C162.67 413.826 158.603 413.155 153.4 410.183C149.952 408.262 146.672 406.054 143.594 403.582C143.548 403.693 143.508 403.806 143.474 403.921C143.015 405.749 147.434 408.418 148.578 409.23Z" fill="white" stroke="#263238" stroke-linejoin="round"/>
<path d="M165.437 313.093L167.845 330.864L169.885 368.36C169.885 368.36 163.658 374.361 160.107 378.364C156.556 382.367 148.451 396.324 148.451 396.324C148.451 396.324 149.093 399.819 153.075 402.198C157.057 404.578 159.217 404.211 159.217 404.211L162.091 399.205L163.121 396.946C163.121 396.946 186.342 374.587 186.787 371.692C187.232 368.797 189.533 337.507 189.533 337.507L207.685 364.138C207.685 364.138 209.916 381.696 211.681 385.932C213.446 390.168 220.802 403.942 220.802 403.942L221.692 407.049C222.636 407.353 223.642 407.411 224.614 407.217C225.586 407.023 226.493 406.583 227.248 405.94C228.784 404.515 230.134 402.902 231.265 401.139L228.801 398.16L228.356 396.155C228.356 396.155 222.355 360.36 221.021 356.139C219.687 351.917 203.42 315.331 203.42 315.331L199.89 305.553C199.89 305.553 196.558 307.77 186.328 310.884C176.098 313.997 165.437 313.093 165.437 313.093Z" fill="#263238" stroke="#263238" stroke-linejoin="round"/>
<path d="M188.079 316.878C195.534 313.475 199.057 310.079 200.702 307.855L199.862 305.539C199.862 305.539 196.53 307.756 186.3 310.869C177.122 313.651 167.668 313.242 165.755 313.122L165.409 313.171L166.066 317.922C169.621 319.214 173.398 319.787 177.177 319.608C180.956 319.428 184.662 318.5 188.079 316.878Z" fill="#B29758" stroke="#263238" stroke-linejoin="round"/>
<path d="M161.512 261.124L144.003 274.129L163.842 311.314C164.039 312.702 164.755 313.964 165.847 314.844C167.682 316.348 179.684 316.016 184.019 314.682C188.475 313.147 192.776 311.192 196.862 308.843C198.697 307.678 201.196 305.172 200.526 303.004C200.077 301.604 199.464 300.263 198.697 299.008L195.167 288.835C195.167 288.835 209.005 289.668 210.841 289.668C212.676 289.668 219.009 273.663 219.009 273.663C219.009 273.663 217.173 273.493 216.51 272.328C216.093 271.525 215.776 270.674 215.564 269.794C213.627 270.918 211.623 271.922 209.563 272.801C206.033 274.298 202.39 274.63 200.893 273.966C199.396 273.303 190.55 265.297 188.552 262.79C186.554 260.284 186.215 259.26 185.551 259.26C184.888 259.26 172.547 260.1 171.043 260.1C169.539 260.1 161.512 261.124 161.512 261.124Z" fill="#B29758" stroke="#263238" stroke-linejoin="round"/>
<path d="M216.538 272.3C216.118 271.53 215.79 270.712 215.564 269.865L215.042 270.465C215.042 270.465 212.373 272.463 213.044 275.301C213.46 277.073 215.508 277.673 217.315 277.828C218.332 275.435 219.045 273.635 219.045 273.635C219.045 273.635 217.202 273.465 216.538 272.3Z" fill="#B29758" stroke="#263238" stroke-linejoin="round"/>
<path d="M188.256 268.869L187.359 266.292" stroke="#263238" stroke-linejoin="round"/>
<path d="M195.195 288.807L189.039 271.128" stroke="#263238" stroke-linejoin="round"/>
<path d="M161.674 324.884C160.704 324.081 159.905 323.092 159.325 321.975C158.744 320.858 158.394 319.636 158.295 318.381C158.195 317.126 158.349 315.864 158.746 314.67C159.143 313.475 159.777 312.372 160.608 311.427L228.978 232.983L239.427 241.631L175.095 323.415C174.322 324.408 173.357 325.236 172.257 325.849C171.158 326.463 169.947 326.85 168.695 326.986C167.444 327.123 166.178 327.008 164.972 326.647C163.766 326.285 162.644 325.686 161.674 324.884Z" fill="#263238" stroke="#263238" stroke-linejoin="round"/>
<path d="M210.792 253.852L160.609 311.427C159.821 312.378 159.228 313.476 158.864 314.656C158.5 315.836 158.372 317.077 158.487 318.307C158.602 319.537 158.959 320.732 159.536 321.824C160.113 322.916 160.9 323.884 161.851 324.672C162.803 325.46 163.9 326.053 165.08 326.417C166.261 326.781 167.501 326.909 168.731 326.794C169.961 326.678 171.156 326.322 172.248 325.744C173.34 325.167 174.308 324.38 175.096 323.429L222.554 263.087L210.792 253.852Z" fill="white" stroke="#263238" stroke-linejoin="round"/>
<path d="M286.009 174.751C279.44 169.309 271.404 165.938 262.918 165.064C254.432 164.189 245.877 165.851 238.335 169.839C230.794 173.827 224.604 179.961 220.55 187.467C216.495 194.973 214.757 203.512 215.556 212.006C216.355 220.499 219.655 228.565 225.038 235.183C230.422 241.801 237.647 246.674 245.799 249.185C253.952 251.696 262.667 251.734 270.841 249.292C279.015 246.85 286.281 242.04 291.721 235.468C299.013 226.658 302.508 215.313 301.437 203.927C300.366 192.541 294.817 182.047 286.009 174.751ZM234.958 236.4C229.335 231.744 225.219 225.526 223.13 218.531C221.041 211.536 221.073 204.079 223.222 197.103C225.371 190.126 229.541 183.944 235.204 179.337C240.867 174.73 247.769 171.906 255.037 171.222C262.305 170.537 269.612 172.024 276.036 175.493C282.459 178.962 287.709 184.257 291.123 190.71C294.536 197.163 295.96 204.483 295.213 211.745C294.466 219.007 291.583 225.884 286.927 231.507C283.836 235.241 280.04 238.329 275.755 240.596C271.471 242.862 266.782 244.262 261.956 244.717C257.13 245.171 252.262 244.67 247.63 243.243C242.998 241.816 238.692 239.491 234.958 236.4Z" fill="#263238" stroke="#263238" stroke-linejoin="round"/>
<path d="M219.038 273.635L225.392 263.631C225.392 263.631 227.722 259.126 228.392 258.293C229.063 257.46 231.725 256.458 229.557 256.458C227.39 256.458 226.733 257.792 226.733 257.792V254.262C226.733 253.259 226.733 250.781 225.406 250.951C224.079 251.12 224.552 253.069 224.297 254.975C224.184 255.815 223.231 259.62 223.231 259.62L221.819 254.008C221.755 253.735 221.594 253.495 221.365 253.334C221.136 253.172 220.855 253.101 220.577 253.132C220.301 253.175 220.09 253.302 220.09 253.612C220.291 255.127 220.569 256.63 220.923 258.117L220.407 260.941C220.407 260.941 219.701 256.528 218.678 255.356C218.226 254.841 217.435 255.794 217.767 256.627C218.099 257.46 218.254 262.148 218.254 262.148L218.085 264.146C218.085 264.146 216.92 262.148 216.256 261.145C215.592 260.143 214.583 260.644 215.084 262.148C215.585 263.652 216.75 266.151 216.75 266.151L215.564 269.794C215.564 269.794 213.7 275.463 219.038 273.635Z" fill="white" stroke="#263238" stroke-linejoin="round"/>
<path d="M226.704 257.792L225.54 261.124" stroke="#263238" stroke-linejoin="round"/>
<path d="M147.152 272.082C147.152 272.082 143.17 273.133 143.17 274.8C143.17 276.466 143.17 311.152 143.001 312.317C142.831 313.482 179.353 308.314 179.353 308.314L180.186 302.666L157.841 298.161L157.671 282.149" fill="#B29758"/>
<path d="M147.152 272.082C147.152 272.082 143.17 273.133 143.17 274.8C143.17 276.466 143.17 311.152 143.001 312.317C142.831 313.482 179.353 308.314 179.353 308.314L180.186 302.666L157.841 298.161L157.671 282.149" stroke="#263238" stroke-linejoin="round"/>
<path d="M176.514 301.917L176.352 308.659L176.465 308.73L179.353 308.328L180.186 302.679L176.514 301.917Z" fill="#B29758" stroke="#263238" stroke-linejoin="round"/>
<path d="M180.186 302.623C180.186 302.623 184.853 296.622 186.858 296.622C188.863 296.622 191.856 296.792 192.506 296.792C193.155 296.792 194.673 296.453 193.84 297.625C193.007 298.797 190.169 298.62 190.169 298.62L193.882 300.646C194.137 300.783 194.356 300.977 194.524 301.212C194.692 301.448 194.803 301.718 194.85 302.004C194.896 302.289 194.876 302.581 194.792 302.857C194.707 303.134 194.56 303.387 194.362 303.597C193.522 304.431 191.355 304.43 191.355 304.43C191.355 304.43 189.025 308.264 187.521 308.596C186.017 308.928 179.685 307.431 179.685 307.431L180.186 302.623Z" fill="white" stroke="#263238" stroke-linejoin="round"/>
<path d="M176.275 272.067L176.705 261.138L172.448 259.719L173.154 264.117L176.275 272.067Z" fill="#B29758" stroke="#263238" stroke-linejoin="round"/>
<path d="M176.705 261.138L179.826 267.528L176.557 267.238L176.705 261.138Z" fill="#B29758" stroke="#263238" stroke-linejoin="round"/>
<path d="M178.689 252.772C177.277 253.195 173.86 261.428 173.86 261.428L176.275 272.067L172.448 266.673L171.396 261.491L162.373 257.735L162.514 251.776C161.695 251.333 160.907 250.832 160.156 250.28C158.55 249.166 157.18 247.745 156.125 246.1C154.141 242.697 151.303 237.452 155.702 231.775C159.938 226.297 164.329 225.972 169.116 225.697H169.638C169.638 225.697 175.173 229.107 175.286 230.808C175.399 232.509 176.14 234.924 177.701 235.912C179.261 236.901 181.386 235.771 181.386 237.896C181.35 238.569 181.18 239.227 180.886 239.833C180.593 240.439 180.182 240.981 179.678 241.426C179.678 241.426 181.09 247.957 181.796 250.082C182.502 252.207 180.108 252.341 178.689 252.772Z" fill="white" stroke="#263238" stroke-linejoin="round"/>
<path d="M174.482 236.068C174.849 236.626 174.933 237.219 174.665 237.388C174.397 237.558 173.896 237.247 173.536 236.682C173.175 236.117 173.084 235.531 173.345 235.362C173.606 235.193 174.114 235.51 174.482 236.068Z" fill="#263238"/>
<path d="M171.17 235.743C171.17 235.743 171.312 233.329 173.578 233.329" stroke="#263238" stroke-linejoin="round"/>
<path d="M177.694 244.258C177.694 244.258 173.867 245.105 173.154 242.846" stroke="#263238" stroke-linejoin="round"/>
<path d="M168.332 230.78C169.61 232.051 164.922 235.171 164.216 236.597C163.51 238.023 164.788 240.283 164.922 241.278C165.056 242.274 161.667 245.105 161.667 245.105L160.382 246.383L161.378 250.357C161.378 250.357 160.926 250.357 160.156 250.28C158.55 249.166 157.18 247.745 156.125 246.1C154.141 242.697 151.303 237.452 155.702 231.775C159.938 226.297 164.329 225.972 169.116 225.697C168.29 226.254 167.245 226.501 166.652 227.109C165.776 227.935 167.054 229.495 168.332 230.78Z" fill="#A6A6A6" stroke="#263238" stroke-linejoin="round"/>
<path d="M163.369 245.677C163.369 245.677 161.251 242.415 158.681 244.265C156.111 246.114 160.799 250.364 161.66 251.07C162.522 251.776 165.19 249.087 165.19 249.087C165.681 249.796 166.309 250.399 167.036 250.863C167.764 251.326 168.576 251.639 169.426 251.784" fill="white"/>
<path d="M163.369 245.677C163.369 245.677 161.251 242.415 158.681 244.265C156.111 246.114 160.799 250.364 161.66 251.07C162.522 251.776 165.19 249.087 165.19 249.087C165.681 249.796 166.309 250.399 167.036 250.863C167.764 251.326 168.576 251.639 169.426 251.784" stroke="#263238" stroke-linejoin="round"/>
<path d="M165.917 228.224C165.917 228.224 159.818 235.037 158.257 238.158C157.199 240.36 156.298 242.634 155.56 244.964C155.56 244.964 152.44 244.681 150.618 242.697C148.797 240.714 150.76 232.905 154.304 229.079C156.515 226.723 159.107 224.756 161.971 223.261C161.971 223.261 157.431 223.402 159.147 222.124C160.862 220.846 165.106 220.282 167.944 221.701C168.319 221.846 168.661 222.065 168.95 222.344C169.239 222.623 169.47 222.958 169.628 223.327C169.787 223.697 169.87 224.094 169.873 224.496C169.876 224.898 169.798 225.297 169.645 225.669L165.917 228.224Z" fill="#263238" stroke="#263238" stroke-linejoin="round"/>
<path d="M161.519 256.881L158.596 263.087L170.033 269.653L171.968 261.068L161.519 256.881Z" fill="#B29758" stroke="#263238" stroke-linejoin="round"/>
</svg>
