<svg width="1041" height="598" viewBox="0 0 1041 598" fill="none" xmlns="http://www.w3.org/2000/svg">
<g clip-path="url(#clip0_1092_984)">
<path d="M1015.27 228.4C1003.45 185.83 924.654 232.135 924.654 232.135L945.279 194.725C947.774 190.965 949.956 187.006 951.804 182.89C962.169 159.73 962.034 134.89 951.804 113.38C948.999 100.285 940.374 81.5649 916.779 60.9999C872.124 22.2249 722.409 -4.32512 678.999 1.56988C635.589 7.46488 718.404 25.7049 718.404 25.7049H711.849C585.624 12.3249 458.619 10.5999 332.604 13.2099C300.999 13.8549 269.304 14.9049 238.359 20.2299C229.464 21.7299 219.894 24.1149 214.584 31.2999C191.124 63.1449 287.349 66.2499 302.499 65.6349C236.394 74.2299 162.999 76.8699 101.499 102.415C92.9343 105.97 84.4293 110.2 77.9643 116.785C71.4993 123.37 67.2993 132.745 68.7543 142.15C72.9993 169.435 110.499 177.535 131.859 183.595C131.859 183.595 9.27928 265.105 23.7243 306.475C30.2853 326.123 40.9804 344.138 55.0893 359.305C45.725 370.82 37.6471 383.325 30.9993 396.595C27.0843 404.605 21.9993 415.57 26.3343 424.795C48.6543 471.775 387.249 633.085 658.569 587.035C730.644 574.81 802.434 554.59 865.569 518.83C928.449 483.235 992.529 424.435 1008.37 350.305C1008.89 347.86 1009.27 345.49 1009.54 343.18C1019.5 309.025 1025.17 264.01 1015.27 228.4Z" fill="#B29758"/>
<path opacity="0.8" d="M1015.27 228.4C1003.45 185.83 924.655 232.135 924.655 232.135L945.28 194.725C947.774 190.965 949.957 187.006 951.805 182.89C962.17 159.73 962.035 134.89 951.805 113.38C949 100.285 940.375 81.5649 916.78 60.9999C872.125 22.2249 722.41 -4.32512 679 1.56988C635.59 7.46488 718.405 25.7049 718.405 25.7049H711.85C585.625 12.3249 458.62 10.5999 332.605 13.2099C301 13.8549 269.305 14.9049 238.36 20.2299C229.465 21.7299 219.895 24.1149 214.585 31.2999C191.125 63.1449 287.35 66.2499 302.5 65.6349C236.395 74.2299 163 76.8699 101.5 102.415C92.9348 105.97 84.4298 110.2 77.9648 116.785C71.4998 123.37 68.9648 132.625 68.7548 142.15C68.1548 167.305 108.595 176.65 131.92 183.595C131.92 183.595 9.33983 265.105 23.7848 306.475C30.3458 326.123 41.0409 344.138 55.1498 359.305C45.7646 370.817 37.6665 383.322 30.9998 396.595C27.0848 404.605 21.9998 415.57 26.3348 424.795C48.6548 471.775 387.25 633.085 658.57 587.035C730.645 574.81 802.435 554.59 865.57 518.83C928.45 483.235 992.53 424.435 1008.37 350.305C1008.89 347.86 1009.27 345.49 1009.54 343.18C1019.5 309.025 1025.17 264.01 1015.27 228.4Z" fill="white"/>
<path d="M822.191 183.88L821.456 183.205C821.366 183.13 812.456 175.075 805.271 176.5C798.086 177.925 796.706 181.96 796.646 182.14L795.221 181.66C795.221 181.45 796.991 176.635 804.971 175.03C811.736 173.68 819.371 179.53 821.741 181.465C823.241 178.6 828.581 169.6 834.116 168.91C840.491 168.115 847.391 173.41 847.616 173.65L846.701 174.835C846.626 174.835 839.966 169.675 834.236 170.335C828.506 170.995 822.626 182.815 822.566 182.935L822.191 183.88Z" fill="#212529"/>
<path d="M802.285 212.965L801.55 212.29C801.46 212.215 792.55 204.145 785.365 205.585C778.18 207.025 776.815 211.045 776.755 211.21L775.33 210.73C775.33 210.535 777.085 205.72 785.08 204.115C791.83 202.765 799.465 208.615 801.835 210.55C803.335 207.685 808.675 198.67 814.21 197.98C820.6 197.2 827.485 202.48 827.71 202.735L826.795 203.92C826.795 203.92 820.075 198.745 814.345 199.42C808.615 200.095 802.735 211.9 802.675 212.02L802.285 212.965Z" fill="#212529"/>
<path d="M868.78 212.965L868.045 212.29C868.045 212.29 861.28 206.155 855.88 207.235C850.48 208.315 849.505 211.27 849.46 211.405L848.035 210.925C848.035 210.76 849.415 206.995 855.535 205.765C860.575 204.76 866.275 208.915 868.27 210.565C869.575 208.18 873.55 201.565 877.72 201.085C882.64 200.485 887.95 204.565 888.22 204.745L887.305 205.93C887.305 205.93 882.265 202.03 877.945 202.585C874.465 203.02 870.445 209.575 869.215 212.08L868.78 212.965Z" fill="#212529"/>
<path d="M947.006 243.58L946.271 242.905C946.271 242.905 941.906 238.975 938.516 239.65C935.126 240.325 934.526 242.14 934.496 242.215L932.996 241.735C932.996 241.63 933.956 239.02 938.156 238.18C941.381 237.535 944.966 239.98 946.481 241.18C947.486 239.38 949.991 235.45 952.721 235.18C956.021 234.745 959.621 237.505 959.771 237.625L958.856 238.81C958.856 238.81 955.586 236.32 952.856 236.665C950.681 236.935 948.131 241.165 947.321 242.755L947.006 243.58Z" fill="#212529"/>
<path d="M577.255 208.855H277.645L278.455 207.685C278.785 207.205 286.54 196.18 296.305 197.065C297.91 197.215 299.44 197.38 300.805 197.545C307.72 198.31 312.715 198.865 315.31 195.625C316.27 194.129 316.79 192.393 316.81 190.615C317.245 187.12 317.725 183.115 324.175 180.805C328 179.41 331.975 180.475 335.815 181.51C339.925 182.62 343.81 183.67 347.23 181.72C350.65 179.77 351.265 175.855 351.895 171.715C352.132 168.854 352.954 166.071 354.31 163.54C358.435 157.135 367.435 153.715 373.885 153.715H374.005C378.355 153.715 382.255 155.74 386.005 157.645C390.295 159.835 394.36 161.905 398.875 161.125C400.284 160.774 401.588 160.088 402.674 159.124C403.761 158.16 404.598 156.948 405.115 155.59C406.519 152.13 407.549 148.529 408.19 144.85C409.51 138.535 410.755 132.565 416.77 127.03C423.686 120.98 432.273 117.168 441.4 116.095C478.24 110.875 518.935 138.28 526.81 173.62C526.81 173.905 528.49 180.76 534.655 180.76C536.804 180.553 538.914 180.048 540.925 179.26C548.545 176.74 560.05 172.915 568.75 186.31C579.835 203.365 577.63 208.075 577.345 208.555L577.255 208.855ZM280.6 207.355H576.28C576.505 206.02 576.505 200.725 567.625 187.06C559.555 174.655 549.13 178.06 541.525 180.625C539.369 181.489 537.101 182.039 534.79 182.26C527.41 182.26 525.505 174.04 525.475 173.95C517.765 139.315 477.865 112.45 441.745 117.58C432.922 118.596 424.614 122.256 417.91 128.08C412.27 133.285 411.07 139.015 409.795 145.09C409.137 148.872 408.076 152.574 406.63 156.13C406.027 157.724 405.039 159.145 403.754 160.265C402.469 161.385 400.926 162.17 399.265 162.55C394.255 163.405 389.785 161.05 385.45 158.92C381.85 157.09 378.115 155.185 374.125 155.155H374.005C367.87 155.155 359.395 158.56 355.69 164.29C354.443 166.684 353.698 169.308 353.5 172C352.84 176.305 352.15 180.76 348.085 183.07C344.02 185.38 339.76 184.165 335.545 183.07C331.93 182.095 328.18 181.09 324.805 182.32C319.225 184.345 318.805 187.525 318.43 190.9C318.365 192.964 317.715 194.967 316.555 196.675C313.45 200.56 307.825 199.93 300.715 199.135C299.215 198.97 297.715 198.805 296.215 198.67C289.075 197.905 282.85 204.58 280.6 207.355Z" fill="#212529"/>
<path d="M629.875 131.245H508.555L509.365 130.06C509.5 129.865 512.755 125.23 516.865 125.56L518.71 125.755C521.605 126.085 523.285 126.205 524.125 125.155C524.467 124.623 524.65 124.003 524.65 123.37C524.654 122.397 524.973 121.452 525.56 120.675C526.147 119.899 526.97 119.334 527.905 119.065C529.537 118.636 531.264 118.73 532.84 119.335C534.183 119.93 535.706 119.978 537.085 119.47C538.27 118.78 538.48 117.385 538.735 115.78C538.829 114.564 539.182 113.383 539.77 112.315C540.735 111.046 541.978 110.014 543.402 109.296C544.826 108.579 546.395 108.196 547.99 108.175C549.764 108.311 551.482 108.866 553 109.795C554.44 110.764 556.156 111.238 557.89 111.145C558.381 111.016 558.835 110.772 559.213 110.433C559.591 110.094 559.883 109.67 560.065 109.195C560.609 107.83 561.011 106.412 561.265 104.965C561.579 102.167 562.844 99.5615 564.85 97.585C567.693 95.0969 571.223 93.5281 574.975 93.085C589.975 90.955 606.475 102.085 609.73 116.515C609.73 116.62 610.345 119.02 612.445 119.02C613.258 118.926 614.055 118.724 614.815 118.42C618.01 117.37 622.81 115.765 626.5 121.42C630.895 128.185 630.25 130.33 629.95 130.825L629.875 131.245ZM511.585 129.745H628.81C628.81 128.95 628.315 126.745 625.375 122.245C622.435 117.745 618.505 118.825 615.43 119.845C614.518 120.208 613.558 120.436 612.58 120.52C611.567 120.465 610.602 120.069 609.842 119.396C609.083 118.723 608.572 117.814 608.395 116.815C605.395 103.15 589.57 92.545 575.32 94.57C571.866 94.9766 568.615 96.414 565.99 98.695C564.212 100.458 563.108 102.788 562.87 105.28C562.596 106.82 562.163 108.328 561.58 109.78C561.305 110.487 560.86 111.116 560.284 111.61C559.709 112.105 559.02 112.45 558.28 112.615C556.226 112.782 554.176 112.254 552.46 111.115C551.142 110.292 549.655 109.779 548.11 109.615C546.756 109.615 545.42 109.926 544.205 110.524C542.991 111.122 541.93 111.992 541.105 113.065C540.644 113.961 540.369 114.94 540.295 115.945C540.025 117.685 539.71 119.665 537.895 120.7C536.08 121.735 534.31 121.21 532.525 120.7C531.241 120.195 529.836 120.085 528.49 120.385C527.827 120.552 527.241 120.941 526.829 121.486C526.417 122.032 526.204 122.702 526.225 123.385C526.195 124.296 525.898 125.177 525.37 125.92C523.975 127.675 521.605 127.42 518.62 127.075L516.805 126.895C514.66 126.895 512.695 128.5 511.585 129.745Z" fill="#212529"/>
<path d="M884.724 305.92H763.404L764.229 304.75C764.364 304.555 767.619 299.905 771.729 300.25L773.574 300.445C776.469 300.76 778.074 300.895 778.989 299.845C779.33 299.311 779.517 298.694 779.529 298.06C779.533 297.089 779.85 296.145 780.434 295.369C781.018 294.593 781.837 294.027 782.769 293.755C784.401 293.317 786.13 293.412 787.704 294.025C789.048 294.623 790.574 294.666 791.949 294.145C793.134 293.47 793.344 292.075 793.599 290.455C793.7 289.246 794.053 288.07 794.634 287.005C795.606 285.728 796.858 284.691 798.293 283.973C799.729 283.256 801.31 282.877 802.914 282.865C804.715 282.998 806.458 283.559 807.999 284.5C809.442 285.464 811.157 285.937 812.889 285.85C813.379 285.72 813.83 285.476 814.205 285.137C814.581 284.798 814.87 284.374 815.049 283.9C815.598 282.537 816 281.119 816.249 279.67C816.563 276.872 817.829 274.267 819.834 272.29C822.674 269.796 826.206 268.227 829.959 267.79C844.959 265.66 861.459 276.79 864.714 291.205C864.714 291.325 865.329 293.725 867.429 293.725C868.241 293.626 869.038 293.424 869.799 293.125C872.994 292.06 877.809 290.47 881.484 296.125C885.879 302.875 885.234 305.035 884.949 305.53L884.724 305.92ZM766.434 304.42H883.659C883.659 303.64 883.164 301.495 880.224 296.92C877.284 292.345 873.354 293.5 870.279 294.52C869.367 294.883 868.407 295.111 867.429 295.195C866.421 295.137 865.461 294.742 864.705 294.073C863.949 293.403 863.439 292.499 863.259 291.505C860.259 277.825 844.449 267.205 830.169 269.245C826.715 269.64 823.462 271.073 820.839 273.355C819.072 275.125 817.97 277.451 817.719 279.94C817.447 281.481 817.015 282.989 816.429 284.44C816.158 285.148 815.716 285.779 815.143 286.276C814.57 286.773 813.884 287.121 813.144 287.29C811.087 287.443 809.037 286.916 807.309 285.79C805.999 284.952 804.508 284.438 802.959 284.29C801.615 284.309 800.292 284.629 799.088 285.226C797.883 285.823 796.828 286.682 795.999 287.74C795.539 288.636 795.263 289.615 795.189 290.62C794.919 292.36 794.604 294.34 792.804 295.375C791.004 296.41 789.204 295.885 787.419 295.375C786.138 294.862 784.73 294.752 783.384 295.06C782.708 295.23 782.113 295.63 781.699 296.191C781.286 296.752 781.081 297.439 781.119 298.135C781.084 299.042 780.793 299.921 780.279 300.67C778.869 302.425 776.499 302.17 773.514 301.825C772.944 301.825 772.329 301.69 771.699 301.645C769.509 301.585 767.499 303.235 766.434 304.42Z" fill="#212529"/>
<path d="M703.9 297.64H519.07L519.895 296.47C520.09 296.17 524.935 289.255 531.115 289.825L533.935 290.11C538.09 290.575 541.105 290.92 542.59 289.045C543.166 288.149 543.478 287.11 543.49 286.045C543.47 284.628 543.922 283.244 544.775 282.112C545.628 280.979 546.833 280.163 548.2 279.79C550.63 278.905 553.12 279.565 555.52 280.21C557.92 280.855 560.32 281.515 562.315 280.36C564.31 279.205 564.67 276.895 565.045 274.435C565.187 272.635 565.698 270.884 566.545 269.29C569.125 265.27 574.78 263.125 578.815 263.125C581.471 263.35 584.038 264.187 586.315 265.57C588.925 266.89 591.37 268.135 594.055 267.685C594.874 267.476 595.63 267.072 596.26 266.508C596.889 265.944 597.373 265.236 597.67 264.445C598.52 262.336 599.149 260.144 599.545 257.905C600.37 253.975 601.135 250.27 604.9 246.805C609.197 243.047 614.531 240.678 620.2 240.01C642.955 236.785 668.125 253.72 673 275.575C673.09 275.995 674.08 279.745 677.5 279.745C678.793 279.606 680.06 279.288 681.265 278.8C686.035 277.225 693.265 274.825 698.695 283.3C705.475 293.71 704.29 296.8 703.99 297.28L703.9 297.64ZM522.055 296.14H702.895C702.895 295.135 702.595 291.835 697.57 284.14C692.74 276.64 686.71 278.695 681.88 280.3C680.521 280.841 679.092 281.185 677.635 281.32C673.9 281.32 672.1 277.975 671.635 275.995C666.925 254.86 642.565 238.495 620.515 241.585C615.146 242.207 610.093 244.446 606.025 248.005C602.62 251.125 601.915 254.455 601.12 258.295C600.709 260.638 600.05 262.931 599.155 265.135C598.766 266.158 598.129 267.069 597.302 267.786C596.475 268.503 595.483 269.005 594.415 269.245C591.235 269.785 588.415 268.375 585.745 266.995C583.671 265.718 581.33 264.938 578.905 264.715C575.2 264.715 570.07 266.725 567.835 270.19C567.102 271.587 566.658 273.118 566.53 274.69C566.11 277.405 565.675 280.21 563.065 281.695C560.455 283.18 557.785 282.415 555.13 281.695C552.85 281.08 550.705 280.495 548.71 281.23C545.44 282.415 545.23 284.23 544.975 286.255C544.94 287.582 544.518 288.87 543.76 289.96C541.75 292.465 538.225 292.075 533.77 291.58L530.98 291.28C527.11 290.95 523.66 294.295 522.055 296.14Z" fill="#212529"/>
<path d="M715.405 527.35C715.405 527.35 704.47 516.025 707.53 516.355C710.59 516.685 716.35 525.175 716.35 525.175C716.35 525.175 716.425 506.5 719.155 510.58C721.885 514.66 718.54 525.25 718.54 525.25C718.54 525.25 726.34 513.085 726.325 515.065C726.325 521.215 720.325 526.03 720.325 526.03C720.325 526.03 732.82 516.775 730.825 520.525C728.83 524.275 720.79 527.83 720.79 527.83C720.79 527.83 735.19 524.92 730.075 526.975C724.96 529.03 720.1 530.425 720.1 530.425H716.11C716.11 530.425 702.52 523.6 707.635 524.62C710.357 525.099 712.982 526.021 715.405 527.35Z" fill="#212529"/>
<path d="M859.841 491.89C859.841 491.89 851.321 483.07 853.721 483.34C856.121 483.61 860.576 490.195 860.576 490.195C860.576 490.195 860.576 475.66 862.766 478.84C864.956 482.02 862.271 490.255 862.271 490.255C862.271 490.255 868.346 480.79 868.271 482.335C868.271 487.12 863.591 490.87 863.591 490.87C863.591 490.87 873.311 483.655 871.721 486.58C870.131 489.505 863.921 492.265 863.921 492.265C863.921 492.265 875.126 490 871.136 491.59C867.146 493.18 863.366 494.275 863.366 494.275H860.276C860.276 494.275 849.686 488.965 853.676 489.775C855.833 490.137 857.916 490.852 859.841 491.89Z" fill="#212529"/>
<path d="M994 460.255C994 460.255 985.495 451.435 987.88 451.705C990.265 451.975 994.735 458.56 994.735 458.56C994.735 458.56 994.735 444.025 996.925 447.205C999.115 450.385 996.445 458.62 996.445 458.62C996.445 458.62 1002.45 449.155 1002.45 450.7C1002.45 455.485 997.765 459.235 997.765 459.235C997.765 459.235 1007.49 452.035 1005.9 454.945C1004.31 457.855 998.08 460.63 998.08 460.63C998.08 460.63 1009.29 458.365 1005.31 459.955C1001.34 461.545 997.54 462.64 997.54 462.64H994.435C994.435 462.64 983.935 457.33 987.835 458.14C989.993 458.499 992.076 459.213 994 460.255Z" fill="#212529"/>
<path d="M823 532.51C823 532.51 812.83 522.01 815.695 522.295C818.56 522.58 823.885 530.485 823.885 530.485C823.885 530.485 823.885 513.13 826.495 516.985C829.105 520.84 826 530.5 826 530.5C826 530.5 833.26 519.19 833.245 521.035C833.245 526.75 827.65 531.22 827.65 531.22C827.65 531.22 839.26 522.625 837.355 526.105C835.45 529.585 828.04 532.9 828.04 532.9C828.04 532.9 841.42 530.2 836.665 532.105C831.91 534.01 827.38 535.3 827.38 535.3H823.69C823.69 535.3 811.045 528.97 815.8 529.915C818.324 530.388 820.755 531.264 823 532.51Z" fill="#B29758"/>
<path d="M621.281 487.315L531.806 386.995L512.021 402.82L413.231 254.095L327.341 273.235L301.601 225.16L276.626 223.84L229.601 131.08L159.281 195.25L125.216 183.085L1.33062 309.385L0.265625 308.335L124.811 181.345L158.936 193.54L230.051 128.65L277.571 222.385L302.516 223.705L328.121 271.525L413.921 252.415L414.206 252.835L512.366 400.63L531.971 384.94L622.406 486.31L621.281 487.315Z" fill="#212529"/>
<path d="M629.838 494.677L628.719 495.675L638.154 506.254L639.273 505.256L629.838 494.677Z" fill="#212529"/>
<path d="M281.451 283.965L274.01 285.984L274.403 287.432L281.844 285.413L281.451 283.965Z" fill="#212529"/>
<path d="M327.368 271.522L289.83 281.707L290.223 283.155L327.761 272.97L327.368 271.522Z" fill="#212529"/>
<path d="M186.52 229.525L185.275 228.685L206.14 197.89L204.73 187.3L204.82 187.09L228.955 138.115L230.305 138.775L206.275 187.555L207.7 198.25L186.52 229.525Z" fill="#212529"/>
<path d="M181.768 233.857L176.496 241.646L177.738 242.487L183.01 234.698L181.768 233.857Z" fill="#212529"/>
<path d="M143.891 259.972L109.783 306.202L110.99 307.092L145.098 260.863L143.891 259.972Z" fill="#212529"/>
<path d="M148.225 256.63L147.01 255.745L151.525 249.625L153.61 222.535L134.62 207.055L126.025 187.735L127.39 187.12L135.835 206.125L155.17 221.875L152.995 250.165L148.225 256.63Z" fill="#212529"/>
<path d="M284.126 242.56L277.256 231.115L278.546 230.335L284.456 240.19L301.541 223.885L302.576 224.965L284.126 242.56Z" fill="#212529"/>
<path d="M630.58 482.5L629.605 481.36L655.765 458.935L707.395 470.005L787.54 357.805L788.065 357.985L839.29 375.07L881.305 315.76L881.921 316.18L1019.95 413.545L1019.08 414.775L881.665 317.845L839.875 376.84L788.11 359.59L708.055 471.685L656.17 460.57L630.58 482.5Z" fill="#212529"/>
<path d="M865.601 389.98L845.426 381.16L846.026 379.78L864.551 387.88L880.751 316.63L882.221 316.96L865.601 389.98Z" fill="#212529"/>
<path d="M748.256 481.705L719.801 476.77L720.056 475.285L747.251 480.01L787.556 362.695L788.981 363.175L748.256 481.705Z" fill="#212529"/>
<path d="M786.401 354.505C777.89 354.475 769.456 356.123 761.581 359.352C753.706 362.582 746.544 367.332 740.504 373.33C734.465 379.327 729.666 386.456 726.381 394.308C723.097 402.161 721.391 410.583 721.361 419.095C721.333 434.995 727.213 450.337 737.861 462.145C745.515 461.057 753.317 461.771 760.646 464.23C768.831 466.959 776.359 471.356 782.756 477.145H788.591C794.995 471.358 802.528 466.96 810.716 464.23C818.438 461.627 826.683 460.978 834.716 462.34C845.512 450.525 851.499 435.099 851.501 419.095C851.47 410.579 849.761 402.152 846.472 394.297C843.183 386.441 838.378 379.311 832.333 373.313C826.287 367.315 819.119 362.566 811.238 359.339C803.357 356.112 794.918 354.469 786.401 354.505Z" fill="#B29758"/>
<path d="M816.672 445C814.672 446 812.672 447 810.672 448C808.712 449.062 806.814 450.234 804.986 451.51C804.311 451.975 803.652 452.47 802.977 453.01L813.642 433.165L799.017 456.055C797.517 457.255 796.016 458.47 794.651 459.715C792.301 461.715 790.001 463.815 787.751 466.015L787.001 444.49L802.302 421.195L787.001 441.175L786.326 421.915L785.186 443.5L784.091 465.1C782.126 463.255 780.146 461.455 778.091 459.685C776.486 458.29 774.851 456.91 773.186 455.59L759.357 431.965L769.512 452.8C768.927 452.38 768.356 451.945 767.756 451.54C765.929 450.264 764.031 449.092 762.072 448.03C760.122 446.995 758.127 445.99 756.072 445.03C752.069 443.074 747.962 441.337 743.771 439.825C747.828 441.607 751.784 443.61 755.622 445.825C757.542 446.905 759.431 448.015 761.291 449.155C763.119 450.3 764.877 451.552 766.556 452.905C769.902 455.581 773.092 458.446 776.111 461.485C778.751 464.11 781.331 466.84 783.791 469.585L782.501 496.915H788.907L787.991 470.605C790.736 467.455 793.661 464.365 796.661 461.38C799.681 458.341 802.871 455.477 806.216 452.8C807.896 451.448 809.654 450.195 811.482 449.05C813.342 447.91 815.231 446.8 817.151 445.72C820.994 443.505 824.955 441.502 829.017 439.72C824.808 441.252 820.687 443.015 816.672 445Z" fill="#212529"/>
<path d="M287.066 443.14C287.066 461.695 276.656 463.09 263.816 463.09C250.976 463.09 240.566 461.695 240.566 443.14C240.566 424.585 250.976 385.78 263.816 385.78C276.656 385.78 287.066 424.57 287.066 443.14Z" fill="#B29758"/>
<path d="M271.675 451.555L267.835 451.825L277.84 445.075L270.7 448.69L271.675 445.855L268.405 449.845L264.565 451.78L264.265 438.46L266.305 433.525L264.22 436.3L264.04 428.575L270.415 420.07L263.995 426.64L263.605 409.63L263.26 420.52L259.18 415.96L263.2 422.605L262.66 439.855L259.09 437.53L255.85 431.785L257.155 436.255L250.795 432.1L262.585 442.27L260.8 498.865H265.645L264.625 453.985L265.75 453.235L271.675 451.555Z" fill="#212529"/>
<path d="M912.281 379.225C912.281 415.48 891.941 418.225 866.861 418.225C841.781 418.225 821.441 415.48 821.441 379.225C821.441 342.97 841.766 267.145 866.861 267.145C891.956 267.145 912.281 343 912.281 379.225Z" fill="#B29758"/>
<path opacity="0.31" d="M912.281 379.225C912.281 415.48 891.941 418.225 866.861 418.225C841.781 418.225 821.441 415.48 821.441 379.225C821.441 342.97 841.766 267.145 866.861 267.145C891.956 267.145 912.281 343 912.281 379.225Z" fill="white"/>
<path d="M882.221 395.68L874.706 396.19L894.266 383.005L880.301 390.07L882.221 384.55L875.831 392.32L868.331 396.115L867.731 370.075L871.706 360.43L867.641 365.86L867.296 350.755L879.746 334.165L867.206 346.99L866.441 313.75L865.781 335.035L857.786 326.125L865.646 339.115L864.581 372.805L857.636 368.26L851.306 357.04L853.841 365.785L841.406 357.655L864.431 377.515L860.951 488.11H870.431L868.421 400.42L870.626 398.95L882.221 395.68Z" fill="#212529"/>
<path d="M1009.51 393.49C1009.51 412.06 999.102 413.455 986.262 413.455C973.422 413.455 963.012 412.06 963.012 393.49C963.012 374.92 973.422 336.145 986.262 336.145C999.102 336.145 1009.51 374.935 1009.51 393.49Z" fill="#B29758"/>
<path opacity="0.5" d="M1009.51 393.49C1009.51 412.06 999.102 413.455 986.262 413.455C973.422 413.455 963.012 412.06 963.012 393.49C963.012 374.92 973.422 336.145 986.262 336.145C999.102 336.145 1009.51 374.935 1009.51 393.49Z" fill="white"/>
<path d="M994.12 401.92L990.28 402.175L1000.29 395.425L993.13 399.04L994.12 396.22L990.85 400.195L987.01 402.145L986.71 388.81L988.735 383.875L986.665 386.65L986.485 378.925L992.86 370.435L986.44 377.005L986.05 359.995L985.705 370.87L981.625 366.325L985.645 372.97L985.09 390.22L981.535 387.88L978.295 382.135L979.6 386.62L973.24 382.45L985.015 392.62L983.23 449.215H988.09L987.07 404.35L988.18 403.585L994.12 401.92Z" fill="#212529"/>
<path d="M62.0059 377.8C62.0059 396.355 51.5959 397.765 38.7559 397.765C25.9159 397.765 15.5059 396.355 15.5059 377.8C15.5059 359.245 25.9159 320.5 38.7559 320.5C51.5959 320.5 62.0059 359.245 62.0059 377.8Z" fill="#B29758"/>
<path opacity="0.5" d="M62.0059 377.8C62.0059 396.355 51.5959 397.765 38.7559 397.765C25.9159 397.765 15.5059 396.355 15.5059 377.8C15.5059 359.245 25.9159 320.5 38.7559 320.5C51.5959 320.5 62.0059 359.245 62.0059 377.8Z" fill="white"/>
<path d="M46.6163 386.215L42.7763 386.485L52.7813 379.735L45.6263 383.35L46.6163 380.53L43.3463 384.505L39.5063 386.44L39.2063 373.12L41.2313 368.185L39.1613 370.96L38.9813 363.235L45.3413 354.745L38.9363 361.3L38.5463 344.305L38.2013 355.18L34.1213 350.62L38.1413 357.28L37.6013 374.515L34.0313 372.19L30.7913 366.445L32.0963 370.93L25.7363 366.76L37.5113 376.93L35.7263 433.525H40.5863L39.5663 388.645L40.6763 387.895L46.6163 386.215Z" fill="#212529"/>
<path d="M177.191 335.71C168.679 335.68 160.245 337.328 152.37 340.558C144.495 343.788 137.333 348.537 131.293 354.535C125.254 360.532 120.455 367.661 117.17 375.513C113.886 383.366 112.18 391.788 112.15 400.3C112.122 416.204 118.003 431.551 128.65 443.365C136.303 442.27 144.106 442.979 151.435 445.435C159.62 448.164 167.149 452.562 173.545 458.35H179.5C185.904 452.563 193.438 448.166 201.625 445.435C209.35 442.848 217.592 442.198 225.625 443.545C236.401 431.722 242.366 416.297 242.35 400.3C242.319 391.779 240.608 383.347 237.315 375.488C234.023 367.629 229.213 360.495 223.161 354.497C217.109 348.498 209.934 343.751 202.046 340.527C194.158 337.304 185.712 335.667 177.191 335.71Z" fill="#B29758"/>
<path opacity="0.33" d="M177.191 335.71C168.679 335.68 160.245 337.328 152.37 340.558C144.495 343.788 137.333 348.537 131.293 354.535C125.254 360.532 120.455 367.661 117.17 375.513C113.886 383.366 112.18 391.788 112.15 400.3C112.122 416.204 118.003 431.551 128.65 443.365C136.303 442.27 144.106 442.979 151.435 445.435C159.62 448.164 167.149 452.562 173.545 458.35H179.5C185.904 452.563 193.438 448.166 201.625 445.435C209.35 442.848 217.592 442.198 225.625 443.545C236.401 431.722 242.366 416.297 242.35 400.3C242.319 391.779 240.608 383.347 237.315 375.488C234.023 367.629 229.213 360.495 223.161 354.497C217.109 348.498 209.934 343.751 202.046 340.527C194.158 337.304 185.712 335.667 177.191 335.71Z" fill="white"/>
<path d="M207.46 426.22C205.46 427.22 203.46 428.22 201.46 429.22C199.497 430.271 197.599 431.438 195.775 432.715L193.765 434.215L204.43 414.355L189.805 437.26C188.315 438.45 186.86 439.665 185.44 440.905C183.085 442.96 180.79 445.045 178.54 447.205L177.79 425.68L193.09 402.385L177.685 422.425L177.01 403.15L175.915 424.705L174.82 446.32C172.855 444.46 170.875 442.66 168.82 440.89C167.22 439.5 165.585 438.135 163.915 436.795L150.085 413.17L160.24 434.02C159.655 433.585 159.085 433.165 158.485 432.745C156.661 431.468 154.763 430.301 152.8 429.25C150.85 428.2 148.855 427.195 146.8 426.25C142.797 424.294 138.691 422.557 134.5 421.045C138.61 422.801 142.616 424.789 146.5 427C148.42 428.08 150.31 429.195 152.17 430.345C153.997 431.485 155.755 432.732 157.435 434.08C160.777 436.761 163.967 439.625 166.99 442.66C169.63 445.285 172.21 448.015 174.67 450.775L173.275 478.195H179.68L178.765 451.885C181.51 448.735 184.435 445.645 187.435 442.66C190.458 439.625 193.648 436.761 196.99 434.08C198.67 432.732 200.428 431.485 202.255 430.345C204.085 429.115 205.97 428 207.91 427C211.751 424.809 215.712 422.836 219.775 421.09C215.58 422.574 211.468 424.287 207.46 426.22Z" fill="#212529"/>
<path d="M357.76 528.475V469H280.285V430.9L346.735 273.4H403.42V431.8H427.975V469H403.42V528.52L357.76 528.475ZM318.76 431.8H357.76V323.5L318.76 431.8Z" fill="#0A1237"/>
<path d="M519.295 528.61C503.965 528.61 491.265 525.46 481.195 519.16C471.199 512.968 463.293 503.917 458.5 493.18C453.5 482.18 451 469.43 451 454.93V340.615C451 325.715 453.41 312.65 458.23 301.42C462.761 290.538 470.581 281.344 480.595 275.125C490.675 268.825 503.585 265.675 519.325 265.675C534.865 265.675 547.62 268.825 557.59 275.125C567.522 281.394 575.276 290.577 579.79 301.42C584.61 312.64 587.02 325.705 587.02 340.615V454.93C587.02 469.4 584.52 482.15 579.52 493.18C574.731 503.915 566.83 512.966 556.84 519.16C546.71 525.46 534.195 528.61 519.295 528.61ZM519.295 485.785C524.965 485.785 529.06 484 531.58 480.43C534.194 476.611 535.916 472.254 536.62 467.68C537.415 463.157 537.837 458.577 537.88 453.985V341.5C537.86 336.65 537.489 331.807 536.77 327.01C536.172 322.338 534.504 317.867 531.895 313.945C529.375 310.285 525.175 308.45 519.295 308.44C513.415 308.43 509.165 310.265 506.545 313.945C503.839 317.832 502.111 322.313 501.505 327.01C500.786 331.807 500.415 336.65 500.395 341.5V454C500.431 458.592 500.852 463.173 501.655 467.695C502.366 472.32 504.205 476.699 507.01 480.445C509.74 484.005 513.835 485.785 519.295 485.785Z" fill="#0A1237"/>
<path d="M690.909 528.475V469H613.449V430.9L679.884 273.4H736.569V431.8H761.124V469H736.569V528.52L690.909 528.475ZM651.909 431.8H690.909V323.5L651.909 431.8Z" fill="#0A1237"/>
<path d="M1039.17 405.46C941.095 469.75 747.416 513.46 524.516 513.46C294.775 513.46 96.0705 466.96 1.10547 399.46V598H1039.11L1039.17 405.46Z" fill="white"/>
<path d="M524.501 514.255C413.426 514.255 305.396 503.29 212.096 482.545C121.226 462.355 48.1157 433.84 0.595703 400.045L1.4657 398.83C48.7607 432.46 121.676 460.885 212.366 481.045C305.636 501.805 413.501 512.755 524.501 512.755C725.711 512.755 910.001 477.19 1017.48 417.625L1018.21 418.945C910.541 478.615 725.981 514.255 524.501 514.255Z" fill="#212529"/>
<path d="M1026.16 414.415L1025.4 413.125C1030.17 410.32 1034.82 407.425 1039.21 404.545L1040.04 405.79C1035.61 408.7 1030.95 411.595 1026.16 414.415Z" fill="#212529"/>
<path d="M976.555 390.475C976.555 428.395 955.285 431.26 929.065 431.26C902.845 431.26 881.5 428.395 881.5 390.475C881.5 352.555 902.77 273.295 929.005 273.295C955.24 273.295 976.555 352.555 976.555 390.475Z" fill="#B29758"/>
<path d="M945.113 407.68L937.253 408.22L957.728 394.435L943.103 401.815L945.113 396.055L938.438 404.185L930.593 408.145L929.978 380.905L934.133 370.84L929.873 376.495L929.513 360.715L942.533 343.36L929.423 356.77L928.628 322.015L927.923 344.26L919.583 334.945L927.788 348.535L926.678 383.77L919.418 379.015L912.788 367.285L915.443 376.42L902.453 367.93L926.528 388.69L922.883 504.34H932.798L930.698 412.645L932.993 411.1L945.113 407.68Z" fill="#212529"/>
<path d="M925.854 505.36C925.854 505.36 908.334 487.195 913.254 487.735C918.174 488.275 927.369 501.865 927.369 501.865C927.369 501.865 927.504 471.865 931.869 478.48C936.234 485.095 930.864 502 930.864 502C930.864 502 943.359 482.5 943.344 485.68C943.254 495.535 933.699 503.245 933.699 503.245C933.699 503.245 953.739 488.41 950.499 494.5C947.259 500.59 934.419 506.2 934.419 506.2C934.419 506.2 957.504 501.535 949.299 504.82C941.094 508.105 933.294 510.355 933.294 510.355H926.919C926.919 510.355 905.124 499.42 913.329 501.055C917.713 501.79 921.945 503.244 925.854 505.36Z" fill="#212529"/>
<path d="M86.0946 482.8C86.0946 482.8 70.9295 467.095 75.1745 467.575C79.4195 468.055 87.3995 479.785 87.3995 479.785C87.3995 479.785 87.5045 453.895 91.2995 459.565C95.0945 465.235 90.4296 479.89 90.4296 479.89C90.4296 479.89 101.245 463.03 101.215 465.775C101.215 474.31 92.8896 480.97 92.8896 480.97C92.8896 480.97 110.2 468.145 107.365 473.35C104.53 478.555 93.4595 483.46 93.4595 483.46C93.4595 483.46 113.425 479.44 106.33 482.275C99.2346 485.11 92.4995 487 92.4995 487H86.9645C86.9645 487 68.1246 477.55 75.2046 478.96C79.0192 479.64 82.6974 480.937 86.0946 482.8Z" fill="#212529"/>
<path d="M140.889 369.805C140.889 407.77 119.604 410.635 93.3391 410.635C67.0741 410.635 45.7891 407.77 45.7891 369.805C45.7891 331.84 67.0891 252.49 93.3391 252.49C119.589 252.49 140.889 331.84 140.889 369.805Z" fill="#B29758"/>
<path d="M109.419 387.025L101.559 387.565L122.034 373.765L107.409 381.16L109.419 375.385L102.729 383.53L94.8842 387.49L94.2692 360.235L98.4242 350.14L94.1642 355.81L93.8042 340L106.839 322.63L93.7142 336.07L92.9192 301.27L92.2142 323.545L83.8592 314.215L92.0792 327.82L90.9692 363.085L83.6942 358.33L77.0642 346.585L79.7192 355.735L66.6992 347.23L90.8192 368.02L87.1592 483.79H97.0892L94.9892 392.005L97.2842 390.46L109.419 387.025Z" fill="#212529"/>
</g>
<defs>
<clipPath id="clip0_1092_984">
<rect width="1039.77" height="597.249" fill="white" transform="translate(0.265625 0.750732)"/>
</clipPath>
</defs>
</svg>
