<svg width="48" height="48" viewBox="0 0 48 48" fill="none" xmlns="http://www.w3.org/2000/svg">
<path d="M34.4351 7.37401C34.6156 7.18307 34.7566 6.95846 34.8503 6.713C34.9439 6.46754 34.9883 6.20605 34.9808 5.94344C34.9734 5.68084 34.9143 5.42227 34.807 5.1825C34.6996 4.94272 34.5461 4.72645 34.3551 4.54601C34.1642 4.36557 33.9396 4.22451 33.6941 4.13088C33.4487 4.03725 33.1872 3.99288 32.9246 4.00031C32.662 4.00774 32.4034 4.06682 32.1636 4.17418C31.9238 4.28153 31.7076 4.43507 31.5271 4.62601L14.5271 22.626C14.1761 22.9973 13.9804 23.489 13.9804 24C13.9804 24.511 14.1761 25.0027 14.5271 25.374L31.5271 43.376C31.7064 43.5711 31.9226 43.7287 32.1633 43.8395C32.4039 43.9504 32.6642 44.0123 32.929 44.0217C33.1938 44.0311 33.4578 43.9878 33.7057 43.8943C33.9536 43.8009 34.1805 43.659 34.3731 43.4771C34.5658 43.2952 34.7203 43.0768 34.8279 42.8347C34.9354 42.5925 34.9938 42.3314 34.9995 42.0665C35.0053 41.8016 34.9584 41.5382 34.8615 41.2916C34.7646 41.045 34.6197 40.8201 34.4351 40.63L18.7311 24L34.4351 7.37401Z" fill="#9B8247"/>
</svg>
