<svg width="20" height="20" viewBox="0 0 20 20" fill="none" xmlns="http://www.w3.org/2000/svg">
<path d="M19.0647 0.934443C18.7685 0.638191 18.4168 0.403188 18.0298 0.242856C17.6428 0.0825227 17.2279 0 16.809 0C16.3901 0 15.9752 0.0825227 15.5882 0.242856C15.2012 0.403188 14.8495 0.638191 14.5533 0.934443L2.22894 13.2588C1.92764 13.5603 1.70056 13.9277 1.56564 14.3321L0.0423835 18.9035C-0.00627797 19.0502 -0.0131868 19.2075 0.0224293 19.3579C0.0580454 19.5083 0.134783 19.6458 0.244065 19.7551C0.353347 19.8644 0.490867 19.9411 0.641256 19.9767C0.791644 20.0124 0.948974 20.0054 1.09566 19.9568L5.66709 18.4335C6.07142 18.2986 6.43885 18.0715 6.74037 17.7702L16.6648 7.84575L17.1032 8.28406C17.3372 8.51842 17.4687 8.83611 17.4687 9.16735C17.4687 9.49858 17.3372 9.81627 17.1032 10.0506L15.2416 11.9105C15.0851 12.067 14.9972 12.2792 14.9972 12.5005C14.9972 12.7218 15.0851 12.934 15.2416 13.0905C15.3981 13.2469 15.6103 13.3348 15.8316 13.3348C16.0528 13.3348 16.2651 13.2469 16.4215 13.0905L18.2814 11.2289C18.8279 10.682 19.1349 9.9405 19.1349 9.16735C19.1349 8.39419 18.8279 7.65268 18.2814 7.10579L17.8431 6.66748L19.0647 5.44754C19.3612 5.1513 19.5964 4.79953 19.7569 4.41234C19.9174 4.02515 20 3.61012 20 3.19099C20 2.77186 19.9174 2.35684 19.7569 1.96964C19.5964 1.58245 19.3612 1.23068 19.0647 0.934443ZM16.1015 6.05418C16.0841 6.07006 16.0674 6.08674 16.0515 6.10417L5.56209 16.592C5.44359 16.7101 5.29924 16.7991 5.14045 16.8519L2.15061 17.8486L3.14722 14.8604C3.19987 14.701 3.28888 14.5561 3.40721 14.4371L15.7316 2.11438C15.8731 1.97289 16.041 1.86065 16.2259 1.78408C16.4108 1.7075 16.6089 1.66809 16.809 1.66809C17.0091 1.66809 17.2072 1.7075 17.3921 1.78408C17.577 1.86065 17.745 1.97289 17.8864 2.11438C18.0279 2.25587 18.1402 2.42385 18.2168 2.60872C18.2933 2.79358 18.3327 2.99173 18.3327 3.19183C18.3327 3.39192 18.2933 3.59007 18.2168 3.77493C18.1402 3.9598 18.0279 4.12778 17.8864 4.26927L16.1015 6.05418Z" fill="#9B8247"/>
</svg>
