<svg width="40" height="32" viewBox="0 0 40 32" fill="none" xmlns="http://www.w3.org/2000/svg">
<path d="M33.8667 21.6667V5.66667C33.8667 5.52222 33.8139 5.39722 33.7083 5.29167C33.6028 5.18611 33.4778 5.13333 33.3333 5.13333H6.66667C6.52222 5.13333 6.39722 5.18611 6.29167 5.29167C6.18611 5.39722 6.13333 5.52222 6.13333 5.66667V21.6667C6.13333 21.8111 6.18611 21.9361 6.29167 22.0417C6.39722 22.1472 6.52222 22.2 6.66667 22.2H33.3333C33.4778 22.2 33.6028 22.1472 33.7083 22.0417C33.8139 21.9361 33.8667 21.8111 33.8667 21.6667ZM36 5.66667V21.6667C36 22.4 35.7389 23.0278 35.2167 23.55C34.6944 24.0722 34.0667 24.3333 33.3333 24.3333H21.0667V26.4667H26.9333C27.0889 26.4667 27.2167 26.5167 27.3167 26.6167C27.4167 26.7167 27.4667 26.8444 27.4667 27V28.0667C27.4667 28.2222 27.4167 28.35 27.3167 28.45C27.2167 28.55 27.0889 28.6 26.9333 28.6H13.0667C12.9111 28.6 12.7833 28.55 12.6833 28.45C12.5833 28.35 12.5333 28.2222 12.5333 28.0667V27C12.5333 26.8444 12.5833 26.7167 12.6833 26.6167C12.7833 26.5167 12.9111 26.4667 13.0667 26.4667H18.9333V24.3333H6.66667C5.93333 24.3333 5.30556 24.0722 4.78333 23.55C4.26111 23.0278 4 22.4 4 21.6667V5.66667C4 4.93333 4.26111 4.30556 4.78333 3.78333C5.30556 3.26111 5.93333 3 6.66667 3H33.3333C34.0667 3 34.6944 3.26111 35.2167 3.78333C35.7389 4.30556 36 4.93333 36 5.66667Z" fill="#9B8247"/>
</svg>
