<svg width="48" height="48" viewBox="0 0 48 48" fill="none" xmlns="http://www.w3.org/2000/svg">
<path d="M13.5649 7.37401C13.3844 7.18307 13.2434 6.95846 13.1497 6.713C13.0561 6.46754 13.0117 6.20605 13.0192 5.94344C13.0266 5.68084 13.0857 5.42227 13.193 5.1825C13.3004 4.94272 13.4539 4.72645 13.6449 4.54601C13.8358 4.36557 14.0604 4.22451 14.3059 4.13088C14.5513 4.03725 14.8128 3.99288 15.0754 4.00031C15.338 4.00774 15.5966 4.06682 15.8364 4.17418C16.0762 4.28153 16.2924 4.43507 16.4729 4.62601L33.4729 22.626C33.8239 22.9973 34.0196 23.489 34.0196 24C34.0196 24.511 33.8239 25.0027 33.4729 25.374L16.4729 43.376C16.2936 43.5711 16.0774 43.7287 15.8367 43.8395C15.5961 43.9504 15.3358 44.0123 15.071 44.0217C14.8062 44.0311 14.5422 43.9878 14.2943 43.8943C14.0464 43.8009 13.8195 43.659 13.6269 43.4771C13.4342 43.2952 13.2797 43.0768 13.1721 42.8347C13.0646 42.5925 13.0062 42.3314 13.0005 42.0665C12.9947 41.8016 13.0416 41.5382 13.1385 41.2916C13.2354 41.045 13.3803 40.8201 13.5649 40.63L29.2689 24L13.5649 7.37401Z" fill="#9B8247"/>
</svg>
