<svg width="32" height="32" viewBox="0 0 32 32" fill="none" xmlns="http://www.w3.org/2000/svg">
<path fill-rule="evenodd" clip-rule="evenodd" d="M7.7627 15.7993V22.2285H14.1919V15.7993H7.7627ZM12.5846 20.6212V17.4066H9.37V20.6212H12.5846Z" fill="#9B8247"/>
<path fill-rule="evenodd" clip-rule="evenodd" d="M11.781 1.3335C10.7859 1.33349 9.81512 1.64125 9.00178 2.2146C8.18845 2.78795 7.57235 3.59882 7.23793 4.53605H1.3335V6.52992L4.54811 8.96498V28.6577H2.13715C1.92401 28.6577 1.71959 28.7424 1.56888 28.8931C1.41817 29.0438 1.3335 29.2482 1.3335 29.4613C1.3335 29.6745 1.41817 29.8789 1.56888 30.0296C1.71959 30.1803 1.92401 30.265 2.13715 30.265H4.54811V30.2771H27.0504V30.265H29.4614C29.6745 30.265 29.8789 30.1803 30.0296 30.0296C30.1803 29.8789 30.265 29.6745 30.265 29.4613C30.265 29.2482 30.1803 29.0438 30.0296 28.8931C29.8789 28.7424 29.6745 28.6577 29.4614 28.6577H27.0504V8.99392L30.6668 6.55885V4.53525H16.324C15.9895 3.59816 15.3733 2.78747 14.56 2.21427C13.7467 1.64107 12.776 1.33343 11.781 1.3335ZM16.3289 7.76272C16.5109 7.24643 16.6036 6.70287 16.6029 6.15541V6.14336H28.4062L26.0016 7.76272H16.3289ZM15.3749 9.37003C14.9231 9.87628 14.3693 10.2812 13.7499 10.5582C13.1305 10.8352 12.4595 10.9781 11.781 10.9773C11.1025 10.9781 10.4314 10.8352 9.81203 10.5582C9.19262 10.2812 8.63884 9.87628 8.18705 9.37003H6.15541V28.6577H15.7992V15.7992H23.8358V28.6577H25.4431V9.37003H15.3749ZM6.95907 6.15541C6.95907 6.71877 7.05551 7.25963 7.23311 7.76272H5.62179L3.48407 6.14336H6.95907V6.15541ZM12.5846 5.35176V3.74445H10.9773V5.35176H9.37003V6.95907H10.9773V8.56637H12.5846V6.95907H14.1919V5.35176H12.5846ZM22.2285 17.4066V28.6577H17.4066V17.4066H22.2285Z" fill="#9B8247"/>
</svg>
