<svg width="32" height="32" viewBox="0 0 32 32" fill="none" xmlns="http://www.w3.org/2000/svg">
<path d="M11.3332 19.3332L6.6665 29.3332M10.6665 7.99984C10.6665 7.99984 11.9998 6.58517 11.9998 5.33317C11.9998 3.55584 10.6665 2.6665 10.6665 2.6665M15.9998 7.99984C15.9998 7.99984 17.3332 6.58517 17.3332 5.33317C17.3332 3.55584 15.9998 2.6665 15.9998 2.6665M21.3332 7.99984C21.3332 7.99984 22.6665 6.58517 22.6665 5.33317C22.6665 3.55584 21.3332 2.6665 21.3332 2.6665" stroke="#9B8247" stroke-width="2" stroke-linecap="round" stroke-linejoin="round"/>
<path d="M22 23.333H10" stroke="#9B8247" stroke-width="2" stroke-linejoin="round"/>
<path d="M20.6665 19.333L23.4665 25.333M24.6665 29.333C25.1969 29.333 25.7056 29.1223 26.0807 28.7472C26.4558 28.3721 26.6665 27.8634 26.6665 27.333C26.6665 26.8026 26.4558 26.2939 26.0807 25.9188C25.7056 25.5437 25.1969 25.333 24.6665 25.333C24.1361 25.333 23.6274 25.5437 23.2523 25.9188C22.8772 26.2939 22.6665 26.8026 22.6665 27.333C22.6665 27.8634 22.8772 28.3721 23.2523 28.7472C23.6274 29.1223 24.1361 29.333 24.6665 29.333Z" stroke="#9B8247" stroke-width="2" stroke-linecap="round" stroke-linejoin="round"/>
<path d="M15.9999 20C18.3369 20.0003 20.589 19.1238 22.311 17.5437C24.033 15.9637 25.0996 13.7952 25.2999 11.4667C25.3068 11.3627 25.2919 11.2584 25.2563 11.1604C25.2206 11.0625 25.1649 10.973 25.0928 10.8978C25.0207 10.8225 24.9337 10.7631 24.8373 10.7233C24.741 10.6835 24.6374 10.6643 24.5332 10.6667H7.46655C7.36234 10.6643 7.25876 10.6835 7.16241 10.7233C7.06606 10.7631 6.97906 10.8225 6.90694 10.8978C6.83481 10.973 6.77916 11.0625 6.74351 11.1604C6.70786 11.2584 6.693 11.3627 6.69988 11.4667C6.9002 13.7952 7.96676 15.9637 9.68875 17.5437C11.4107 19.1238 13.6628 20.0003 15.9999 20Z" stroke="#9B8247" stroke-width="2"/>
</svg>
