<svg width="675" height="450" viewBox="0 0 675 450" fill="none" xmlns="http://www.w3.org/2000/svg">
<path d="M230.256 386.334C227.763 389.448 229.527 394.434 232.812 396.684C236.097 398.934 240.3 399.249 244.287 399.474L297.774 402.525C292.68 404.658 287.433 406.89 283.563 410.832C279.693 414.774 277.506 420.921 279.747 425.97C282.951 433.17 292.527 434.34 300.384 433.98C357.471 431.334 411.084 401.985 468.252 401.508C492.021 401.319 515.52 406.152 539.199 408.231C562.878 410.31 587.736 409.419 608.895 398.592C611.595 397.224 614.421 395.379 615.051 392.445C615.681 389.511 612.549 385.938 608.157 386.334" fill="#EBEBEB"/>
<path d="M57.519 386.604C54.045 389.907 57.168 394.209 58.662 395.748C60.2405 397.197 62.1 398.306 64.125 399.006C78.102 404.757 93.24 407.106 108.306 408.384C117.306 409.131 126.594 409.527 135.081 412.722C142.416 415.485 148.95 420.246 156.528 422.262C164.106 424.278 173.718 422.424 176.967 415.296C179.298 410.184 178.011 403.263 182.295 399.627C184.185 398.016 186.75 397.512 189.09 396.684C191.43 395.856 193.869 394.38 194.49 391.968C195.147 389.268 194.22 387.468 191.7 386.334" fill="#EBEBEB"/>
<path d="M328.725 47.043C329.247 43.2 323.82 40.032 319.725 39.699C317.781 39.546 315.756 39.843 313.911 39.195C309.915 37.809 308.322 32.643 304.425 30.996C301.509 29.772 298.125 30.861 295.326 32.283C292.527 33.705 289.701 35.496 286.551 35.703C283.797 35.874 280.818 34.857 278.451 36.198C276.651 37.197 275.751 39.258 274.077 40.482C272.403 41.706 270.351 41.922 268.353 42.03C266.355 42.138 264.276 42.156 262.449 42.993C260.622 43.83 259.11 45.756 259.497 47.727L328.725 47.043Z" fill="#E0E0E0"/>
<path d="M260.937 92.457C261.702 86.931 253.89 82.377 248.031 81.9C245.232 81.675 242.325 82.107 239.67 81.18C233.928 79.182 231.642 71.766 226.035 69.399C221.85 67.599 217.035 69.201 212.967 71.253C208.899 73.305 204.867 75.861 200.367 76.158C196.425 76.41 192.141 74.943 188.667 76.869C186.093 78.309 184.743 81.27 182.367 83.025C179.991 84.78 177.021 85.095 174.141 85.248C171.261 85.401 168.282 85.437 165.663 86.634C163.044 87.831 160.875 90.612 161.415 93.438L260.937 92.457Z" fill="#EBEBEB"/>
<path d="M636.147 108.261C636.903 102.735 629.1 98.181 623.232 97.704C620.433 97.479 617.526 97.911 614.88 96.984C609.138 94.986 606.843 87.57 601.245 85.203C597.051 83.403 592.245 85.005 588.168 87.003C584.091 89.001 580.068 91.62 575.568 91.917C571.617 92.169 567.333 90.702 563.868 92.628C561.294 94.068 559.944 97.029 557.568 98.784C555.192 100.539 552.222 100.854 549.351 101.007C546.48 101.16 543.492 101.196 540.864 102.393C538.236 103.59 536.076 106.371 536.625 109.197L636.147 108.261Z" fill="#EBEBEB"/>
<path d="M100.161 69.669C100.521 67.05 96.822 64.89 94.05 64.665C92.718 64.557 91.35 64.764 90.09 64.323C87.39 63.423 86.283 59.823 83.628 58.743C81.648 57.906 79.362 58.653 77.445 59.643C75.528 60.633 73.62 61.83 71.469 61.965C69.597 62.082 67.572 61.389 65.934 62.307C64.719 63 64.08 64.368 63 65.196C61.829 65.9146 60.4767 66.2831 59.103 66.258C57.7363 66.2216 56.3748 66.4414 55.089 66.906C54.4514 67.1543 53.9113 67.6023 53.5495 68.1831C53.1877 68.7639 53.0237 69.4462 53.082 70.128L100.161 69.669Z" fill="#EBEBEB"/>
<path d="M573.624 56.466C573.984 53.847 570.285 51.696 567.504 51.471C566.181 51.363 564.804 51.57 563.553 51.129C560.853 50.184 559.746 46.629 557.091 45.549C555.111 44.712 552.825 45.459 550.899 46.449C548.973 47.439 547.074 48.636 544.932 48.771C543.06 48.897 541.035 48.204 539.397 49.113C538.182 49.797 537.543 51.201 536.418 52.029C535.251 52.7569 533.896 53.129 532.521 53.1C531.154 53.0667 529.792 53.2895 528.507 53.757C527.877 54.0031 527.343 54.4442 526.982 55.0158C526.62 55.5874 526.452 56.2596 526.5 56.934L573.624 56.466Z" fill="#EBEBEB"/>
<path d="M479.808 27.729C479.472 27.6741 479.138 27.602 478.809 27.513C477.903 27.3275 476.971 27.3001 476.055 27.432C474.548 27.6409 473.139 28.3013 472.015 29.3262C470.89 30.3512 470.102 31.6926 469.755 33.174L469.602 33.786L469.368 33.21C468.732 31.6687 467.647 30.3546 466.254 29.439C465.118 28.6942 463.811 28.2513 462.456 28.152C461.195 28.0801 459.932 28.2419 458.73 28.629C459.005 28.4423 459.309 28.3024 459.63 28.215C460.535 27.9328 461.483 27.8139 462.429 27.864C463.845 27.9278 465.22 28.3623 466.416 29.124C467.937 30.0575 469.122 31.4507 469.8 33.102H469.413V33.057C469.83 31.3771 470.788 29.8812 472.14 28.8C473.255 27.907 474.6 27.3483 476.019 27.189C476.966 27.0768 477.925 27.1471 478.845 27.396C479.182 27.4552 479.507 27.5676 479.808 27.729Z" fill="#E0E0E0"/>
<path d="M392.274 40.311C392.274 40.311 391.95 40.689 391.374 41.364C390.548 42.3121 389.802 43.3265 389.142 44.397C386.947 47.9357 385.795 52.0226 385.821 56.187V56.331H385.407C384.775 52.2566 382.888 48.481 380.007 45.531C378.778 44.3256 377.433 43.2434 375.993 42.3C375.993 42.3 376.119 42.3 376.326 42.444C376.533 42.588 376.839 42.714 377.226 42.957C378.295 43.631 379.288 44.4186 380.187 45.306C383.201 48.2574 385.175 52.1074 385.812 56.277H385.407V56.133C385.373 51.8926 386.587 47.7359 388.899 44.181C389.589 43.1098 390.378 42.1064 391.257 41.184C391.563 40.86 391.833 40.635 392.004 40.473C392.086 40.4069 392.177 40.3524 392.274 40.311Z" fill="#E0E0E0"/>
<path d="M433.845 105.939C433.845 105.984 433.134 105.696 431.811 105.399C429.948 104.994 428.029 104.921 426.141 105.183C423.341 105.552 420.698 106.692 418.509 108.477C415.819 110.665 413.922 113.675 413.109 117.045V117.135L412.947 117.747L412.713 117.171C411.399 113.978 409.149 111.258 406.26 109.368C403.895 107.835 401.179 106.93 398.367 106.74C396.473 106.607 394.57 106.783 392.733 107.262C391.437 107.604 390.744 107.901 390.735 107.865C390.89 107.773 391.053 107.695 391.221 107.631C391.702 107.424 392.195 107.247 392.697 107.1C394.998 106.428 397.415 106.255 399.788 106.591C402.161 106.928 404.435 107.767 406.458 109.053C409.435 110.957 411.754 113.732 413.1 117H412.713V116.901C413.548 113.447 415.5 110.365 418.266 108.135C420.155 106.637 422.363 105.594 424.719 105.085C427.076 104.577 429.517 104.616 431.856 105.201C432.363 105.329 432.862 105.488 433.35 105.678C433.524 105.746 433.69 105.834 433.845 105.939Z" fill="#E0E0E0"/>
<path d="M509.184 73.116C509.184 73.116 508.788 72.999 508.059 72.855C507.04 72.6426 505.992 72.6121 504.963 72.765C503.437 72.969 501.998 73.5921 500.805 74.565C499.347 75.7631 498.317 77.4023 497.871 79.236L497.709 79.848L497.475 79.272C496.759 77.5326 495.536 76.0491 493.965 75.015C492.68 74.1763 491.203 73.6777 489.672 73.566C488.636 73.4875 487.594 73.5726 486.585 73.818C485.874 73.998 485.487 74.151 485.478 74.115C485.469 74.079 485.559 74.052 485.739 73.971C485.998 73.8489 486.266 73.7466 486.54 73.665C487.812 73.2792 489.152 73.172 490.469 73.3506C491.786 73.5292 493.049 73.9894 494.172 74.7C495.827 75.7583 497.116 77.3015 497.862 79.119H497.466V79.065C497.928 77.145 499.013 75.4325 500.553 74.196C501.602 73.3708 502.828 72.7986 504.134 72.5238C505.441 72.2491 506.793 72.2793 508.086 72.612C508.368 72.6853 508.645 72.7785 508.914 72.891C509.103 73.053 509.193 73.098 509.184 73.116Z" fill="#E0E0E0"/>
<path d="M453.474 62.1C453.474 62.1 453.087 62.541 452.385 63.333C451.388 64.457 450.485 65.6611 449.685 66.933C447.091 71.1311 445.735 75.9755 445.77 80.91V81.081H445.356C444.95 78.4401 444.085 75.8907 442.8 73.548C441.757 71.622 440.449 69.8526 438.912 68.292C437.879 67.2344 436.749 66.2762 435.537 65.43C434.637 64.836 434.178 64.53 434.196 64.53C434.214 64.53 434.331 64.53 434.574 64.71C434.817 64.89 435.186 65.025 435.627 65.322C436.885 66.1277 438.055 67.0628 439.119 68.112C442.673 71.6111 445.005 76.1618 445.77 81.09H445.356V80.91C445.322 75.8959 446.755 70.9813 449.478 66.771C450.292 65.5022 451.226 64.3147 452.268 63.225C452.619 62.838 452.943 62.568 453.168 62.325C453.261 62.2382 453.363 62.1627 453.474 62.1Z" fill="#E0E0E0"/>
<path d="M327.474 130.095C327.375 130.176 317.079 118.17 304.488 103.275C291.897 88.38 281.763 76.275 281.862 76.158C281.961 76.041 292.248 88.083 304.848 102.978C317.448 117.873 327.6 130.005 327.474 130.095Z" fill="#B29758"/>
<path d="M354.366 118.017C354.24 118.017 351.477 103.671 348.192 85.941C344.907 68.211 342.351 53.793 342.477 53.775C342.603 53.757 345.366 68.112 348.651 85.851C351.936 103.59 354.501 117.99 354.366 118.017Z" fill="#B29758"/>
<path d="M401.238 52.632C401.364 52.677 396.738 67.851 390.933 86.535C385.128 105.219 380.304 120.339 380.178 120.294C380.052 120.249 384.678 105.084 390.483 86.391C396.288 67.698 401.121 52.596 401.238 52.632Z" fill="#B29758"/>
<path d="M460.863 71.514C460.962 71.595 449.163 85.518 434.448 102.609C419.733 119.7 407.772 133.488 407.7 133.398C407.628 133.308 419.4 119.394 434.115 102.303C448.83 85.212 460.8 71.424 460.863 71.514Z" fill="#B29758"/>
<path d="M475.299 132.57C475.353 132.696 466.83 136.314 456.273 140.67C445.716 145.026 437.121 148.455 437.067 148.338C437.013 148.221 445.536 144.594 456.102 140.238C466.668 135.882 475.254 132.453 475.299 132.57Z" fill="#B29758"/>
<path d="M323.496 149.184C333.747 133.074 354.294 124.254 372.996 127.908C391.698 131.562 407.979 143.847 412.263 163.53L375.363 199.719L323.496 149.184Z" fill="#B29758"/>
<path d="M391.779 139.5C391.561 139.397 391.353 139.273 391.158 139.131C390.762 138.879 390.204 138.456 389.43 138.006C387.286 136.661 385.038 135.49 382.707 134.505C379.243 133.037 375.618 131.983 371.907 131.364C365.528 130.308 358.999 130.59 352.735 132.192C346.471 133.794 340.609 136.681 335.52 140.67C333.52 142.217 331.65 143.927 329.931 145.782C329.301 146.421 328.869 146.97 328.545 147.312C328.394 147.502 328.226 147.677 328.041 147.834C328.168 147.627 328.312 147.431 328.473 147.249C328.77 146.889 329.184 146.349 329.796 145.656C331.476 143.747 333.322 141.991 335.313 140.409C341.909 135.117 349.821 131.72 358.2 130.581C366.588 129.528 375.105 130.773 382.842 134.181C385.174 135.18 387.411 136.385 389.529 137.781C390.285 138.258 390.834 138.681 391.212 138.978C391.415 139.136 391.604 139.311 391.779 139.5Z" fill="white"/>
<path d="M398.547 146.043C398.421 146.097 397.89 145.026 396.972 143.892C396.054 142.758 395.127 142.002 395.172 141.894C396 142.297 396.728 142.878 397.305 143.595C397.882 144.313 398.294 145.148 398.511 146.043H398.547Z" fill="white"/>
<path d="M514.422 219.186L427.176 149.922L375.678 200.421L281.124 108.792L188.046 200.421L83.385 385.686H594.387L514.422 219.186Z" fill="#B29758"/>
<g opacity="0.8">
<path d="M514.422 219.186L427.176 149.922L375.678 200.421L281.124 108.792L188.046 200.421L83.385 385.686H594.387L514.422 219.186Z" fill="white"/>
</g>
<path d="M227.898 161.19L272.727 130.608L261.639 153.72L287.163 129.105L318.636 145.152L281.124 108.792L227.898 161.19Z" fill="#FAFAFA"/>
<path d="M375.678 200.421L356.319 226.764L422.748 168.957L427.923 180.594L435.879 165.852L453.798 171.054L427.176 149.922L375.678 200.421Z" fill="#FAFAFA"/>
<path d="M371.16 201.87C370.965 201.738 370.781 201.591 370.611 201.429L369.126 200.097C367.83 198.945 365.994 197.235 363.726 195.093C359.226 190.827 353.187 184.761 346.572 177.993C339.957 171.225 333.972 165.141 329.472 160.812L324.279 155.7L322.848 154.305C322.674 154.152 322.515 153.983 322.371 153.801C322.565 153.931 322.745 154.078 322.911 154.242L324.405 155.565C325.692 156.717 327.528 158.436 329.805 160.569C334.305 164.844 340.353 170.901 346.968 177.669C353.583 184.437 359.568 190.512 364.023 194.85L369.288 199.953L370.719 201.348C370.882 201.507 371.03 201.682 371.16 201.87Z" fill="#B29758"/>
<path d="M592.956 382.626L588.717 373.734L572.517 339.948L514.602 219.096V219.051C488.169 198.054 458.802 174.717 427.383 149.751L427.23 149.625L427.086 149.76L375.741 200.106L362.502 187.272L281.277 108.63L281.124 108.477L280.962 108.63L187.92 200.295L139.32 292.869C136.32 298.611 133.671 303.669 131.373 308.043C131.751 307.413 132.138 306.792 132.534 306.171C134.592 302.265 136.917 297.864 139.509 292.968L188.235 200.493C214.929 174.231 246.6 143.1 281.124 109.107L362.124 187.605L375.525 200.592L375.687 200.754L375.858 200.592L427.203 150.192L514.269 219.276C538.335 269.316 558.369 310.914 572.346 340.011L588.6 373.779C590.481 377.667 591.921 380.646 592.902 382.653C593.883 384.66 594.387 385.686 594.387 385.686C594.387 385.686 593.91 384.642 592.956 382.626Z" fill="#263238"/>
<path d="M216.9 295.308L210.78 262.161L201.483 293.013L204.237 291.933L197.487 310.365L201.375 308.637L196.695 315.684L217.791 315.603L215.982 309.438L217.782 312.642L213.804 293.238L216.9 295.308Z" fill="#B29758"/>
<path opacity="0.6" d="M216.9 295.308L210.78 262.161L201.483 293.013L204.237 291.933L197.487 310.365L201.375 308.637L196.695 315.684L217.791 315.603L215.982 309.438L217.782 312.642L213.804 293.238L216.9 295.308Z" fill="white"/>
<path d="M237.069 281.817L229.023 237.321L216.396 278.658L220.095 277.218L210.951 301.905L216.18 299.61L209.862 315.684H238.158L235.764 300.762L238.158 305.064L232.929 279.027L237.069 281.817Z" fill="#B29758"/>
<path opacity="0.4" d="M237.069 281.817L229.023 237.321L216.396 278.658L220.095 277.218L210.951 301.905L216.18 299.61L209.862 315.684H238.158L235.764 300.762L238.158 305.064L232.929 279.027L237.069 281.817Z" fill="white"/>
<path d="M442.233 285.822L436.23 252.63L426.807 283.473L429.57 282.402L422.748 300.816L426.645 299.097L421.938 311.094H443.043L441.261 299.961L443.043 303.174L439.146 283.743L442.233 285.822Z" fill="#B29758"/>
<path opacity="0.6" d="M442.233 285.822L436.23 252.63L426.807 283.473L429.57 282.402L422.748 300.816L426.645 299.097L421.938 311.094H443.043L441.261 299.961L443.043 303.174L439.146 283.743L442.233 285.822Z" fill="white"/>
<path d="M196.272 302.166L193.059 284.418L188.019 300.906L189.495 300.339L185.85 310.185L187.929 309.267L185.418 315.684H196.704L195.75 309.726L196.704 311.445L194.616 301.059L196.272 302.166Z" fill="#B29758"/>
<path opacity="0.4" d="M196.272 302.166L193.059 284.418L188.019 300.906L189.495 300.339L185.85 310.185L187.929 309.267L185.418 315.684H196.704L195.75 309.726L196.704 311.445L194.616 301.059L196.272 302.166Z" fill="white"/>
<path d="M427.617 289.998L422.577 262.134L414.675 288.018L416.988 287.118L411.264 302.58L414.54 301.14L410.58 311.202H428.301L426.807 301.86L428.301 304.551L425.025 288.252L427.617 289.998Z" fill="#B29758"/>
<path opacity="0.4" d="M427.617 289.998L422.577 262.134L414.675 288.018L416.988 287.118L411.264 302.58L414.54 301.14L410.58 311.202H428.301L426.807 301.86L428.301 304.551L425.025 288.252L427.617 289.998Z" fill="white"/>
<path d="M447.651 311.319H406.494C406.404 311.319 406.332 311.265 406.332 311.202C406.332 311.139 406.404 311.094 406.494 311.094H447.651C447.741 311.094 447.813 311.094 447.813 311.202C447.813 311.31 447.741 311.319 447.651 311.319Z" fill="#263238"/>
<path d="M251.1 315.792H178.434C178.272 315.792 178.146 315.747 178.146 315.684C178.146 315.621 178.272 315.567 178.434 315.567H251.1C251.262 315.567 251.388 315.621 251.388 315.684C251.388 315.747 251.235 315.792 251.1 315.792Z" fill="#263238"/>
<path d="M540.396 263.385L511.245 102.375L465.561 251.955L478.953 246.762L445.869 336.096L464.778 327.78L441.936 385.956H544.329L535.662 331.938L544.329 347.517L525.393 253.287L540.396 263.385Z" fill="#263238"/>
<path d="M161.739 268.92L131.598 64.26L89.901 257.958L102.753 252.963L70.992 338.733L89.145 330.759L67.212 386.604H165.519L157.203 334.746L165.519 349.704L147.33 259.227L161.739 268.92Z" fill="#263238"/>
<path d="M180.774 334.611H171.882V386.334H180.774V334.611Z" fill="#263238"/>
<path d="M173.907 114.345C173.907 115.56 150.039 190.791 150.039 190.791L162 178.659L144.81 231.237L156.132 215.46L142.785 281.394L149.256 274.518L137.907 321.03L147.6 308.889L137.898 343.674L214.749 338.013L196.542 272.493L207.54 284.625L193.311 236.925L200.592 240.966L184.014 179.46L191.7 184.725L173.907 114.345Z" fill="#455A64"/>
<path d="M617.67 307.809L598.887 204.03L569.439 300.447L578.07 297.099L556.749 354.681L568.926 349.326L554.868 386.271L620.136 386.334L614.628 352.008L620.208 362.052L608.004 301.302L617.67 307.809Z" fill="#455A64"/>
<path d="M551.619 306.684L540.288 300.177L536.526 280.647L533.358 281.52L536.103 299.97L525.24 292.617L522.855 295.344L537.237 304.497L551.619 311.238V306.684Z" fill="#263238"/>
<path d="M558.36 278.199H550.053V385.974H558.36V278.199Z" fill="#263238"/>
<path d="M551.934 72.342C551.934 73.476 529.632 143.784 529.632 143.784L540.783 132.444L524.7 181.584L535.284 166.842L522.81 228.456L528.858 222.03L518.292 265.5L527.4 254.16L518.328 286.668L590.148 281.376L573.138 220.176L583.416 231.516L570.114 186.912L576.918 190.692L561.384 133.2L568.584 138.114L551.934 72.342Z" fill="#B29758"/>
<path d="M554.346 197.838C554.262 198.197 554.141 198.547 553.986 198.882C553.707 199.611 553.329 200.565 552.87 201.735L548.847 211.572L548.667 212.013L548.451 211.599C547.32 209.499 546.339 207.322 545.517 205.083C545.193 204.183 544.905 203.337 544.617 202.5H545.049C543.069 207.549 541.134 211.95 539.649 215.1C538.92 216.666 538.317 217.908 537.849 218.763C537.651 219.15 537.48 219.465 537.336 219.735C537.284 219.851 537.218 219.96 537.138 220.059C537.287 219.589 537.474 219.131 537.696 218.691L539.334 214.974C540.72 211.815 542.601 207.405 544.563 202.374L544.806 201.753L545.004 202.392C545.256 203.22 545.553 204.075 545.904 204.948C546.716 207.165 547.678 209.324 548.784 211.41H548.388C550.062 207.495 551.502 204.111 552.564 201.636L553.797 198.837C553.945 198.486 554.129 198.151 554.346 197.838Z" fill="#263238"/>
<path d="M561.996 171.594C561.839 171.355 561.703 171.102 561.591 170.838C561.321 170.262 560.97 169.542 560.565 168.687C559.665 166.887 558.369 164.313 556.677 161.487L557.082 161.433C556.722 162.819 556.344 164.304 555.939 165.852C555.687 166.815 555.435 167.751 555.201 168.66L555.03 169.29L554.769 168.696C553.239 165.294 551.907 162.288 550.98 160.128L549.9 157.59C549.757 157.303 549.646 157.001 549.567 156.69C549.765 156.969 549.928 157.271 550.053 157.59C550.368 158.256 550.773 159.084 551.25 160.083C552.258 162.198 553.635 165.177 555.183 168.579H554.751C554.985 167.679 555.237 166.734 555.489 165.771C555.894 164.223 556.29 162.738 556.65 161.352L556.785 160.83L557.064 161.298C558.449 163.672 559.701 166.121 560.817 168.633C561.231 169.533 561.537 170.316 561.717 170.838C561.841 171.077 561.935 171.331 561.996 171.594Z" fill="#263238"/>
<path d="M551.826 117.729C551.462 118.592 551.038 119.428 550.557 120.231C549.72 121.761 548.523 123.885 547.146 126.297L546.831 126.846L546.714 126.225C546.588 125.523 546.462 124.803 546.327 124.065C546.102 122.778 545.895 121.554 545.688 120.411L546.102 120.492C544.815 122.526 543.699 124.254 542.898 125.478C542.5 126.149 542.049 126.787 541.548 127.386C541.857 126.67 542.23 125.983 542.664 125.334C543.402 124.074 544.464 122.301 545.724 120.258L546.03 119.763L546.129 120.33L546.795 123.984C546.921 124.722 547.047 125.442 547.173 126.144L546.741 126.072C548.145 123.669 549.387 121.572 550.341 120.078C550.775 119.258 551.271 118.473 551.826 117.729Z" fill="#263238"/>
<path d="M85.185 318.825H73.584V386.325H85.185V318.825Z" fill="#455A64"/>
<path d="M76.914 96.84C76.914 98.082 52.614 174.78 52.614 174.78L64.782 162.414L47.223 216L58.77 199.935L45.162 267.156L51.759 260.145L40.212 307.566L50.112 295.2L40.212 330.66L118.566 324.9L100.008 258.093L111.213 270.468L96.705 221.805L104.13 225.9L87.219 163.233L95.058 168.633L76.914 96.84Z" fill="#B29758"/>
<path d="M88.578 220.824C88.578 220.824 88.479 220.761 88.317 220.608L87.606 219.924C86.958 219.276 86.076 218.394 84.978 217.314L75.924 208.116L76.293 207.999C75.78 211.005 75.222 214.299 74.637 217.737L73.656 223.353L73.521 224.154L73.224 223.407C71.2507 218.508 69.744 213.433 68.724 208.251C68.346 206.307 68.112 204.741 67.968 203.67C67.896 203.13 67.86 202.707 67.833 202.428C67.8113 202.282 67.8113 202.133 67.833 201.987C67.8785 202.125 67.9116 202.266 67.932 202.41L68.148 203.643C68.337 204.714 68.616 206.262 69.048 208.143C70.1438 213.285 71.6825 218.323 73.647 223.2L73.206 223.254C73.521 221.454 73.836 219.555 74.169 217.629C74.772 214.191 75.339 210.897 75.861 207.9L75.933 207.468L76.239 207.783L85.167 217.098L87.705 219.798L88.371 220.527C88.4535 220.616 88.5232 220.716 88.578 220.824Z" fill="#263238"/>
<path d="M60.075 281.7C60.3681 278.204 60.9705 274.74 61.875 271.35C61.8128 273.103 61.596 274.847 61.227 276.561C61.0004 278.306 60.6148 280.026 60.075 281.7Z" fill="#263238"/>
<path d="M86.85 255.411C86.8048 255.614 86.7353 255.81 86.643 255.996L85.959 257.634L83.367 263.646L74.583 283.617L74.295 284.274L74.142 283.572L73.746 281.772C72.585 276.48 71.487 271.494 70.542 267.165L70.911 267.237L63.711 277.785L61.695 280.8L61.146 281.565C61.0831 281.659 61.0107 281.747 60.93 281.826C60.9683 281.721 61.0197 281.621 61.083 281.529L61.587 280.728L63.54 277.704L70.569 267.057L70.839 266.652L70.947 267.129C71.91 271.449 73.026 276.435 74.205 281.727L74.601 283.527L74.16 283.482C77.652 275.67 80.793 268.677 83.07 263.574C84.213 261.09 85.131 259.074 85.77 257.616L86.526 256.014C86.6074 255.8 86.7163 255.597 86.85 255.411Z" fill="#263238"/>
<path d="M93.015 315.738C91.0546 313.606 89.2099 311.371 87.489 309.042C85.645 306.806 83.9235 304.471 82.332 302.049C84.2909 304.185 86.1355 306.423 87.858 308.754C89.7005 310.988 91.422 313.32 93.015 315.738Z" fill="#263238"/>
<path d="M85.5629 156.969C85.3471 156.721 85.1515 156.456 84.9779 156.177L83.4389 153.9L78.1739 145.8L78.5609 145.728C78.0299 148.428 77.5349 151.398 77.1749 154.566C76.8869 157.077 76.6979 159.507 76.5989 161.766V162.612L76.2209 161.856C74.5928 158.59 73.3166 155.159 72.4139 151.623C72.0899 150.318 71.8739 149.265 71.7479 148.545C71.6671 148.178 71.6189 147.805 71.6039 147.429C71.7337 147.782 71.8301 148.147 71.8919 148.518C72.0629 149.229 72.3149 150.264 72.6839 151.551C73.6646 155.037 74.9818 158.418 76.6169 161.649L76.1939 161.739C76.2839 159.507 76.4639 157.068 76.7519 154.539C77.1209 151.353 77.6519 148.347 78.1829 145.665L78.2999 145.143L78.5789 145.593L83.7089 153.783L85.1399 156.141C85.3054 156.404 85.447 156.681 85.5629 156.969Z" fill="#263238"/>
<path d="M412.74 386.271L422.1 353.016L481.347 320.274H514.989L520.344 331.29L528.678 330.39L542.97 355.698L554.877 353.907L586.368 386.478L412.74 386.271Z" fill="#E0E0E0"/>
<path d="M422.1 353.016H472.914L514.989 320.274H481.347L422.1 353.016Z" fill="#F5F5F5"/>
<path d="M513.756 356.904C513.153 356.904 484.875 372.636 484.875 372.636L475.326 385.875L481.887 385.83L489.6 373.086L519.3 357.696L513.756 356.904Z" fill="#F5F5F5"/>
<path d="M540.54 384.705C540.432 384.777 535.824 378.693 530.253 371.106C524.682 363.519 520.2 357.3 520.335 357.237C520.47 357.174 525.051 363.24 530.631 370.827C536.211 378.414 540.639 384.624 540.54 384.705Z" fill="#F5F5F5"/>
<path d="M412.74 386.28H413.64H416.214H426.114L462.825 386.19L586.8 385.902L586.638 386.298L562.338 361.845L554.634 354.078L554.832 354.141L542.925 355.941H542.763L542.682 355.806L528.48 330.507L528.705 330.615L520.371 331.515H520.209L520.146 331.371L514.8 320.4L514.998 320.526H481.356H481.455L422.172 353.214L422.235 353.133C416.25 374.085 413.01 385.443 412.749 386.361C412.749 386.361 412.749 386.172 412.893 385.803C413.037 385.434 413.145 384.903 413.343 384.147C413.757 382.671 414.36 380.493 415.143 377.658C416.727 371.961 419.049 363.627 421.983 353.061V353.016H422.028L481.239 320.202H481.293H514.935H515.07L515.133 320.328L520.533 331.344L520.308 331.218L528.642 330.318H528.795L528.867 330.453L543.159 355.752L542.925 355.635L554.832 353.835H554.949L555.03 353.916C557.586 356.49 560.157 359.079 562.743 361.683L586.989 386.145L587.376 386.541H586.8H462.6H425.952H416.115H412.74V386.28Z" fill="#263238"/>
<path d="M197.667 309.411C196.939 309.111 196.141 309.018 195.364 309.143C194.586 309.269 193.858 309.607 193.261 310.12C192.663 310.634 192.22 311.303 191.979 312.053C191.739 312.803 191.711 313.605 191.898 314.37C189.117 313.146 185.67 314.784 184.167 317.421C182.664 320.058 182.79 323.352 183.654 326.259C182.667 326.289 181.714 326.622 180.923 327.212C180.132 327.802 179.541 328.621 179.23 329.558C178.92 330.495 178.905 331.504 179.188 332.45C179.47 333.396 180.037 334.232 180.81 334.845C179.657 334.776 178.518 335.125 177.601 335.827C176.685 336.53 176.051 337.538 175.818 338.669C175.584 339.8 175.765 340.978 176.328 341.986C176.891 342.994 177.798 343.766 178.884 344.16C177.678 345.019 176.809 346.272 176.428 347.703C176.048 349.134 176.179 350.653 176.799 351.997C177.419 353.342 178.489 354.428 179.824 355.067C181.16 355.707 182.677 355.86 184.113 355.5C184.138 356.662 184.465 357.798 185.062 358.796C185.658 359.794 186.505 360.619 187.518 361.19C188.53 361.761 189.674 362.059 190.837 362.054C191.999 362.049 193.14 361.741 194.148 361.161C195.018 362.384 196.146 363.401 197.451 364.141C198.757 364.881 200.208 365.326 201.704 365.446C203.2 365.565 204.704 365.355 206.11 364.831C207.517 364.307 208.791 363.481 209.844 362.412C211.869 363.663 214.119 364.851 216.513 364.716C218.907 364.581 221.337 362.628 221.121 360.216C223.281 360.954 225.675 361.575 227.79 360.729C229.905 359.883 231.255 356.94 229.743 355.239C230.703 355.36 231.678 355.276 232.604 354.993C233.53 354.71 234.385 354.235 235.114 353.599C235.843 352.962 236.43 352.179 236.835 351.3C237.24 350.421 237.455 349.466 237.465 348.498C238.471 348.939 239.589 349.058 240.666 348.838C241.742 348.619 242.725 348.073 243.478 347.274C244.232 346.474 244.721 345.462 244.877 344.374C245.033 343.287 244.849 342.178 244.35 341.199C246.951 340.2 247.797 336.699 246.744 334.071C245.691 331.443 243.324 329.697 240.966 328.203C241.777 327.024 242.235 325.639 242.288 324.21C242.34 322.78 241.985 321.365 241.262 320.13C240.54 318.895 239.481 317.892 238.209 317.237C236.938 316.582 235.506 316.302 234.081 316.431C234.393 315.244 234.308 313.989 233.84 312.855C233.371 311.721 232.545 310.771 231.487 310.15C230.429 309.53 229.197 309.272 227.979 309.416C226.76 309.56 225.623 310.099 224.739 310.95C224.874 307.116 220.545 303.849 216.9 305.055C215.775 305.424 214.713 306.135 213.534 306.09C211.914 306.045 210.69 304.641 209.169 304.11C208.574 303.935 207.949 303.887 207.335 303.969C206.72 304.052 206.13 304.263 205.602 304.589C205.075 304.915 204.622 305.349 204.274 305.862C203.925 306.375 203.689 306.956 203.58 307.566C203.552 307.286 203.467 307.014 203.329 306.769C203.191 306.524 203.003 306.31 202.778 306.14C202.553 305.971 202.295 305.851 202.021 305.786C201.747 305.722 201.463 305.715 201.186 305.766C200.631 305.904 200.122 306.185 199.71 306.582C199.297 306.978 198.997 307.476 198.837 308.025C198.525 309.121 198.409 310.264 198.495 311.4" fill="#B29758"/>
<path d="M196.866 342.378C197.001 342.378 198.189 352.278 199.566 364.464C200.943 376.65 201.888 386.586 201.762 386.604C201.636 386.622 200.439 376.704 199.062 364.518C197.685 352.332 196.74 342.396 196.866 342.378Z" fill="#263238"/>
<path d="M198.639 356.76C197.238 355.328 195.953 353.787 194.796 352.152C193.513 350.613 192.351 348.976 191.322 347.256C192.717 348.693 194.002 350.233 195.165 351.864C196.448 353.403 197.61 355.04 198.639 356.76Z" fill="#263238"/>
<path d="M205.74 328.941C205.875 328.941 206.442 341.82 207.009 357.741C207.576 373.662 207.909 386.541 207.801 386.541C207.693 386.541 207.108 373.662 206.541 357.741C205.974 341.82 205.614 328.941 205.74 328.941Z" fill="#263238"/>
<path d="M212.805 329.535C212.829 329.729 212.829 329.926 212.805 330.12C212.805 330.543 212.805 331.092 212.805 331.767C212.76 333.27 212.706 335.367 212.634 337.86C212.49 342.99 212.337 350.091 212.31 357.93C212.283 365.769 212.373 372.87 212.481 378.009C212.535 380.538 212.571 382.599 212.607 384.093C212.607 384.777 212.607 385.326 212.607 385.749C212.62 385.944 212.62 386.139 212.607 386.334C212.558 386.146 212.534 385.952 212.535 385.758C212.535 385.326 212.472 384.786 212.427 384.102C212.337 382.671 212.238 380.592 212.148 378.018C211.959 372.879 211.806 365.778 211.842 357.93C211.878 350.082 212.067 342.981 212.301 337.842C212.409 335.277 212.526 333.198 212.625 331.767L212.742 330.111C212.75 329.918 212.771 329.725 212.805 329.535Z" fill="#263238"/>
<path d="M215.784 348.471C215.156 350.942 213.828 353.18 211.959 354.915C211.86 354.825 212.859 353.502 213.939 351.729C215.019 349.956 215.658 348.426 215.784 348.471Z" fill="#263238"/>
<path d="M225.9 337.797C225.899 337.967 225.875 338.137 225.828 338.301C225.756 338.67 225.657 339.138 225.54 339.705C225.252 340.983 224.874 342.729 224.406 344.853C223.452 349.2 222.183 355.212 220.923 361.881C219.663 368.55 218.664 374.616 217.962 378.981C217.629 381.123 217.35 382.887 217.143 384.183C217.044 384.759 216.972 385.227 216.909 385.596C216.89 385.765 216.85 385.931 216.792 386.091C216.77 385.924 216.77 385.754 216.792 385.587C216.837 385.209 216.882 384.687 216.945 384.156C217.08 382.923 217.314 381.132 217.62 378.927C218.232 374.517 219.186 368.442 220.446 361.755C221.706 355.068 223.029 349.074 224.046 344.736C224.568 342.576 225 340.83 225.324 339.624L225.702 338.238C225.75 338.083 225.816 337.935 225.9 337.797Z" fill="#263238"/>
<path d="M229.887 347.877C228.737 349.237 227.469 350.493 226.098 351.63C224.827 352.883 223.451 354.024 221.985 355.041C223.136 353.676 224.407 352.417 225.783 351.279C227.05 350.029 228.423 348.89 229.887 347.877Z" fill="#263238"/>
<path d="M223.929 345.987C222.574 344.075 221.476 341.993 220.662 339.795C222.026 341.702 223.125 343.785 223.929 345.987Z" fill="#263238"/>
<path d="M244.341 320.085C244.2 318.616 244.585 317.145 245.427 315.934C246.269 314.722 247.514 313.849 248.94 313.47C249.116 314.944 248.745 316.432 247.897 317.651C247.05 318.87 245.784 319.736 244.341 320.085Z" fill="#B29758"/>
<path d="M245.808 323.1C247.185 325.296 251.505 325.8 254.088 324.405C253.137 323.169 251.748 322.345 250.208 322.102C248.668 321.86 247.093 322.217 245.808 323.1Z" fill="#B29758"/>
<g opacity="0.3">
<path d="M216.342 320.256C216.028 321.238 215.914 322.273 216.008 323.3C216.103 324.327 216.403 325.324 216.891 326.232C217.872 328.032 219.852 328.986 221.841 329.508C221.942 327.595 221.474 325.695 220.495 324.048C219.516 322.401 218.071 321.081 216.342 320.256Z" fill="black"/>
</g>
<path d="M110.385 347.85C110.633 348.319 110.844 348.806 111.015 349.308C111.393 350.253 111.915 351.639 112.5 353.367C113.706 356.805 115.2 361.62 116.568 367.011C117.936 372.402 118.863 377.37 119.43 380.97C119.709 382.77 119.916 384.228 120.024 385.245C120.112 385.765 120.157 386.292 120.159 386.82C120.016 386.312 119.911 385.795 119.844 385.272L119.097 381.024C118.449 377.424 117.459 372.51 116.109 367.128C114.759 361.746 113.31 356.931 112.185 353.466L110.844 349.371C110.652 348.877 110.499 348.368 110.385 347.85Z" fill="#FAFAFA"/>
<path d="M119.214 355.59C119.391 355.972 119.533 356.37 119.637 356.778C119.889 357.552 120.231 358.686 120.627 360.081C121.437 362.88 122.49 366.759 123.543 371.079C124.596 375.399 125.469 379.314 126.054 382.167C126.342 383.598 126.567 384.75 126.702 385.551C126.804 385.964 126.862 386.386 126.873 386.811C126.722 386.417 126.604 386.01 126.522 385.596C126.315 384.696 126.045 383.589 125.73 382.239C125.064 379.413 124.146 375.498 123.093 371.187C122.04 366.876 121.032 362.988 120.312 360.171C119.97 358.83 119.691 357.705 119.466 356.832C119.335 356.429 119.251 356.012 119.214 355.59Z" fill="#FAFAFA"/>
<path d="M133.137 346.284C133.093 346.806 133.006 347.324 132.876 347.832C132.678 348.822 132.408 350.253 132.102 352.026C131.302 356.645 130.762 361.305 130.482 365.985C130.217 370.667 130.217 375.361 130.482 380.043C130.581 381.843 130.689 383.292 130.77 384.3C130.845 384.818 130.872 385.343 130.851 385.866C130.732 385.356 130.644 384.839 130.59 384.318C130.446 383.319 130.293 381.861 130.149 380.061C129.406 370.665 129.948 361.212 131.76 351.963C132.111 350.163 132.426 348.768 132.66 347.796C132.784 347.282 132.943 346.776 133.137 346.284Z" fill="#FAFAFA"/>
<path d="M137.952 369.603C137.84 370.449 137.678 371.287 137.466 372.114C136.624 376.119 136.267 380.21 136.404 384.3C136.464 385.151 136.464 386.005 136.404 386.856C136.182 386.027 136.058 385.176 136.035 384.318C135.86 382.255 135.86 380.18 136.035 378.117C136.21 376.055 136.556 374.011 137.07 372.006C137.27 371.173 137.566 370.367 137.952 369.603Z" fill="#FAFAFA"/>
<path d="M399.897 341.145V341.262C399.897 341.352 399.951 341.46 399.996 341.595C400.077 341.892 400.221 342.324 400.374 342.882C400.698 343.998 401.121 345.636 401.535 347.679C402.555 353.016 403.005 358.447 402.876 363.879C402.768 370.242 402.138 375.975 401.679 380.079C401.436 382.131 401.247 383.805 401.103 384.984C401.049 385.551 400.995 385.992 400.959 386.316V386.667C400.959 386.748 400.959 386.784 400.959 386.784C400.959 386.784 400.959 386.784 400.959 386.667L401.022 386.325C401.022 386.001 401.13 385.56 401.22 384.993C401.382 383.841 401.607 382.167 401.868 380.097C402.599 374.712 403.043 369.293 403.2 363.861C403.328 358.425 402.851 352.992 401.778 347.661C401.337 345.618 400.878 343.98 400.527 342.873C400.365 342.315 400.203 341.892 400.104 341.595C400.104 341.469 400.014 341.361 399.987 341.271C399.96 341.181 399.906 341.145 399.897 341.145Z" fill="#B29758"/>
<path d="M402.66 354.168C402.912 354.429 404.505 353.268 405.954 351.333C407.403 349.398 408.087 347.553 407.754 347.382C407.421 347.211 406.287 348.714 404.892 350.55C403.497 352.386 402.408 353.916 402.66 354.168Z" fill="#B29758"/>
<path d="M397.8 348.849C397.575 349.137 398.493 350.226 399.771 351.387C401.049 352.548 402.228 353.34 402.471 353.088C402.714 352.836 401.94 351.603 400.626 350.388C399.312 349.173 397.998 348.57 397.8 348.849Z" fill="#B29758"/>
<path d="M402.003 348.993C402.309 349.155 403.632 347.238 404.487 344.493C405.342 341.748 405.387 339.462 405.027 339.417C404.667 339.372 404.073 341.514 403.227 344.106C402.381 346.698 401.679 348.822 402.003 348.993Z" fill="#B29758"/>
<path d="M395.406 341.208C395.145 341.442 396.306 343.206 398.106 345.132C399.906 347.058 401.49 348.435 401.751 348.192C402.012 347.949 400.851 346.194 399.051 344.259C397.251 342.324 395.676 340.965 395.406 341.208Z" fill="#B29758"/>
<path d="M402.957 360.486C403.2 360.747 405.045 359.424 406.881 357.336C408.717 355.248 409.788 353.25 409.5 353.043C409.212 352.836 407.7 354.447 405.9 356.472C404.1 358.497 402.714 360.225 402.957 360.486Z" fill="#B29758"/>
<path d="M398.898 354.042C398.61 354.258 399.267 355.599 400.365 357.03C401.463 358.461 402.579 359.451 402.867 359.235C403.155 359.019 402.498 357.678 401.4 356.238C400.302 354.798 399.186 353.826 398.898 354.042Z" fill="#B29758"/>
<path d="M402.966 366.993C403.209 367.245 404.964 365.904 406.512 363.708C408.06 361.512 408.744 359.415 408.42 359.271C408.096 359.127 406.935 360.873 405.45 362.961C403.965 365.049 402.705 366.741 402.966 366.993Z" fill="#B29758"/>
<path d="M399.06 361.188C398.799 361.44 399.492 362.601 400.527 363.888C401.562 365.175 402.561 366.057 402.858 365.841C403.155 365.625 402.597 364.356 401.535 363.06C400.473 361.764 399.321 360.945 399.06 361.188Z" fill="#B29758"/>
<path d="M402.507 372.51C402.777 372.753 404.433 371.313 406.206 369.306C407.979 367.299 409.194 365.472 408.906 365.229C408.618 364.986 406.98 366.435 405.207 368.442C403.434 370.449 402.237 372.276 402.507 372.51Z" fill="#B29758"/>
<path d="M397.638 367.479C397.359 367.713 398.295 369.279 399.609 371.016C400.923 372.753 402.165 374.085 402.471 373.878C402.777 373.671 402.003 372.015 400.671 370.224C399.339 368.433 397.908 367.245 397.638 367.479Z" fill="#B29758"/>
<path d="M401.877 379.566C402.129 379.818 404.136 378.306 406.377 376.173C408.618 374.04 410.202 372.114 409.977 371.853C409.752 371.592 407.718 373.104 405.477 375.237C403.236 377.37 401.634 379.305 401.877 379.566Z" fill="#B29758"/>
<path d="M397.629 373.356C397.314 373.509 397.8 375.156 398.997 376.74C400.194 378.324 401.571 379.323 401.814 379.062C402.057 378.801 401.166 377.514 400.014 375.975C398.862 374.436 397.953 373.185 397.629 373.356Z" fill="#B29758"/>
<path d="M38.331 350.595C38.6601 351.003 38.9609 351.433 39.231 351.882C39.771 352.728 40.527 353.97 41.427 355.482C43.227 358.587 45.558 362.97 47.817 367.956C50.076 372.942 51.813 377.604 52.956 381.006C53.523 382.707 53.955 384.093 54.225 385.056C54.3915 385.55 54.5209 386.055 54.612 386.568C54.3927 386.095 54.2063 385.608 54.054 385.11L52.641 381.114C51.426 377.748 49.635 373.131 47.394 368.154C45.153 363.177 42.894 358.785 41.094 355.644L39.024 351.945C38.7601 351.513 38.5284 351.061 38.331 350.595Z" fill="#263238"/>
<path d="M56.376 336.114C56.4014 336.287 56.4014 336.463 56.376 336.636C56.376 337.023 56.313 337.536 56.259 338.121C56.142 339.408 55.998 341.262 55.836 343.566C55.503 348.165 55.215 354.537 55.296 361.566C55.377 368.595 55.836 374.967 56.286 379.566C56.502 381.861 56.7 383.724 56.853 384.966C56.916 385.569 56.961 386.055 57.006 386.442C57.0279 386.615 57.0279 386.791 57.006 386.964C56.9526 386.8 56.9135 386.631 56.889 386.46C56.826 386.073 56.754 385.56 56.655 384.993C56.448 383.715 56.196 381.861 55.935 379.593C55.404 375.003 54.909 368.631 54.81 361.593C54.711 354.555 55.071 348.156 55.485 343.548C55.692 341.244 55.89 339.39 56.061 338.148C56.142 337.545 56.214 337.059 56.268 336.672C56.2881 336.483 56.3242 336.297 56.376 336.114Z" fill="#263238"/>
<path d="M67.347 355.806C67.2446 356.213 67.0998 356.608 66.915 356.985C66.609 357.723 66.177 358.785 65.664 360.144C62.9757 367.136 61.1619 374.433 60.264 381.87C60.093 383.292 59.967 384.453 59.886 385.254C59.8767 385.67 59.8193 386.084 59.715 386.487C59.6818 386.071 59.6818 385.652 59.715 385.236C59.715 384.435 59.814 383.265 59.949 381.834C60.6578 374.335 62.4777 366.982 65.349 360.018C65.907 358.695 66.393 357.624 66.753 356.904C66.9171 356.521 67.1159 356.153 67.347 355.806Z" fill="#263238"/>
<path d="M51.3 386.604C50.3615 384.322 49.1818 382.147 47.781 380.115C46.2506 378.179 44.5155 376.414 42.606 374.85C43.2817 375.144 43.9073 375.542 44.46 376.029C45.8438 377.117 47.0757 378.385 48.123 379.8C49.1835 381.227 50.0435 382.793 50.679 384.453C50.9969 385.133 51.2064 385.859 51.3 386.604Z" fill="#263238"/>
<path d="M382.617 337.095C382.698 337.243 382.762 337.4 382.806 337.563L383.274 338.94C383.67 340.128 384.174 341.865 384.822 344.025C386.073 348.336 387.603 354.357 388.926 361.125C390.249 367.893 391.077 374.013 391.545 378.477C391.779 380.709 391.941 382.518 392.022 383.778C392.022 384.363 392.085 384.84 392.112 385.218C392.134 385.385 392.134 385.555 392.112 385.722C392.068 385.56 392.037 385.394 392.022 385.227C391.977 384.849 391.923 384.372 391.851 383.796C391.698 382.482 391.482 380.691 391.23 378.513C390.672 374.067 389.781 367.929 388.476 361.215C387.171 354.501 385.677 348.48 384.516 344.115L383.103 338.994L382.725 337.599C382.666 337.437 382.63 337.267 382.617 337.095Z" fill="#263238"/>
<path d="M381.051 363.042C381.245 363.322 381.405 363.624 381.528 363.942C381.807 364.509 382.194 365.346 382.644 366.372C383.544 368.442 384.75 371.331 385.938 374.571C387.126 377.811 388.08 380.79 388.719 382.959C389.043 384.039 389.286 384.921 389.439 385.542C389.54 385.855 389.606 386.178 389.637 386.505C389.474 386.223 389.35 385.92 389.268 385.605C389.025 384.912 388.746 384.066 388.368 383.076C387.648 380.934 386.649 377.982 385.461 374.751C384.273 371.52 383.139 368.622 382.302 366.525C381.924 365.544 381.591 364.725 381.321 364.032C381.189 363.715 381.098 363.382 381.051 363.042Z" fill="#263238"/>
<path d="M386.829 384.363C385.753 382.252 384.551 380.209 383.229 378.243C381.773 376.368 380.201 374.585 378.522 372.906C379.142 373.244 379.709 373.672 380.205 374.175C382.736 376.467 384.764 379.259 386.163 382.374C386.481 383.001 386.705 383.671 386.829 384.363Z" fill="#263238"/>
<path d="M440.1 386.91C440.005 386.766 439.921 386.616 439.848 386.46C439.686 386.109 439.479 385.668 439.218 385.137C438.957 384.606 438.624 383.85 438.318 383.013C438.012 382.176 437.553 381.213 437.166 380.169C436.347 378.045 435.483 375.471 434.646 372.573C433.809 369.675 433.062 366.453 432.45 363.024C431.838 359.595 431.487 356.301 431.271 353.295C431.055 350.289 431.01 347.571 431.073 345.294C431.073 344.16 431.145 343.134 431.181 342.225C431.217 341.316 431.28 340.551 431.343 339.912C431.406 339.273 431.451 338.841 431.487 338.454C431.496 338.283 431.527 338.114 431.577 337.95C431.593 338.121 431.593 338.292 431.577 338.463C431.577 338.85 431.577 339.363 431.514 339.921C431.451 340.479 431.442 341.334 431.433 342.234C431.424 343.134 431.37 344.169 431.433 345.303C431.433 347.571 431.523 350.271 431.739 353.268C431.955 356.265 432.36 359.568 432.945 362.943C433.53 366.318 434.313 369.567 435.096 372.456C435.879 375.345 436.734 377.919 437.517 380.052C437.877 381.123 438.273 382.077 438.597 382.914C438.921 383.751 439.209 384.48 439.497 385.065L440.046 386.424C440.084 386.583 440.102 386.746 440.1 386.91Z" fill="#B29758"/>
<path d="M434.781 372.411C435.897 365.643 438.138 350.262 444.888 341.118C441.435 343.245 438.633 346.281 436.788 349.893C434.959 353.484 433.497 357.25 432.423 361.134C432.423 361.134 434.7 372.735 434.781 372.411Z" fill="#B29758"/>
<path d="M435.861 375.858C435.484 373.049 436.057 370.194 437.489 367.748C438.921 365.302 441.129 363.405 443.763 362.358C441.324 365.364 438.759 368.658 438.588 372.537C438.435 375.867 438.291 379.188 438.138 382.518C437.337 380.367 436.662 378.018 435.861 375.876" fill="#B29758"/>
<path d="M434.241 370.053C432.605 367.767 430.8 365.607 428.841 363.591C427.088 361.565 424.871 359.994 422.379 359.01C427.867 364.438 432.534 370.638 436.23 377.415" fill="#B29758"/>
<path d="M431.1 348.696C429.958 344.466 427.421 340.747 423.9 338.139C424.192 338.923 424.554 339.679 424.98 340.398C427.212 344.457 429.138 348.498 431.379 352.575" fill="#B29758"/>
<path d="M431.397 340.389C432.096 337.145 433.416 334.068 435.285 331.326C437.172 328.573 439.905 326.51 443.07 325.449C437.482 330.506 433.377 336.99 431.199 344.205" fill="#B29758"/>
<path d="M431.91 339.3C431.847 335.781 430.677 332.1 427.968 329.859C427.457 329.37 426.805 329.055 426.105 328.959C425.755 328.92 425.402 329.003 425.106 329.193C424.809 329.383 424.587 329.669 424.476 330.003C424.433 330.272 424.458 330.547 424.549 330.803C424.64 331.06 424.795 331.289 424.998 331.47C425.409 331.821 425.859 332.123 426.339 332.37C427.731 333.249 428.901 334.437 429.76 335.842C430.618 337.247 431.141 338.83 431.289 340.47" fill="#B29758"/>
<path d="M40.833 386.64C40.7554 386.53 40.689 386.412 40.635 386.289C40.509 386.01 40.347 385.668 40.14 385.245C39.933 384.822 39.672 384.237 39.402 383.58C39.132 382.923 38.808 382.185 38.502 381.339C37.854 379.674 37.179 377.649 36.513 375.372C35.847 373.095 35.271 370.557 34.794 367.866C34.317 365.175 34.038 362.583 33.894 360.225C33.75 357.867 33.687 355.725 33.732 353.925C33.732 353.025 33.795 352.224 33.822 351.513C33.849 350.802 33.903 350.19 33.948 349.713C33.993 349.236 34.038 348.867 34.065 348.57C34.0716 348.433 34.0928 348.297 34.128 348.165C34.1488 348.299 34.1488 348.436 34.128 348.57C34.128 348.876 34.128 349.254 34.128 349.722C34.128 350.19 34.074 350.829 34.065 351.522C34.056 352.215 34.011 353.034 34.065 353.925C34.065 355.725 34.128 357.84 34.299 360.225C34.47 362.61 34.794 365.148 35.253 367.83C35.712 370.512 36.324 373.032 36.945 375.309C37.566 377.586 38.232 379.602 38.844 381.276C39.132 382.122 39.438 382.869 39.69 383.526C39.942 384.183 40.176 384.759 40.374 385.218C40.572 385.677 40.689 386.001 40.806 386.28C40.923 386.559 40.851 386.631 40.833 386.64Z" fill="#B29758"/>
<path d="M36.648 375.246C37.548 369.927 39.294 357.831 44.595 350.649C41.9085 352.333 39.7308 354.716 38.295 357.543C36.8634 360.369 35.7149 363.329 34.866 366.381C34.866 366.381 36.612 375.498 36.648 375.246Z" fill="#B29758"/>
<path d="M37.503 378C37.2058 375.79 37.6555 373.543 38.7805 371.618C39.9056 369.692 41.6416 368.197 43.713 367.371C41.796 369.738 39.78 372.33 39.645 375.372L39.294 383.22C38.664 381.528 38.133 379.692 37.494 378" fill="#B29758"/>
<path d="M36.225 373.392C34.9303 371.594 33.5044 369.895 31.959 368.307C30.5759 366.722 28.8362 365.488 26.883 364.707C31.2049 368.976 34.8825 373.851 37.8 379.179" fill="#B29758"/>
<path d="M33.777 356.607C32.8677 353.273 30.8565 350.345 28.071 348.3C28.3013 348.924 28.5875 349.527 28.926 350.1C30.726 353.295 32.193 356.481 33.948 359.667" fill="#B29758"/>
<path d="M33.993 350.1C34.543 347.549 35.5822 345.128 37.053 342.972C38.541 340.797 40.6999 339.17 43.2 338.337C38.7935 342.305 35.5566 347.403 33.84 353.079" fill="#B29758"/>
<path d="M34.398 349.2C34.398 346.437 33.426 343.548 31.302 341.775C30.8967 341.396 30.3845 341.151 29.835 341.073C29.5594 341.044 29.2821 341.109 29.0483 341.257C28.8145 341.406 28.6381 341.63 28.548 341.892C28.5191 342.105 28.5416 342.321 28.6137 342.523C28.6857 342.725 28.8051 342.907 28.962 343.053C29.2864 343.332 29.6393 343.577 30.015 343.782C31.1039 344.468 32.0214 345.393 32.6969 346.489C33.3724 347.584 33.7881 348.819 33.912 350.1" fill="#B29758"/>
<path d="M649.629 386.334C649.629 386.46 513.405 386.568 345.429 386.568C177.453 386.568 41.166 386.46 41.166 386.334C41.166 386.208 177.3 386.1 345.402 386.1C513.504 386.1 649.629 386.199 649.629 386.334Z" fill="#263238"/>
<g clip-path="url(#clip0_3354_735)">
<path d="M317.435 379.181C317.435 379.181 320.106 380.315 323.231 386.109C318.205 386.291 314.538 385.928 314.538 385.928C314.538 385.928 314.312 381.355 317.435 379.181Z" fill="#36444A"/>
<path d="M305.255 330.551C305.255 330.551 306.432 337.298 301.089 347.168C295.746 357.038 302.177 363.243 304.666 366.865C307.156 370.487 316.712 376.6 319.066 379.497C317.164 379.86 315.171 382.667 314.763 386.2C312.998 386.109 311.594 386.018 311.594 386.018L312.591 384.842L311.005 385.702C311.005 385.702 313.133 383.845 311.685 384.433L310.241 385.022L310.467 384.026C310.467 384.026 307.705 383.031 306.799 379.091C305.894 375.152 298.107 364.285 293.125 360.255C291.451 358.353 291.088 358.353 291.586 356.633C292.084 354.913 292.72 348.664 290.635 341.826C288.55 334.988 285.021 334.083 285.655 330.869C286.29 327.655 305.255 330.551 305.255 330.551Z" fill="#745E32"/>
<path d="M305.255 330.551C305.255 330.551 305.771 333.503 304.573 338.355C301.137 338.363 292.576 339.381 292.92 349.361C293.354 361.84 299.05 363.187 301.119 367.681C303.097 371.973 310.537 380.297 317.319 377.787C318.058 378.432 318.66 379.015 319.062 379.503C317.16 379.866 315.167 382.673 314.759 386.206C312.994 386.115 311.59 386.025 311.59 386.025L312.587 384.848L311 385.708C311 385.708 313.129 383.852 311.681 384.439L310.237 385.028L310.463 384.032C310.463 384.032 307.7 383.037 306.795 379.098C305.89 375.158 298.103 364.291 293.121 360.261C291.447 358.359 291.084 358.359 291.582 356.639C292.08 354.919 292.716 348.67 290.631 341.832C288.546 334.994 285.017 334.09 285.651 330.875C286.285 327.661 305.255 330.551 305.255 330.551Z" fill="#A2884F"/>
<path opacity="0.3" d="M304.465 335.494C304.465 335.494 302.881 343.544 299.515 348.694C296.149 353.844 300.11 359.25 298.263 359.116C296.416 358.982 293.71 356.411 293.313 348.163C292.916 339.915 289.898 335.185 287.516 331.972C285.134 328.76 304.132 327.049 304.465 335.494Z" fill="#4C3218"/>
<path d="M264.568 386.23C264.568 386.23 268.345 389.353 269.406 392.946C263.772 393.763 257.172 393.036 256.945 392.082C258.791 388.822 264.568 386.23 264.568 386.23Z" fill="#36444A"/>
<path d="M278.798 302.881C278.798 302.881 270.722 304.873 266.835 311.491C262.948 318.108 267.176 325 267.176 325C267.176 325 266.815 322.808 267.087 321.906C267.269 324.351 268.174 325.71 268.807 326.615V324.623C268.807 324.623 270.12 328.335 272.113 329.422C272.654 321.722 278.798 302.881 278.798 302.881Z" fill="#36444A"/>
<path d="M271.692 307.436C271.626 307.861 270.934 308.346 270.642 308.673C270.401 308.949 270.171 309.22 269.944 309.498C269.407 310.153 268.901 311.056 268.473 311.796C268.06 312.518 267.803 313.493 267.627 314.307C267.351 315.577 267.048 317.043 267.137 318.356C267.792 317.627 267.498 316.293 267.821 315.418C267.832 316.064 267.932 316.706 268.116 317.326C268.465 316.954 268.273 316.323 268.584 315.922C268.687 317.092 268.062 318.121 268.051 319.27C268.044 319.992 267.973 320.786 268.101 321.498C268.298 320.776 268.301 319.951 268.488 319.252C268.482 319.664 268.385 320.269 268.537 320.638C268.737 320.487 268.869 319.968 268.867 319.681V321.847C268.867 322.548 268.701 323.513 268.917 324.166C269.424 324.157 269.648 322.631 269.681 322.206C269.681 322.484 269.67 322.962 269.755 323.292C269.969 323.086 270.101 322.784 270.229 322.52C270.217 323.475 270.632 324.955 271.26 325.672C271.767 324.315 271.532 322.696 271.532 321.273C271.532 320.212 271.653 319.279 271.81 318.23C272.289 315.016 272.076 311.603 272.076 308.357" fill="#2D373A"/>
<path d="M352.031 333.984C352.031 333.984 351.708 348.628 352.895 350.74C354.082 352.852 356.128 355.094 354.809 360.434C356.986 367.756 359.098 372.179 359.626 373.762C364.178 378.712 367.477 383.725 367.279 383.923C365.498 383.131 362.99 384.78 361.209 389.069C358.174 389.927 355.666 389.135 355.666 389.135C355.666 389.135 356.458 387.882 356.458 387.42L355.864 388.343L355.534 386.298L355.138 387.882L354.874 384.912C354.874 384.912 353.488 381.349 353.488 378.248C353.488 375.147 350.849 364.393 349.398 360.304C347.947 356.215 347.485 354.563 347.55 352.122C343.921 344.8 340.228 339.916 340.358 335.033C346.626 332.987 352.031 333.984 352.031 333.984Z" fill="#A2884F"/>
<path opacity="0.3" d="M354.847 356.435C354.847 356.435 354.213 359.202 354.372 360.682C354.531 362.163 357.864 373.118 358.291 373.86C358.718 374.601 364.641 380.528 364.43 381.427C364.218 382.326 360.09 384.496 359.825 385.661C359.56 386.827 359.031 383.813 358.027 379.181C357.022 374.549 354.587 368.939 354.349 366.084C354.111 363.23 352.418 358.117 352.311 356.438C352.205 354.759 354.847 356.435 354.847 356.435Z" fill="#563D1E"/>
<path d="M338.543 367.171C338.543 367.171 333.812 370.841 329.484 371.754C329.081 368.042 329.294 364.667 331.03 363.607C337.036 363.798 338.543 367.171 338.543 367.171Z" fill="#36444A"/>
<path d="M337.174 366.213L337.756 366.584C337.756 366.584 333.044 370.441 329.473 371.648C329.473 371.619 329.473 371.59 329.465 371.562C329.416 371.004 329.393 370.745 329.383 370.627C329.383 370.593 329.376 370.558 329.374 370.524C329.398 370.515 335.351 368.512 337.174 366.213Z" fill="white"/>
<path d="M381.321 292.565C381.321 292.565 365.533 289.629 353.646 290.303C340.413 285.536 336.038 287.948 328.69 293.668C321.341 299.387 312.148 299.723 301.272 299.106C290.395 298.49 271.384 303.031 270.712 309.873C270.039 316.714 271.72 330.228 285.738 331.798C299.756 333.369 304.685 330.07 320.104 334.219C335.524 338.367 341.811 340.152 353.98 336.227C359.304 334.603 362.561 325.742 365.925 323.218C369.289 320.695 374.67 319.966 374.67 319.966L377.585 308.416L381.321 292.565Z" fill="#977E49"/>
<path opacity="0.4" d="M270.714 309.873C271.386 303.031 290.395 298.49 301.274 299.106C301.919 299.144 302.559 299.178 303.193 299.21C306.102 307.378 316.588 326.312 350.386 320.839C360.699 319.168 365.902 319.927 367.871 322.037C367.188 322.372 366.537 322.767 365.925 323.218C362.561 325.742 359.304 334.603 353.982 336.227C341.813 340.152 335.523 338.368 320.106 334.218C304.69 330.069 299.759 333.368 285.74 331.798C271.721 330.229 270.04 316.714 270.714 309.873Z" fill="#B29758"/>
<path opacity="0.6" d="M375.598 291.659L376.1 293.14C373.667 294.873 370.452 295.141 368.501 297.597C367.532 298.842 366.784 300.245 366.292 301.744C366.086 300.731 366.842 299.675 366.92 298.679C366.579 299.58 366.065 300.729 365.373 301.414C365.313 299.913 366.872 298.527 366.605 297.083C365.834 297.615 365.115 298.828 364.496 299.567C363.912 300.24 363.412 300.981 363.007 301.773C362.67 302.446 362.503 303.169 362.259 303.881C361.93 304.839 361.985 306.689 361.39 307.417C361.39 305.691 361.911 304.046 362.358 302.404C362.223 303.12 361.481 303.997 361.079 304.629C361.099 303.737 361.329 302.36 361.018 301.546C360.336 301.809 359.82 303.547 359.341 304.152C359.309 303.534 359.291 302.866 359.445 302.263C359.542 301.893 359.784 301.636 359.754 301.238C359.697 301.6 359.495 301.78 359.341 302.11C359.044 302.759 358.886 303.436 358.57 304.082C358.288 304.663 358.067 305.262 357.799 305.835C357.696 304.408 357.821 302.954 357.857 301.524C357.805 302.113 357.615 302.682 357.303 303.185C357.144 300.721 357.397 298.3 356.993 295.863C356.876 295.149 356.711 294.444 356.536 293.73C356.41 293.215 356.33 292.602 356.211 292.043C356.336 292.34 356.496 292.634 356.605 292.9C356.778 292.185 356.698 291.197 356.685 290.203C363.363 290.144 370.687 290.968 375.598 291.659Z" fill="#51361C"/>
<path opacity="0.4" d="M362.343 313.811L362.274 315.243C363.572 313.811 366.982 312.855 366.982 312.855L366.231 314.014C373.102 313.499 376.328 308.626 376.328 308.626L377.449 308.966L374.67 319.966C374.67 319.966 369.287 320.694 365.922 323.218C364.626 324.191 363.344 326.106 361.956 328.184L360.293 327.66C360.293 327.66 357.09 319.341 358.181 316.948C359.272 314.556 362.343 313.811 362.343 313.811Z" fill="#28190B"/>
<path d="M376.698 291.806C376.447 292.233 375.977 292.614 375.605 292.969C374.768 293.766 374.305 294.723 373.556 295.574C372.745 296.502 372.031 296.736 371.391 297.834C370.437 299.475 369.568 301.43 369.109 303.23C369.598 303.182 369.796 302.527 370.129 302.178C370.039 303.347 369.035 304.302 368.878 305.47C368.768 306.295 368.622 307.12 368.518 307.945C368.578 307.572 368.727 307.218 368.953 306.914C368.988 307.478 368.988 308.043 368.953 308.606C369.25 307.948 369.6 307.329 369.874 306.663C369.786 309.668 369.123 312.657 368.694 315.613C368.777 314.847 369.322 313.867 369.875 313.325C369.835 314.242 369.897 315.174 369.718 316.068C370.12 315.724 370.261 315.049 370.589 314.601C370.528 317.564 370.981 320.358 370.938 323.344C371.056 322.875 371.13 322.408 371.309 321.953C371.271 323.522 371.77 324.604 372.075 326.01C372.318 327.127 371.828 328.731 372.335 329.748C373.03 328.427 373.094 326.712 373.811 325.338C374.903 323.245 376.052 321.3 376.712 319.006C377.523 316.19 377.227 313.263 377.751 310.384C378.516 306.224 378.589 302.304 378.589 298.097" fill="#36444A"/>
<path opacity="0.4" d="M377.283 293.336C375.862 294.429 375.378 296.41 374.162 297.682C373.482 298.393 373.058 298.876 372.664 299.805C372.376 300.483 372.085 301.33 372.045 302.036C372.236 301.797 372.268 301.342 372.298 301.042C372.319 301.686 372.257 302.883 371.807 303.385C371.73 302.709 372.342 302.137 372.479 301.537C372.505 302.496 372.124 303.462 371.87 304.375C371.604 305.331 371.403 306.303 371.267 307.285C371.157 308.076 371.068 309.038 371.185 309.822C371.511 309.318 371.651 308.585 371.88 308.021C372.061 307.603 372.199 307.168 372.293 306.722C372.284 307.54 371.912 308.356 371.758 309.14C371.777 308.69 372.121 308.101 372.377 307.716C372.48 309.787 371.975 311.779 371.979 313.846C371.931 313.264 372.063 311.95 372.43 311.511C372.927 313.001 372.597 314.798 372.885 316.348C372.936 316.624 372.946 317.925 373.315 318.016C373.72 318.12 374.39 316.644 374.552 316.247C375.068 314.972 375.154 313.65 375.216 312.295C375.262 311.313 375.679 310.379 375.807 309.398C376.04 307.651 376.839 305.977 376.923 304.21" fill="#1E160D"/>
<path d="M391.191 322.022C391.191 322.022 387.218 319.192 385.411 322.703C383.603 326.213 383.359 326.736 381.238 329.831C380.96 328.474 381.135 328.057 381.135 328.057C381.135 328.057 379.431 332.438 376.893 334.593C376.867 334.001 376.878 333.409 376.927 332.819C376.927 332.819 375.086 335.392 374.216 336.435C372.964 331.986 372.895 328.161 373.313 326.041C371.957 328.753 372.304 329.934 372.304 329.934C372.304 329.934 371.539 328.683 373.624 322.39C373.624 322.39 372.687 323.469 372.373 324.163C372.786 320.896 375.19 312.864 375.57 310.222C374.458 312.904 374.146 314.151 374.146 314.151C374.146 314.151 374.979 304.736 376.075 302.403C377.17 300.071 390.381 317.975 390.381 317.975L391.191 322.022Z" fill="#36444A"/>
<path opacity="0.4" d="M390.899 319.848C390.6 319.126 388.499 319.126 387.738 319.237C386.754 319.385 385.925 319.831 385.318 320.578C385.318 320.495 385.328 319.901 385.339 319.64C384.835 320.102 384.432 320.859 383.999 321.367C384.006 320.851 384.096 320.324 384.066 319.794C382.881 320.777 382.059 322.221 381.507 323.624C381.171 324.478 380.899 325.517 380.127 326.081C380.06 325.256 380.582 324.519 380.553 323.72C380.106 324.442 379.807 325.239 379.368 325.973C379.235 325.329 379.521 324.38 379.039 323.898C378.338 325.651 377.898 327.398 377.011 329.038C376.512 329.96 375.788 330.822 375.374 331.783C375.135 330.378 376.438 328.92 376.343 327.497C376.386 328.081 376.125 328.764 375.636 329.066C375.486 326.509 376.76 323.86 377.517 321.454C377.547 322.382 376.501 323.468 376 324.247C375.922 323.334 376.546 322.467 376.516 321.587C376.235 322.03 375.897 322.436 375.619 322.885C375.558 321.7 375.958 320.145 376.454 319.079C376.145 319.587 375.853 320.131 375.373 320.473C375.18 318.383 376.321 316.142 377.064 314.319C376.563 314.689 376.404 315.384 375.983 315.846C375.682 315.193 376.526 314.023 376.602 313.255C376.594 313.589 376.441 313.865 376.256 314.16C376.212 312.703 376.508 311.239 376.437 309.752C376.369 308.395 376.719 307.219 377.064 305.936C377.644 306.387 377.92 307.614 378.33 308.297C378.691 308.899 379.064 309.549 379.51 310.093C380.019 310.718 380.677 311.146 381.176 311.771C381.995 312.802 382.561 313.401 383.706 314.086C385.445 315.129 387.378 315.633 388.641 317.237C389.191 317.934 390.142 318.791 390.188 319.757" fill="#1E160D"/>
<path opacity="0.4" d="M387.208 316.041C387.067 316.654 385.269 316.691 384.79 316.744C384.247 316.805 383.624 316.668 383.09 316.783C382.693 316.868 382.336 317.251 381.983 317.454C381.626 317.648 381.321 317.923 381.092 318.258C380.988 317.709 381.535 317.049 381.675 316.527C381.263 316.968 381.057 317.612 380.589 318.039C380.566 317.669 380.658 317.299 380.641 316.925C380.454 316.877 380.419 317.017 380.317 317.138C379.992 317.508 379.686 317.895 379.4 318.297C378.974 318.937 378.581 319.599 378.224 320.28C377.972 319.455 378.398 318.522 378.636 317.745C378.818 317.188 378.919 316.607 378.936 316.021C378.613 316.537 378.384 317.105 378.026 317.597C377.991 316.841 378.173 316.116 378.204 315.374C378.101 315.767 377.816 316.08 377.615 316.422C377.576 315.429 377.846 314.463 377.846 313.464C377.846 313.115 377.838 312.772 377.817 312.424C377.798 312.115 377.896 311.59 377.707 311.324C377.422 311.653 377.433 312.208 377.083 312.541C377.052 311.806 377.061 311.071 377.111 310.338C377.146 309.822 377.139 309.246 377.249 308.741C377.841 308.802 378.45 310.057 378.781 310.488C379.524 311.459 380.584 311.884 381.668 312.345C382.653 312.757 383.574 313.13 384.446 313.771C385.046 314.211 385.567 314.751 386.171 315.19" fill="#1E160D"/>
<path d="M387.936 296.909C396.041 300.123 402.514 299.128 410.094 296.719C417.673 294.31 422.257 286.407 422.167 285.453C422.078 284.499 418.725 289.935 412.886 293.558C405.098 298.63 394.821 294.238 390.836 292.155C408.221 291.204 415.103 280.427 415.198 279.205C415.293 277.983 409.493 284.593 404.074 286.921C398.655 289.25 395.954 289.483 388.664 289.619C384.453 284.547 390.612 270.783 392.649 268.247C394.686 265.711 392.511 266.98 390.242 266.299C387.973 265.619 386.619 260.278 386.575 257.651C386.53 255.024 385.17 258.965 380.734 258.558C376.297 258.15 375.617 254.526 375.255 252.897C374.893 251.268 375.344 249.411 374.257 250.497C369.411 254.98 366.063 251.946 365.338 251.358C364.613 250.771 361.988 244.655 364.204 256.792C366.42 268.929 375.502 277.327 379.337 281.096C382.774 284.472 384.644 290.008 384.996 291.123L385.058 291.323L387.936 296.909Z" fill="#425964"/>
<path d="M364.393 257.697C364.702 256.098 365.575 254.544 367.892 255.111C372.171 256.157 374.416 265.06 380.873 267.28C387.33 269.5 380.667 289.986 391.61 296.161C393.619 297.296 394.403 298.104 394.349 298.674C392.151 298.337 389.999 297.747 387.936 296.914L385.058 291.328L384.996 291.129C384.644 290.013 382.774 284.477 379.337 281.101C375.598 277.422 366.884 269.344 364.393 257.697Z" fill="#364348"/>
<path d="M382.126 298.165C382.126 298.165 381.218 291.631 391.23 285.274C391.285 291.965 388.674 294.623 385.526 295.174C383.528 296.827 382.126 298.165 382.126 298.165Z" fill="#8E6A43"/>
<path d="M391.23 285.271C391.23 285.29 391.23 285.305 391.23 285.324C390.315 286.333 387.414 291.536 386.711 294.848C386.327 294.993 385.93 295.102 385.526 295.172C383.528 296.827 382.123 298.163 382.123 298.163C382.123 298.163 381.218 291.631 391.23 285.271Z" fill="#6B5630"/>
<path d="M388.999 296.954C388.999 296.954 394.774 302.729 399.867 308.703C404.959 314.677 404.01 315.36 403.058 317.669C402.106 319.978 403.265 323.65 402.584 324.393C401.903 325.135 394.094 326.023 391.92 323.171C389.746 320.318 391.371 318.779 387.166 316.922C381.936 314.613 376.028 310.47 376.028 305.512C376.028 300.553 376.234 291.452 380.647 291.724C385.06 291.995 388.999 296.954 388.999 296.954Z" fill="#745E32"/>
<path d="M376.027 305.512C376.027 300.553 376.233 291.452 380.646 291.724C385.059 291.995 388.999 296.954 388.999 296.954L389.102 297.057L389.071 297.337C389.071 297.337 376.273 296.118 382.25 308.629C385.58 315.6 390.993 315.688 391.801 320.15C392.353 323.2 393.912 324.292 396.161 325.022C394.401 324.805 392.752 324.263 391.923 323.174C389.75 320.321 391.374 318.782 387.169 316.925C381.936 314.613 376.027 310.472 376.027 305.512Z" fill="#604E2B"/>
<path d="M376.929 295.632C376.929 295.632 375.416 289.211 384.789 281.943C385.468 288.6 383.118 291.49 380.035 292.335C378.201 294.169 376.929 295.632 376.929 295.632Z" fill="#8E6A43"/>
<path d="M384.789 281.943C384.789 281.962 384.789 281.979 384.789 281.998C383.974 283.088 379.543 289.237 381.179 291.898C380.811 292.079 380.428 292.226 380.032 292.335C378.199 294.169 376.927 295.635 376.927 295.635C376.927 295.635 375.416 289.211 384.789 281.943Z" fill="#6B5630"/>
<path d="M390.242 298.22C392.216 300.244 396.214 304.421 399.863 308.703C404.958 314.684 404.007 315.36 403.055 317.669C402.241 319.649 402.971 322.625 402.766 323.904C400.8 326.039 396.357 322.803 394.446 322.107C392.535 321.412 393.82 317.553 395.385 313.032C396.949 308.511 390.242 298.221 390.242 298.221V298.22Z" fill="#604922"/>
<path d="M399.906 319.154C400.112 318.928 400.271 318.664 400.375 318.376C400.489 318.079 400.555 317.766 400.572 317.448C400.599 317.068 400.54 316.686 400.401 316.33C400.332 316.143 400.237 315.966 400.118 315.805C400.011 315.645 399.881 315.502 399.733 315.38C399.605 315.242 399.432 315.173 399.294 315.088C399.161 315.011 399.018 314.955 398.868 314.921C398.655 314.852 398.432 314.821 398.208 314.829C398.125 314.828 398.042 314.831 397.96 314.839C397.96 314.839 398.03 314.905 398.15 315.004C398.209 315.053 398.281 315.107 398.363 315.17C398.451 315.239 398.536 315.313 398.616 315.391C398.712 315.471 398.803 315.557 398.887 315.65C398.979 315.744 399.064 315.845 399.141 315.953C399.307 316.169 399.44 316.409 399.535 316.665C399.586 316.796 399.631 316.93 399.669 317.066C399.69 317.208 399.739 317.343 399.752 317.485C399.766 317.628 399.801 317.765 399.813 317.898C399.825 318.031 399.839 318.167 399.851 318.287C399.884 318.81 399.906 319.154 399.906 319.154Z" fill="black"/>
<path d="M382.48 296.716C376.57 293.239 367.809 286.869 363.292 281.266C358.775 275.663 356.908 273.047 354.905 266.865C352.902 260.684 351.508 252.297 353.207 252.195C354.905 252.093 353.852 256.712 355.55 257.12C357.247 257.528 359.489 248.457 360.339 252.433C361.188 256.408 360.678 260.176 365.025 260.039C369.371 259.903 369.779 255.387 371.069 255.728C372.359 256.068 370.05 262.725 372.665 265.819C375.28 268.912 378.543 265.342 379.219 265.955C379.894 266.567 377.661 267.952 377.351 275.015C377.042 282.078 378.472 291.147 383.09 294.204C387.708 297.26 397.012 292.879 402.04 288.701C407.069 284.523 410.6 279.803 411.311 280.245C412.023 280.686 405.979 287.48 402.411 290.604C398.843 293.727 395.449 295.595 394.193 296.172C392.937 296.75 393.92 297.53 397.418 296.919C400.916 296.309 407.979 294.169 415.217 287.004C416.711 285.509 417.323 285.883 415.963 287.853C414.604 289.824 408.933 296.103 399.663 298.447C406.217 297.939 414.74 296.512 419.7 291.521C420.445 290.875 421.024 290.909 419.803 292.438C418.582 293.968 414.44 297.735 408.02 299.127C413.485 298.244 419.769 295.867 425.441 292.166C431.113 288.465 423.573 295.391 419.124 297.498C414.675 299.604 403.965 303.211 390.897 299.266C390.895 299.266 384.378 297.834 382.48 296.716Z" fill="#455A64"/>
<path d="M291.492 299.637C291.492 299.637 305.993 297.982 301.217 306.989C292.334 323.739 294.126 312.352 285.32 330.458C282.864 335.511 280.408 339.945 272.085 345.534C263.762 351.124 258.369 363.066 260.078 371.595C261.787 380.125 265.195 385.785 265.673 387.218C263.353 386.331 263.011 386.805 260.965 388.65C258.919 390.495 257.691 391.788 256.463 392.335C256.707 391.777 256.779 391.16 256.669 390.561L255.918 391.652V390.014L255.44 390.697C255.374 390.313 255.328 389.926 255.304 389.537C255.304 389.197 253.053 385.103 252.302 384.08C251.55 383.057 253.939 376.711 254.894 372.618C255.849 368.525 254.554 353.926 255.373 350.719C256.191 347.511 260.013 347.308 266.288 341.782C272.564 336.255 270.781 332.779 270.995 325.545C271.21 318.31 265.873 301.905 291.492 299.637Z" fill="#856E40"/>
<path d="M255.372 350.719C256.189 347.512 260.012 347.308 266.287 341.782C272.563 336.255 270.78 332.779 270.994 325.545C271.122 321.244 269.288 313.702 273.16 307.816C271.462 317.243 273.086 320.972 273.34 324.59C273.662 329.162 269.721 349.157 280.383 338.408C278.469 340.652 275.89 342.969 272.082 345.524C263.76 351.118 258.366 363.055 260.075 371.585C261.784 380.114 265.192 385.775 265.67 387.207C263.35 386.32 263.008 386.795 260.962 388.64C258.916 390.485 257.688 391.778 256.46 392.324C256.704 391.767 256.776 391.149 256.666 390.551L255.915 391.642V390.004L255.437 390.687C255.37 390.303 255.325 389.915 255.3 389.527C255.3 389.186 253.05 385.092 252.298 384.069C251.547 383.046 253.936 376.701 254.891 372.608C255.846 368.515 254.553 353.926 255.372 350.719Z" fill="#745E32"/>
<path d="M359.427 348.822C359.427 348.822 363.254 347.767 362.33 351.99C361.406 356.213 354.61 356.806 352.235 358.39C349.86 359.974 348.078 364.856 338.181 367.89C336.4 365.518 332.509 362.877 329.472 364.526C330.923 362.349 331.517 362.217 331.517 362.217L329.802 362.679C329.802 362.679 331.188 361.491 332.771 360.897C331.584 360.699 331.055 360.831 331.055 360.831C331.055 360.831 336.4 356.343 343.327 357.531C350.254 358.719 354.877 351.924 354.61 348.889L359.427 348.822Z" fill="#68512A"/>
<path opacity="0.4" d="M331.517 362.217L329.802 362.679C329.802 362.679 331.188 361.491 332.771 360.897C331.584 360.699 331.055 360.831 331.055 360.831C331.055 360.831 336.4 356.343 343.327 357.531C350.254 358.719 354.877 351.924 354.61 348.889L359.426 348.822C359.426 348.822 363.253 347.767 362.329 351.99C362.317 352.047 362.299 352.101 362.285 352.158L360.922 354.345C360.91 354.333 357.245 350.765 352.408 355.254C347.572 359.743 343.635 359.618 341.89 359.967C340.549 360.235 339.292 364.223 340.488 367.092C339.766 367.368 339.007 367.635 338.182 367.887C336.401 365.515 332.51 362.874 329.473 364.523C330.923 362.349 331.517 362.217 331.517 362.217Z" fill="#A2884F"/>
<path d="M344.054 321.705C344.054 321.705 336.597 328.698 340.358 335.032C344.119 341.366 354.676 349.676 354.61 351.462C356.726 353.044 361.47 349.218 361.47 349.218C361.47 349.218 350.32 342.092 353.426 335.692C354.677 325.861 344.054 321.705 344.054 321.705Z" fill="#A2884F"/>
<path d="M365.698 382.406C365.698 382.406 369.26 385.045 371.042 389.532C365.301 389.665 361.076 389.107 361.076 389.107C361.076 389.107 360.748 385.507 365.698 382.406Z" fill="#36444A"/>
<path d="M353.884 292.322C353.884 292.322 350.371 287.98 344.537 286.864C338.703 285.749 330.909 288.558 332.538 299.541C333.654 304.774 334.941 309.492 334.854 312.066C335.886 311.124 336.056 310.093 336.056 310.093C336.056 310.093 336.657 313.439 336.743 314.898C337.857 313.525 337.944 312.667 337.944 312.667C337.944 312.667 340.689 321.16 345.323 324.849C349.956 328.537 353.048 334.537 352.731 337.91C354.519 337.276 355.332 335.642 355.332 335.642C355.332 335.642 355.085 337.092 354.928 337.385C356.371 336.345 357.14 334.849 357.313 334.159L357.508 335.417C357.508 335.417 361.72 333.673 362.149 327.65C362.578 321.628 358.754 319.341 358.142 315.224C359.138 316.968 359.703 316.446 360.112 317.579C359.523 314.975 358.934 312.439 357.599 310.335C356.263 308.23 355.426 304.176 355.267 301.528C355.267 301.528 356.15 302.342 356.24 304.153C356.354 300.146 355.429 294.879 353.884 292.322Z" fill="#604E2B"/>
<path d="M387 308C386.702 308.323 386.315 308.815 385.886 308.926C385.457 309.037 385.005 309.023 384.584 308.886C382.433 308.226 383 305.5 383 305.5L387 308Z" fill="#F9FAE2"/>
<path d="M383.944 306.638C383.809 306.804 383.726 307.006 383.707 307.22C383.687 307.433 383.732 307.647 383.834 307.835C383.937 308.023 384.094 308.176 384.284 308.275C384.474 308.373 384.689 308.413 384.902 308.389C385.115 308.364 385.316 308.277 385.479 308.138C385.642 307.999 385.76 307.815 385.818 307.608C385.875 307.402 385.87 307.183 385.803 306.98C385.736 306.777 385.61 306.598 385.44 306.466C385.331 306.379 385.205 306.314 385.071 306.276C384.936 306.237 384.796 306.226 384.657 306.241C384.518 306.257 384.383 306.301 384.261 306.368C384.139 306.436 384.031 306.528 383.944 306.638Z" fill="#231F20"/>
<path d="M384.174 306.748C384.133 306.798 384.107 306.86 384.101 306.924C384.095 306.989 384.108 307.054 384.139 307.111C384.17 307.168 384.218 307.215 384.275 307.245C384.333 307.275 384.398 307.287 384.463 307.28C384.528 307.273 384.589 307.247 384.638 307.205C384.688 307.163 384.724 307.107 384.741 307.044C384.759 306.982 384.758 306.915 384.737 306.854C384.717 306.792 384.679 306.737 384.628 306.697C384.561 306.644 384.475 306.62 384.39 306.63C384.306 306.639 384.228 306.682 384.174 306.748Z" fill="#F9FAE2"/>
<path d="M384.194 307.47C384.174 307.494 384.162 307.524 384.159 307.556C384.156 307.587 384.163 307.619 384.178 307.646C384.193 307.674 384.216 307.696 384.244 307.711C384.273 307.725 384.304 307.731 384.336 307.727C384.367 307.724 384.396 307.711 384.42 307.69C384.444 307.67 384.462 307.643 384.47 307.612C384.479 307.582 384.478 307.55 384.468 307.52C384.458 307.49 384.439 307.463 384.414 307.444C384.398 307.431 384.38 307.422 384.36 307.416C384.34 307.41 384.319 307.409 384.299 307.411C384.278 307.414 384.258 307.42 384.24 307.43C384.222 307.44 384.206 307.454 384.194 307.47Z" fill="#F9FAE2"/>
<path d="M383.227 305C383.227 305 382.887 305.44 383.039 305.669C384.155 306.916 386.577 308.024 387 308C387.639 307.465 386.765 305.188 386.765 305.188C386.765 305.188 385.719 306.892 383.227 305Z" fill="#604325"/>
<path d="M371.036 259.219C371.036 259.219 369.931 268.339 376.302 267.234C373.502 268.005 370.133 267.582 371.036 259.219Z" fill="#3A4D54"/>
<path d="M360.404 254.12C360.404 254.12 360.023 261.248 365.824 260.172C364.221 260.889 359.708 261.86 360.404 254.12Z" fill="#3A4D54"/>
<path d="M353.212 252.327C353.212 252.327 353.992 251.905 354.33 255.111C353.908 253.973 353.58 252.265 353.212 252.327Z" fill="white"/>
<path d="M377.867 269.249C377.867 269.249 374.542 280.662 379.929 291.084C376.836 286.998 374.542 275.943 377.867 269.249Z" fill="#3A4D54"/>
<path d="M395.129 300.305C394.374 300.16 393.608 299.995 392.833 299.797C393.78 299.981 394.54 300.15 395.129 300.305Z" fill="#A39493"/>
<path d="M382.48 296.716C376.57 293.239 367.809 286.869 363.292 281.266C358.775 275.663 356.908 273.047 354.905 266.865C354.768 266.445 354.635 266.012 354.505 265.574C354.102 262.432 354.1 258.701 356.836 260.645C361.27 263.796 370.718 265.833 372.166 275.421C373.45 283.93 372.598 293.442 386.668 298.211C385.008 297.749 383.307 297.203 382.48 296.716Z" fill="#36444A"/>
<path d="M406.859 284.579C406.859 284.579 397.805 294.921 387.278 295.632C391.778 295.25 399.362 293.75 406.859 284.579Z" fill="#3A4D54"/>
<path d="M411.712 290.443C411.712 290.443 404.347 296.837 396.056 297.322C398.698 297.499 406.639 295.603 411.712 290.443Z" fill="#3A4D54"/>
<path d="M385.163 296.529C385.163 296.529 392.131 296.309 395.615 294.455C398.437 292.78 395.086 295.693 393.367 296.264C391.648 296.836 394.954 298.601 400.998 296.838C404.35 296.044 399.813 298.205 397.033 298.469C394.252 298.733 401.925 299.453 407.261 298.211C412.596 296.97 406.291 299.573 406.291 299.573C406.291 299.573 410.794 299.521 415.509 298.22C411.929 299.964 399.891 303.628 385.163 296.529Z" fill="#717B80"/>
<path d="M385.135 257.958C385.135 257.958 376.939 261.9 374.947 254.12C375.408 257.65 379.044 261.746 385.135 257.958Z" fill="#717B80"/>
<path d="M390.817 267.275C390.817 267.275 387.381 267.019 386.668 260.645C386.415 264.459 387.694 267.02 390.817 267.275Z" fill="#717B80"/>
<path d="M389.957 270.808C389.957 270.808 385.903 278.722 386.927 286.635C386.108 283.659 385.974 277.412 389.957 270.808Z" fill="#36444A"/>
<path opacity="0.6" d="M386.633 273.412C387.015 276.316 390.566 269.278 388.723 268.08C386.88 266.882 385.892 264.185 385.653 261.068C385.414 257.95 382.177 261.397 379.6 260.439C377.023 259.481 373.04 255.436 372.98 254.118C372.92 252.8 369.234 254.567 366.895 253.278C366.895 253.278 371.089 255.491 372.437 257.38C373.785 259.269 374.602 262.238 379.517 264.635C384.432 267.031 386.22 270.236 386.633 273.412Z" fill="#36444A"/>
<path d="M376.027 268.529C376.027 268.529 372.055 267.63 372.83 273.383C373.606 279.135 373.729 290.74 382.119 295.632C378.642 290.938 375.587 286.098 375.527 278.72C375.467 271.341 377.184 268.948 376.027 268.529Z" fill="#717B80"/>
<path d="M401.937 323.6C401.9 322.753 398.992 322.79 397.188 321.575C395.385 320.361 395.458 317.157 395.384 315.869C395.309 314.581 393.175 320.029 394.316 321.428C395.458 322.826 401.827 326.214 401.937 323.747" fill="#5E4325"/>
<path d="M402.204 312.418C402.204 312.418 404.287 314.752 402.73 316.791C402.908 315.722 403.104 314.372 402.204 312.418Z" fill="white"/>
<path opacity="0.4" d="M394.539 309.961C393.787 306.764 392.292 300.419 389.012 299.797C385.731 299.175 383.48 299.672 382.515 301.469C381.549 303.266 388.208 303.822 388.831 306.236C390.99 314.605 396.217 317.1 394.539 309.961Z" fill="#563D1E"/>
<path d="M394.038 319.311C394.038 319.311 393.356 321.766 395.932 322.455C394.449 322.107 393.371 321.903 394.038 319.311Z" fill="white"/>
<path d="M384.577 322.899C384.184 323.685 383.618 324.283 383.402 325.144C383.402 325.041 383.402 324.835 383.402 324.696C383.239 324.832 383.156 325.08 383.064 325.284C382.881 325.696 382.652 326.076 382.446 326.471C382.327 326.695 382.175 326.9 382.101 327.146C382.075 326.837 382.168 326.43 382.062 326.142C381.878 326.328 381.888 326.737 381.685 326.944C381.685 326.747 381.699 326.532 381.613 326.352C380.762 327.307 380.873 328.801 379.821 329.625C379.372 329.977 379.156 330.324 378.913 330.844C378.706 331.278 378.484 332.067 378.131 332.384C378.044 331.702 378.461 330.9 378.702 330.289C379.027 329.464 379.43 328.573 379.577 327.711C379.577 327.947 379.569 328.187 379.577 328.422C379.879 328.228 380.146 327.616 380.377 327.287C380.458 327.516 380.281 328.077 380.126 328.268C380.334 327.591 380.66 326.956 381.09 326.392C381.387 326.001 381.915 325.38 382.03 324.906C382.068 325.074 382.036 325.256 382.124 325.41C382.27 325.236 382.34 324.997 382.503 324.844C382.511 325.089 382.496 325.34 382.515 325.582C382.63 324.92 383.165 324.515 383.509 323.975C383.824 323.478 384.031 322.909 384.31 322.395C384.408 322.618 384.199 323.062 384.133 323.299C384.33 323.161 384.396 322.908 384.577 322.759" fill="#36444A"/>
<path d="M374.616 319.068C374.108 319.85 373.718 320.821 373.622 321.75C373.633 321.468 373.811 321.205 373.89 320.938C374.031 321.174 373.981 321.848 373.908 322.139C373.954 322.026 374.015 321.919 374.09 321.822C374.132 322.76 373.789 323.486 373.472 324.346C373.375 324.563 373.312 324.792 373.283 325.027C373.261 325.308 373.173 325.646 373.201 325.924C373.201 325.665 373.448 325.422 373.566 325.202C373.683 324.983 373.791 324.761 373.899 324.545C373.995 325.072 373.675 325.696 373.582 326.195C373.83 326.058 373.995 325.709 374.179 325.496C374.313 325.341 374.47 325.212 374.559 325.025C374.622 325.763 374.218 326.347 374.043 327.018C373.94 327.399 373.951 327.767 373.92 328.169C373.88 328.596 373.814 329.02 373.723 329.44C373.654 329.784 373.644 330.196 373.522 330.515C373.625 330.397 373.665 330.136 373.721 329.978C373.819 329.705 373.899 329.425 373.959 329.142C374.01 328.907 374.063 328.673 374.134 328.446C374.255 328.022 374.424 327.579 374.57 327.176C374.953 326.114 375.35 325.114 375.35 323.979C375.391 324.343 375.143 324.701 374.937 324.978C374.873 324.566 375.143 324.174 375.201 323.772C375.222 323.547 375.229 323.322 375.221 323.096C375.211 323.518 374.93 324.003 374.729 324.366C374.708 324.098 374.734 323.821 374.719 323.552C374.638 323.772 374.504 323.969 374.33 324.126C374.345 323.605 374.461 323.11 374.541 322.589C374.622 322.068 374.59 321.521 374.594 320.984C374.571 321.019 374.546 321.051 374.518 321.08C374.508 320.892 374.518 320.696 374.511 320.507C374.327 320.598 374.181 321.023 374.082 321.206C373.964 320.708 374.457 320.136 374.54 319.645" fill="#36444A"/>
<path d="M356.217 292.046C356.113 291.823 356.048 291.583 356.024 291.338C356.104 291.569 356.169 291.806 356.217 292.046Z" fill="#51361C"/>
<path opacity="0.6" d="M369.81 298.937C369.885 299.783 369.303 300.577 369.027 301.348C368.769 302.07 368.529 302.845 368.526 303.617C368.53 304.572 368.462 305.525 368.325 306.47C368.304 305.96 368.18 305.479 368.08 304.984C367.943 305.602 367.861 306.221 367.585 306.801C367.57 306.483 367.604 306.173 367.507 305.872C367.163 306.776 367.198 307.789 367.244 308.734C367.266 309.178 367.244 309.627 367.244 310.075C367.244 310.417 367.128 311.003 367.314 311.305C367.282 310.045 366.76 308.83 366.671 307.562C366.671 308.444 366.545 309.538 366.195 310.359C366.211 309.225 366.221 307.988 365.989 306.882C365.62 307.381 365.462 308.083 365.153 308.635C364.86 309.157 364.56 309.744 364.404 310.322C364.263 310.843 364.137 311.359 364.044 311.877C364.038 311.174 363.838 310.385 363.709 309.692C363.475 309.98 363.471 310.42 363.326 310.76C363.201 311.047 363.044 311.32 362.859 311.574C362.852 310.87 362.88 310.159 362.859 309.456C362.57 309.456 362.343 310.125 362.213 310.335C361.916 310.8 361.612 311.268 361.285 311.714C360.99 312.117 360.811 312.577 360.529 312.984C360.553 311.85 360.839 310.752 360.839 309.632C360.839 308.942 360.667 308.312 360.633 307.62C360.487 307.885 360.469 308.239 360.394 308.53C360.274 309.002 360.114 309.468 360 309.942C359.945 310.197 359.92 310.458 359.927 310.719C359.955 310.41 359.842 309.843 359.631 309.63C359.454 310.445 359.469 311.317 359.322 312.141C359.304 311.528 358.996 310.818 358.77 310.26C358.562 309.722 358.386 309.171 358.245 308.61C358.07 307.954 357.857 307.296 357.822 306.604C357.895 307.341 358.451 308.09 358.703 308.788C358.838 308.158 358.961 307.528 359.057 306.889C359.149 307.229 359.191 307.581 359.182 307.933C359.445 307.077 359.828 306.241 360.056 305.378C360.221 304.76 360.292 304.121 360.436 303.499C360.43 304.231 360.436 304.965 360.436 305.698C360.436 305.993 360.371 306.446 360.469 306.691C360.544 306.345 360.708 306.025 360.946 305.763C361.094 306.542 361.166 307.333 361.161 308.126C361.166 308.394 361.161 308.736 361.264 308.958C361.504 308.636 361.648 308.133 361.803 307.758C362.009 307.263 362.292 306.795 362.479 306.3C362.705 305.703 362.672 305.01 362.678 304.381C362.685 303.848 362.778 303.319 362.951 302.815C363.071 302.444 363.134 302.106 363.321 301.754C363.424 301.562 363.572 301.379 363.63 301.175C363.837 302.062 363.321 303.082 363.198 303.959C363.076 304.837 363.104 305.727 363.079 306.623C363.133 306.159 363.388 305.646 363.544 305.205C363.728 304.676 363.891 304.071 364.123 303.582C364.196 304.51 364.089 305.449 364.134 306.376C364.284 306.12 364.301 305.827 364.4 305.551C364.593 305.014 364.889 304.497 365.108 303.967C365.321 303.456 365.681 302.859 365.683 302.287C365.676 303.112 365.637 303.946 365.647 304.771C365.689 304.09 366.091 303.373 366.393 302.812C366.575 303.502 366.301 304.286 366.448 304.977C367.026 303.773 367.516 302.399 367.736 301.072C367.852 300.371 367.971 299.375 368.514 298.851C368.565 299.658 368.417 300.455 368.417 301.262C368.424 300.683 368.869 300.119 369.052 299.588C369.08 299.943 369.059 300.299 368.99 300.648C368.962 300.319 369.291 299.979 369.396 299.672C369.473 299.478 369.53 299.277 369.566 299.072" fill="#51361C"/>
<path opacity="0.8" d="M372.372 292.342C371.718 292.846 370.947 292.998 370.227 293.367C369.808 293.584 369.456 293.919 369.08 294.199C368.489 294.638 368.125 295.23 367.712 295.787C367.732 295.296 368.066 294.801 368.056 294.312C368.032 294.7 367.321 295.419 367.024 295.701C366.883 295.115 367.516 294.616 367.55 294.066C367.271 294.127 367.069 294.318 366.828 294.478C366.416 294.745 365.971 294.945 365.572 295.234C365.149 295.533 364.774 295.895 364.461 296.309C363.733 297.31 363.309 298.456 362.688 299.495C362.671 298.836 363.031 298.21 362.952 297.569C362.247 298.575 361.424 299.568 360.71 300.525C360.55 299.195 361.897 298.184 361.809 296.855C361.378 297.182 361.055 297.835 360.768 298.312C360.598 297.487 361.077 296.765 361.086 295.981C361.059 296.476 360.554 296.986 360.349 297.433C360.22 296.889 360.478 296.278 360.521 295.724C360.56 295.226 360.549 294.725 360.549 294.223C360.549 293.313 360.484 292.222 360.936 291.405C360.916 291.969 360.91 292.548 360.936 293.112C361.477 292.555 361.529 291.328 362.152 290.913C362.129 291.429 361.648 291.861 361.533 292.368C361.739 291.997 362.523 291.685 362.884 291.472C363.102 291.343 363.363 291.207 363.564 291.086C363.643 291.561 363.049 291.99 362.882 292.382C363.385 292.082 363.926 291.85 364.489 291.693C365.211 291.486 366.001 291.505 366.705 291.28C365.946 291.486 365.364 291.638 364.889 292.201C365.507 292.341 366.012 291.92 366.585 291.887C366.241 292.299 365.58 292.444 365.109 292.682C365.689 292.579 366.244 292.303 366.825 292.224C366.841 292.809 365.822 293.087 365.473 293.414C365.221 293.651 365.107 294.145 364.855 294.302C365.03 293.646 366.608 293.31 367.148 292.984C367.337 292.87 367.506 292.719 367.698 292.619C368.307 292.299 369.245 291.897 369.917 291.947C369.806 292.257 369.343 292.439 369.064 292.605C369.354 292.605 369.62 292.496 369.898 292.436C369.717 292.791 369.28 292.996 368.983 293.251C369.543 293.13 370.086 292.777 370.649 292.65C370.572 292.758 370.483 292.857 370.385 292.947C370.864 292.649 371.601 292.476 372.138 292.34" fill="#745E32"/>
<path opacity="0.6" d="M340.616 288.932C342.122 288.932 343.968 288.623 345.398 289.027C346.44 289.318 349.633 290.482 349.759 291.574C348.723 291.318 347.473 291.204 346.476 290.813C347.461 290.957 349.291 291.964 349.823 292.8C349.478 292.816 349.134 292.783 348.797 292.841C350.138 293.562 351.645 294.189 352.155 295.755C352.464 296.709 353.016 298.106 352.901 299.141C352.85 298.393 352.03 297.491 351.458 297.093C351.212 297.85 352.011 299.368 352.401 299.981C352.164 299.362 351.357 299.078 350.902 298.599C350.652 299.678 351.551 300.906 351.949 301.854C352.481 303.116 352.897 304.41 353.582 305.615C354.38 307.024 355.232 308.009 355.221 309.673C354.927 309.192 354.815 308.659 354.444 308.229C354.233 309.173 354.681 310.034 354.663 310.954C354.521 310.422 353.752 309.8 353.158 309.796C352.959 311.041 354.332 312.647 354.927 313.634C355.436 314.477 356.129 315.218 356.516 316.125C357.148 317.61 357.839 319.351 358.054 320.923C358.342 320.663 358.109 320.206 357.681 320.148C357.71 321.267 357.65 322.337 358.032 323.401C358.317 324.198 358.852 325.09 358.845 325.94C358.695 324.897 357.932 324.151 357.358 323.323C356.886 322.641 356.533 321.833 356.018 321.195C355.824 321.974 356.003 322.916 355.939 323.727C355.016 323.014 354.512 321.333 353.499 320.864C353.463 321.43 353.41 322.011 353.396 322.573C352.278 321.57 351.067 320.066 350.355 318.703C349.644 317.341 348.542 315.433 348.459 313.876C348.44 315.035 348.573 316.191 348.854 317.315C349.018 317.966 349.291 318.563 349.193 319.233C348.78 318.137 348.129 317.171 347.731 316.083C347.696 316.721 347.824 317.453 347.642 318.057C346.627 316.414 346.616 314.401 346.336 312.532C346.13 311.116 346.316 308.814 345.574 307.685C345.227 308.681 345.025 310.264 344.996 311.317C345.001 310.248 345.256 308.788 344.914 307.811C344.692 308.726 344.651 309.92 344.125 310.764C343.581 308.842 343.735 306.717 343.334 304.745C343.163 303.905 342.861 303.028 342.588 302.217C342.393 301.637 342.404 300.713 342.029 300.248C341.594 301.104 341.786 302.271 341.552 303.198C341.498 302.463 341.566 301.712 341.521 300.976C341.032 301.3 341.152 302.176 341.021 302.717C340.599 302.172 340.831 301.245 340.776 300.581C340.709 299.787 340.49 298.865 340.132 298.155C339.981 298.612 339.831 299.118 339.484 299.47C339.415 298.091 339.647 296.652 339.546 295.3C339.339 295.622 339.236 295.945 338.908 296.117C338.851 294.879 339.056 293.662 339.061 292.458C338.575 293.119 337.951 293.65 337.548 294.384C337.674 293.559 338.43 292.272 338.845 291.473C338.804 291.555 338.461 291.806 338.33 291.899C338.501 291.4 339.025 290.777 339.567 290.558C339.361 290.624 339.052 290.622 338.839 290.661C339.084 290.515 339.131 290.293 339.286 290.09C339.005 290 338.649 290.022 338.384 289.933C338.9 289.543 340.185 288.998 340.877 289.108" fill="#A2884F"/>
<path opacity="0.3" d="M336.09 288.409C335.695 289.757 334.749 291.073 334.587 292.414C334.425 293.754 334.56 295.176 334.544 296.539C334.59 295.674 335.384 294.785 335.632 293.934C335.606 294.909 335.641 296.174 335.62 297.258C335.723 296.815 336.017 296.472 336.265 296.098C336.098 298.974 335.258 301.922 336.069 304.895C336.362 303.766 336.82 302.607 337.25 301.523C337.259 302.39 337.147 303.25 337.147 304.117C337.261 303.334 337.728 302.577 338.149 301.913C338.026 303.297 338.343 305.117 338.746 306.451C339.173 307.861 339.95 308.974 340.122 310.488C340.117 309.487 340.146 308.705 340.556 307.781C340.608 308.866 340.335 310.256 340.648 311.263C341.179 310.865 341.238 309.581 341.493 308.955C341.691 308.47 341.951 308.007 342.102 307.517C342.066 309.46 341.92 311.42 342.484 313.257C342.987 314.902 343.647 316.764 343.731 318.505C344.281 317.875 344.842 315.371 344.794 314.348C344.794 314.678 344.823 315.046 344.841 315.419C344.892 315.066 344.968 314.717 345.068 314.375C344.862 316.242 345.965 318.614 346.589 320.351C347.001 321.486 347.58 322.531 348.103 323.582C348.35 324.079 348.509 325.242 348.843 325.522C349.159 324.19 348.925 322.653 349.05 321.294C349.676 322.211 349.884 323.703 350.369 324.75C350.356 324.219 350.227 323.366 350.465 322.947C351.394 324 352.158 325.549 352.97 326.704C353.122 326.33 353.051 325.719 353.065 325.248C353.931 325.34 354.343 326.816 354.655 327.494C355.141 328.548 355.658 329.587 356.041 330.678C356.763 329.853 356.041 327.997 356.369 326.985C356.863 327.398 356.908 328.358 357.194 328.91C357.377 328.386 357.271 327.658 357.289 327.053C358.715 326.744 359.004 328.855 359.48 329.752C359.864 329.265 359.803 328.539 359.927 327.925C360.12 326.97 360.464 326.136 360.538 325.172C360.584 324.562 360.494 323.64 360.71 323.148C361.198 323.664 361.571 324.396 362.044 324.964C362.181 325.855 362.216 326.758 362.147 327.657C361.717 333.679 357.507 335.423 357.507 335.423L357.312 334.165C357.139 334.855 356.375 336.351 354.927 337.392C355.084 337.098 355.331 335.648 355.331 335.648C355.331 335.648 354.518 337.279 352.73 337.917C353.047 334.543 349.954 328.545 345.322 324.855C340.689 321.165 337.943 312.674 337.943 312.674C337.943 312.674 337.856 313.532 336.742 314.904C336.656 313.445 336.055 310.1 336.055 310.1C336.055 310.1 335.884 311.131 334.853 312.072C334.94 309.494 333.653 304.78 332.537 299.547C331.686 293.794 333.414 290.289 336.09 288.409Z" fill="#856E40"/>
<path opacity="0.6" d="M301.274 299.106C312.15 299.725 321.347 299.387 328.692 293.668C330.046 292.613 331.299 291.672 332.525 290.868C332.498 291.04 332.471 291.211 332.441 291.383C332.207 292.74 331.354 293.832 331.307 295.226L331.576 294.598C331.296 295.629 330.794 296.57 330.562 297.624C330.245 299.058 330.23 300.512 330.228 301.97C330.228 303.484 330.81 305.608 329.589 306.808C329.636 305.701 329.892 303.983 329.509 302.974C329.288 303.705 329.222 304.634 328.896 305.354C328.854 304.722 328.914 304.058 328.862 303.436C328.613 305.406 327.366 307.036 326.626 308.829C325.986 310.385 325.677 312.07 325.466 313.728C325.466 312.19 325.449 310.651 325.466 309.114C325.499 309.755 325.009 310.606 324.578 310.982C324.493 309.562 324.809 308.168 324.754 306.774C324.637 308.625 323.124 310.095 322.33 311.654C322.251 309.79 322.373 307.923 322.694 306.085C322.395 307.871 320.672 309.059 319.875 310.573C319.946 309.264 319.959 308.058 320.358 306.783C320.62 305.951 321.007 305.245 320.977 304.354C321.053 305.326 319.319 306.855 318.597 307.456C317.927 308.015 317.086 308.374 316.495 309.043C315.733 309.906 315.398 311.161 314.998 312.212C314.719 312.946 313.822 316.168 313.003 316.233C312.817 314.616 313.467 313.028 313.992 311.526C314.486 310.112 314.508 308.63 314.879 307.208C314.429 308.095 314.015 308.869 313.31 309.58C313.127 308.858 313.229 307.908 313.252 307.126C313.185 307.945 312.557 309.298 311.794 309.705C311.578 308.975 311.464 307.252 311.808 306.383C311.142 307.566 309.484 308.38 308.424 309.064C307.136 309.889 305.78 310.392 304.418 311.066C303.961 309.888 305.289 307.679 305.716 306.605C305.401 307.173 304.994 308.09 304.358 308.353C304.338 307.825 304.282 307.2 304.399 306.703C304.12 308.132 302.781 308.734 301.892 309.667C301.377 310.208 301.013 311.372 300.222 311.508C300.233 309.799 301.708 308.461 302.284 306.903C302.571 306.128 302.682 305.217 302.963 304.51C302.757 304.809 302.55 305.149 302.202 305.295C302.151 304.278 302.344 303.256 302.269 302.252C300.928 302.179 299.397 302.502 298.144 301.976C297.547 301.727 297.004 301.183 296.423 300.882C295.841 300.581 294.954 300.392 294.544 299.791C294.441 299.642 294.361 299.479 294.307 299.306C296.802 299.06 299.182 298.989 301.274 299.106Z" fill="#66532D"/>
<path opacity="0.3" d="M349.352 343.651C349.352 343.651 340.311 333.455 341.323 329.745C342.336 326.034 345.073 326.032 347.251 330.514C349.429 334.996 352.657 345.055 354.964 348.327C357.271 351.599 351.301 347.236 349.352 343.651Z" fill="#2B1B0C"/>
<path opacity="0.6" d="M362.451 351.252C362.451 351.252 362.054 354.861 356.249 356.435C358.995 355.082 361.451 353.314 362.451 351.252Z" fill="#7C562D"/>
<path opacity="0.5" d="M343.418 358.514C342.794 358.514 342.173 358.497 341.549 358.471C340.597 358.433 339.326 358.247 338.398 358.418C337.867 358.521 337.263 358.879 336.748 359.079C336.116 359.324 334.542 359.526 334.106 360.144C334.56 360.17 335.463 359.955 335.756 360.324C335.049 360.804 333.892 360.573 333.132 360.954C333.768 360.938 334.782 360.769 335.373 360.998C335.004 361.464 334.102 361.27 333.574 361.477C333.931 361.799 334.694 361.439 335.12 361.845C334.666 362.324 333.216 362.549 332.551 362.547C333.179 362.713 333.981 362.521 334.651 362.611C333.746 363.013 332.589 363.459 331.586 363.58C332.905 363.694 334.268 363.409 335.497 364.012C336.404 364.46 337.418 364.817 338.288 365.33C337.972 364.484 337.637 363.758 337.864 362.815C338.023 362.156 338.489 361.434 338.922 360.91C339.592 360.098 340.139 359.767 341.081 359.349C341.723 359.067 342.47 358.883 343.157 358.619" fill="#745E32"/>
<path d="M370.248 389.552C370.248 389.552 368.261 384.689 364.703 383.085L364.143 383.528C364.143 383.528 367.024 384.234 369.377 389.552C369.745 389.55 370.248 389.552 370.248 389.552Z" fill="white"/>
<path opacity="0.5" d="M328.958 296.109C329.039 298.607 327.321 300.792 327.101 303.241C327.108 302.387 327.101 301.532 327.101 300.677C327.134 301.216 326.876 301.845 326.648 302.32C326.58 301.804 326.713 301.264 326.71 300.743C326.516 301.701 325.716 302.881 324.863 303.33C324.796 302.55 325.263 301.836 325.26 301.047C325.076 302 324.037 303.316 323.326 304.015C323.103 303.343 323.585 302.164 323.063 301.626C322.166 302.943 321.682 304.575 320.828 305.937C320.746 304.715 320.986 303.493 321.02 302.264C320.41 303.427 319.729 304.914 318.641 305.699C318.603 304.691 318.756 303.717 318.778 302.719C318.545 303.51 317.446 305.449 316.589 305.642C316.51 304.375 317.075 303.176 317.18 301.93C316.355 303.147 314.558 304.714 312.952 304.494C312.986 303.811 313.684 303.004 314.023 302.412C313.678 303.182 312.917 304.146 312.099 304.448C311.964 303.75 312.534 303.09 312.607 302.413C311.163 303.709 309.291 303.8 307.695 304.714C307.42 304.873 307.011 305.187 306.847 305.436C307.431 304.753 307.642 303.721 308.31 303.085C309.032 302.401 310.139 302.085 311.053 301.813C312.096 301.504 313.04 301.092 314.036 300.686C315.033 300.281 316.044 300.128 316.991 299.655C317.185 300.14 316.154 300.861 315.804 301.127C317.099 300.846 318.199 300.032 319.348 299.571C319.186 300.145 318.398 300.801 317.875 300.983C318.597 300.614 319.29 299.926 320.09 299.746C319.983 300.043 319.781 300.297 319.514 300.468C319.728 300.298 319.958 300.148 320.2 300.022C320.243 300.418 320.125 300.932 320.326 301.271C321.177 300.981 322.152 300.473 322.787 299.82C323.186 299.408 323.443 298.754 323.921 298.479C323.715 299.09 323.428 299.807 323.316 300.439C323.494 299.701 324.863 298.739 325.493 298.315C325.589 298.715 325.215 299.107 325.067 299.475C325.541 298.865 326.113 298.337 326.759 297.913C326.792 298.181 326.694 298.429 326.637 298.675C327.817 298.312 328.116 296.74 328.951 296.044" fill="#69532D"/>
<path opacity="0.6" d="M296.702 310.266C298.482 303.952 300.952 299.405 290.363 302.391C279.774 305.376 275.36 314.201 275.227 321.938C275.094 329.676 273.192 339.247 276.516 337.957C279.841 336.667 285.408 330.831 287.448 324.789C289.487 318.747 295.052 316.111 296.702 310.266Z" fill="#695328"/>
<path d="M264.8 386.2C264.8 386.2 261.707 384.659 259.365 387.964C257.605 389.717 257.392 386.314 257.392 382.794C257.392 379.273 256.539 372.291 256.645 367.015C256.751 361.74 256.748 356.193 262.349 351.291C267.95 346.388 264.535 352.09 263.202 354.542C261.869 356.995 257.445 365.096 260.217 374.159C262.989 383.222 265.014 386.225 265.014 386.225" fill="#7F6739"/>
<path d="M270.007 308.523C270.007 308.523 264.137 312.442 266.039 320.839C266.094 318.524 265.442 313.414 270.007 308.523Z" fill="#36444A"/>
<path opacity="0.6" d="M292.713 299.946C292.713 299.946 279.404 300.038 273.163 307.816C276.276 305.716 280.826 301.257 292.713 299.946Z" fill="#93603B"/>
<path d="M287.31 324.251C287.31 324.251 284.026 335.565 275.429 337.909C280.035 337.105 284.967 333.694 287.31 324.251Z" fill="#93603B"/>
<path d="M348.178 361.839C348.178 361.839 344.66 365.593 340.275 366.488C341.773 365.703 348.178 361.839 348.178 361.839Z" fill="#A2884F"/>
<path d="M322.415 386.134C322.415 386.134 321.075 381.989 317.593 380.248L317.07 380.745C317.07 380.745 319.118 381.279 321.845 386.2L322.415 386.134Z" fill="white"/>
<path d="M268.312 393.084C268.312 393.084 266.684 388.238 263.182 386.926C262.939 387.05 262.703 387.188 262.475 387.338C262.475 387.338 265.156 387.981 267.683 393.146L268.312 393.084Z" fill="white"/>
<path d="M258.981 368.902C258.981 368.902 259.084 378.529 264.859 385.972C261.404 383.794 258.309 377.903 258.981 368.902Z" fill="#7F673B"/>
</g>
<defs>
<clipPath id="clip0_3354_735">
<rect width="175.313" height="144" fill="white" transform="matrix(-1 0 0 1 427.47 249.3)"/>
</clipPath>
</defs>
</svg>
