<svg width="300" height="300" viewBox="0 0 300 300" fill="none" xmlns="http://www.w3.org/2000/svg">
<path fill-rule="evenodd" clip-rule="evenodd" d="M196.643 265.873C204.345 262.946 216.364 256.515 225.061 250.668C235.467 243.673 249.764 230.333 256.884 220.974C269.672 204.165 276.362 187.068 280.207 161.368C282.792 144.087 282.976 139.699 283.215 89.5401C283.468 36.1943 283.699 39.5427 279.472 35.3161C275.394 31.237 277.807 31.4203 228.126 31.4203C180.144 31.4203 181.823 31.3224 177.859 34.3464C176.847 35.1182 175.386 36.8266 174.612 38.1422L173.206 40.5349L173.065 85.9854L172.923 131.436L174.048 134.052C175.37 137.123 178.996 140.546 181.735 141.307C182.858 141.619 192.216 141.832 204.846 141.834L226.07 141.837L226.07 145.112C226.07 152.569 223.944 165.223 221.283 173.608C217.745 184.755 212.346 193.742 204.526 201.504C198.147 207.837 190.759 212.866 180.374 217.947C172.781 221.662 171.642 222.584 169.555 226.705C169.003 227.796 168.634 229.741 168.616 231.663C168.59 234.446 168.937 235.576 171.502 241.066C181.263 261.957 182.062 263.283 186.139 265.363C189.13 266.888 193.423 267.097 196.643 265.873ZM42.6265 266.255C45.5129 265.722 59.0853 259.081 66.4348 254.605C88.7317 241.025 106.136 222.832 116.321 202.458C123.769 187.561 127.458 172.512 130.056 146.425C130.746 139.493 130.944 129.128 131.131 90.0651C131.388 36.1338 131.622 39.549 127.389 35.3161C123.31 31.2375 125.72 31.4203 76.0702 31.4203C27.676 31.4203 29.3723 31.3151 25.4369 34.5588C24.4046 35.4099 22.9531 37.3245 22.2109 38.8135L20.8619 41.5208L20.8734 86.6005C20.8848 130.827 20.9051 131.725 21.9458 134.024C23.165 136.719 25.0249 138.817 27.6327 140.441C29.4135 141.55 29.9728 141.583 51.8442 141.837L74.2327 142.097L74.0739 146.264C73.6629 157.026 71.065 169.834 67.4567 178.882C63.7468 188.185 59.3036 194.971 52.5609 201.631C46.4244 207.693 40.1593 212.012 30.3249 216.96C20.8973 221.703 18.2624 223.889 17.1952 227.852C15.9322 232.542 16.5973 234.905 22.8135 247.826C26.2827 255.038 29.3614 260.716 30.5489 262.093C33.5655 265.592 37.9801 267.113 42.6265 266.255Z" fill="#B29758"/>
</svg>
