<svg width="32" height="32" viewBox="0 0 32 32" fill="none" xmlns="http://www.w3.org/2000/svg">
<path d="M5.7145 14.4286H3.42878C2.82257 14.4286 2.24119 14.6694 1.81254 15.098C1.38388 15.5267 1.14307 16.1081 1.14307 16.7143V28.1429H8.00021M5.7145 14.4286C6.3207 14.4286 6.90208 14.6694 7.33074 15.098C7.75939 15.5267 8.00021 16.1081 8.00021 16.7143V28.1429M5.7145 14.4286V9.85714C5.7145 8.03852 6.43694 6.29437 7.72291 5.00841C9.00887 3.72245 10.753 3 12.5716 3H19.4288C21.2474 3 22.9916 3.72245 24.2775 5.00841C25.5635 6.29437 26.2859 8.03852 26.2859 9.85714V14.4286M8.00021 28.1429H24.0002M26.2859 14.4286H28.5716C29.1778 14.4286 29.7592 14.6694 30.1879 15.098C30.6165 15.5267 30.8574 16.1081 30.8574 16.7143V28.1429H24.0002M26.2859 14.4286C25.6797 14.4286 25.0983 14.6694 24.6697 15.098C24.241 15.5267 24.0002 16.1081 24.0002 16.7143V28.1429M8.00021 19H24.0002" stroke="#9B8247" stroke-width="2" stroke-linecap="round" stroke-linejoin="round"/>
</svg>
