<svg width="40" height="40" viewBox="0 0 40 40" fill="none" xmlns="http://www.w3.org/2000/svg">
<path d="M9.9974 33.3333C9.08073 33.3333 8.29573 33.0067 7.6424 32.3533C6.98907 31.7 6.66295 30.9156 6.66407 30V26.6667C6.66407 26.1944 6.82407 25.7983 7.14407 25.4783C7.46407 25.1583 7.85962 24.9989 8.33073 25C8.80295 25 9.19906 25.16 9.51906 25.48C9.83906 25.8 9.99851 26.1956 9.9974 26.6667V30H29.9974V26.6667C29.9974 26.1944 30.1574 25.7983 30.4774 25.4783C30.7974 25.1583 31.193 24.9989 31.6641 25C32.1363 25 32.5324 25.16 32.8524 25.48C33.1724 25.8 33.3318 26.1956 33.3307 26.6667V30C33.3307 30.9167 33.0041 31.7017 32.3507 32.355C31.6974 33.0083 30.913 33.3344 29.9974 33.3333H9.9974ZM18.3307 13.0833L15.2057 16.2083C14.8724 16.5417 14.4763 16.7017 14.0174 16.6883C13.5585 16.675 13.163 16.5011 12.8307 16.1667C12.5252 15.8333 12.3652 15.4444 12.3507 15C12.3363 14.5556 12.4963 14.1667 12.8307 13.8333L18.8307 7.83333C18.9974 7.66667 19.178 7.54889 19.3724 7.48C19.5668 7.41111 19.7752 7.37611 19.9974 7.375C20.2196 7.375 20.428 7.41 20.6224 7.48C20.8168 7.55 20.9974 7.66778 21.1641 7.83333L27.1641 13.8333C27.4974 14.1667 27.6574 14.5556 27.6441 15C27.6307 15.4444 27.4707 15.8333 27.1641 16.1667C26.8307 16.5 26.4346 16.6739 25.9757 16.6883C25.5168 16.7028 25.1213 16.5428 24.7891 16.2083L21.6641 13.0833V25C21.6641 25.4722 21.5041 25.8683 21.1841 26.1883C20.8641 26.5083 20.4685 26.6678 19.9974 26.6667C19.5252 26.6667 19.1291 26.5067 18.8091 26.1867C18.4891 25.8667 18.3296 25.4711 18.3307 25V13.0833Z" fill="#9B8247"/>
</svg>
