<svg width="342" height="50" viewBox="0 0 342 50" fill="none" xmlns="http://www.w3.org/2000/svg">
<path d="M79.3189 33.3677C78.1513 33.3677 77.0628 33.1803 76.054 32.8055C75.0594 32.4163 74.1945 31.8686 73.4594 31.1623C72.7243 30.456 72.1472 29.6271 71.7297 28.6758C71.3256 27.7244 71.1243 26.6794 71.1243 25.5406C71.1243 24.4019 71.3256 23.3569 71.7297 22.4055C72.1472 21.4542 72.7243 20.6253 73.4594 19.919C74.2087 19.2127 75.081 18.6722 76.0756 18.2974C77.0702 17.9082 78.1581 17.7136 79.3405 17.7136C80.652 17.7136 81.8337 17.9442 82.8864 18.4055C83.9526 18.8523 84.8466 19.5154 85.5675 20.3947L83.3189 22.4704C82.7999 21.8794 82.2229 21.4398 81.5891 21.1515C80.9547 20.8488 80.2628 20.6974 79.5135 20.6974C78.8067 20.6974 78.1581 20.8127 77.5675 21.0434C76.9763 21.274 76.4648 21.6055 76.0324 22.0379C75.5999 22.4704 75.2608 22.9821 75.0162 23.5731C74.7851 24.1641 74.6702 24.8199 74.6702 25.5406C74.6702 26.2614 74.7851 26.9172 75.0162 27.5082C75.2608 28.0992 75.5999 28.6109 76.0324 29.0434C76.4648 29.4758 76.9763 29.8073 77.5675 30.0379C78.1581 30.2686 78.8067 30.3839 79.5135 30.3839C80.2628 30.3839 80.9547 30.2398 81.5891 29.9515C82.2229 29.6488 82.7999 29.1947 83.3189 28.5893L85.5675 30.665C84.8466 31.5442 83.9526 32.2145 82.8864 32.6758C81.8337 33.1371 80.6445 33.3677 79.3189 33.3677ZM94.9675 33.3677C93.7709 33.3677 92.6607 33.1731 91.6378 32.7839C90.6283 32.3947 89.7493 31.8469 88.9999 31.1407C88.2648 30.4344 87.6878 29.6055 87.2702 28.6542C86.8662 27.7028 86.6648 26.665 86.6648 25.5406C86.6648 24.4163 86.8662 23.3785 87.2702 22.4271C87.6878 21.4758 88.2716 20.6469 89.0216 19.9406C89.7709 19.2344 90.6499 18.6866 91.6594 18.2974C92.6682 17.9082 93.7635 17.7136 94.9459 17.7136C96.1418 17.7136 97.2378 17.9082 98.2324 18.2974C99.2412 18.6866 100.113 19.2344 100.849 19.9406C101.598 20.6469 102.182 21.4758 102.6 22.4271C103.018 23.3641 103.227 24.4019 103.227 25.5406C103.227 26.665 103.018 27.71 102.6 28.6758C102.182 29.6271 101.598 30.456 100.849 31.1623C100.113 31.8542 99.2412 32.3947 98.2324 32.7839C97.2378 33.1731 96.1493 33.3677 94.9675 33.3677ZM94.9459 30.3839C95.6229 30.3839 96.2432 30.2686 96.8054 30.0379C97.3817 29.8073 97.8864 29.4758 98.3189 29.0434C98.7513 28.6109 99.0824 28.0992 99.3135 27.5082C99.558 26.9172 99.681 26.2614 99.681 25.5406C99.681 24.8199 99.558 24.1641 99.3135 23.5731C99.0824 22.9821 98.7513 22.4704 98.3189 22.0379C97.9006 21.6055 97.4033 21.274 96.827 21.0434C96.2499 20.8127 95.6229 20.6974 94.9459 20.6974C94.2682 20.6974 93.6412 20.8127 93.0648 21.0434C92.5026 21.274 92.0053 21.6055 91.5729 22.0379C91.1405 22.4704 90.8013 22.9821 90.5567 23.5731C90.3256 24.1641 90.2108 24.8199 90.2108 25.5406C90.2108 26.2469 90.3256 26.9028 90.5567 27.5082C90.8013 28.0992 91.1331 28.6109 91.5513 29.0434C91.9837 29.4758 92.4878 29.8073 93.0648 30.0379C93.6412 30.2686 94.2682 30.3839 94.9459 30.3839ZM105.859 33.1082V17.9731H108.757L117.686 28.8704H116.281V17.9731H119.74V33.1082H116.865L107.913 22.2109H109.319V33.1082H105.859ZM123.321 33.1082V17.9731H130.197C131.84 17.9731 133.288 18.2902 134.543 18.9244C135.797 19.5442 136.777 20.4163 137.483 21.5406C138.19 22.665 138.543 23.9983 138.543 25.5406C138.543 27.0686 138.19 28.4019 137.483 29.5407C136.777 30.665 135.797 31.5442 134.543 32.1785C133.288 32.7983 131.84 33.1082 130.197 33.1082H123.321ZM126.824 30.2325H130.024C131.033 30.2325 131.905 30.0452 132.64 29.6704C133.39 29.2812 133.966 28.7334 134.37 28.0271C134.788 27.3209 134.997 26.492 134.997 25.5406C134.997 24.5749 134.788 23.7461 134.37 23.0542C133.966 22.3479 133.39 21.8073 132.64 21.4325C131.905 21.0434 131.033 20.8488 130.024 20.8488H126.824V30.2325ZM148.536 33.3677C147.339 33.3677 146.23 33.1731 145.206 32.7839C144.197 32.3947 143.318 31.8469 142.568 31.1407C141.833 30.4344 141.257 29.6055 140.838 28.6542C140.435 27.7028 140.233 26.665 140.233 25.5406C140.233 24.4163 140.435 23.3785 140.838 22.4271C141.257 21.4758 141.84 20.6469 142.59 19.9406C143.339 19.2344 144.219 18.6866 145.228 18.2974C146.236 17.9082 147.332 17.7136 148.514 17.7136C149.711 17.7136 150.806 17.9082 151.801 18.2974C152.809 18.6866 153.682 19.2344 154.417 19.9406C155.166 20.6469 155.75 21.4758 156.168 22.4271C156.586 23.3641 156.795 24.4019 156.795 25.5406C156.795 26.665 156.586 27.71 156.168 28.6758C155.75 29.6271 155.166 30.456 154.417 31.1623C153.682 31.8542 152.809 32.3947 151.801 32.7839C150.806 33.1731 149.718 33.3677 148.536 33.3677ZM148.514 30.3839C149.192 30.3839 149.811 30.2686 150.374 30.0379C150.95 29.8073 151.455 29.4758 151.887 29.0434C152.32 28.6109 152.651 28.0992 152.882 27.5082C153.127 26.9172 153.249 26.2614 153.249 25.5406C153.249 24.8199 153.127 24.1641 152.882 23.5731C152.651 22.9821 152.32 22.4704 151.887 22.0379C151.469 21.6055 150.972 21.274 150.395 21.0434C149.819 20.8127 149.192 20.6974 148.514 20.6974C147.836 20.6974 147.209 20.8127 146.633 21.0434C146.071 21.274 145.574 21.6055 145.141 22.0379C144.709 22.4704 144.37 22.9821 144.125 23.5731C143.895 24.1641 143.779 24.8199 143.779 25.5406C143.779 26.2469 143.895 26.9028 144.125 27.5082C144.37 28.0992 144.701 28.6109 145.12 29.0434C145.552 29.4758 146.057 29.8073 146.633 30.0379C147.209 30.2686 147.836 30.3839 148.514 30.3839ZM164.401 33.3677C163.19 33.3677 162.03 33.2091 160.92 32.892C159.809 32.5604 158.916 32.1352 158.238 31.6163L159.428 28.9785C160.076 29.4398 160.84 29.8217 161.72 30.1244C162.613 30.4127 163.514 30.5569 164.422 30.5569C165.114 30.5569 165.669 30.492 166.087 30.3623C166.52 30.2182 166.836 30.0236 167.038 29.7785C167.24 29.5334 167.341 29.2523 167.341 28.9352C167.341 28.5317 167.182 28.2145 166.865 27.9839C166.549 27.7388 166.13 27.5442 165.611 27.4001C165.093 27.2415 164.516 27.0974 163.882 26.9677C163.262 26.8236 162.635 26.6506 162.001 26.4488C161.381 26.2469 160.811 25.9875 160.293 25.6704C159.774 25.3533 159.349 24.9352 159.017 24.4163C158.7 23.8974 158.541 23.2344 158.541 22.4271C158.541 21.5623 158.772 20.7767 159.233 20.0704C159.709 19.3496 160.415 18.7803 161.352 18.3623C162.303 17.9298 163.493 17.7136 164.92 17.7136C165.871 17.7136 166.808 17.829 167.73 18.0596C168.653 18.2758 169.468 18.6073 170.174 19.0542L169.093 21.7136C168.386 21.31 167.68 21.0145 166.974 20.8271C166.268 20.6253 165.576 20.5244 164.898 20.5244C164.22 20.5244 163.665 20.6037 163.233 20.7623C162.801 20.9209 162.49 21.1298 162.303 21.3893C162.116 21.6344 162.022 21.9226 162.022 22.2542C162.022 22.6434 162.181 22.9604 162.498 23.2055C162.815 23.4361 163.233 23.6236 163.752 23.7677C164.271 23.9118 164.84 24.056 165.46 24.2001C166.095 24.3442 166.722 24.51 167.341 24.6974C167.976 24.8848 168.552 25.1371 169.071 25.4542C169.59 25.7713 170.008 26.1893 170.325 26.7082C170.657 27.2271 170.822 27.883 170.822 28.6758C170.822 29.5263 170.584 30.3046 170.109 31.0109C169.633 31.7172 168.92 32.2866 167.968 32.719C167.031 33.1515 165.842 33.3677 164.401 33.3677ZM184.096 33.3677C182.986 33.3677 181.999 33.1875 181.134 32.8271C180.269 32.4668 179.584 31.9767 179.08 31.3569C178.575 30.7371 178.323 30.0236 178.323 29.2163C178.323 28.4668 178.488 27.7965 178.82 27.2055C179.151 26.6001 179.678 26.0379 180.399 25.519C181.119 24.9857 182.034 24.4668 183.145 23.9623C183.951 23.5875 184.586 23.256 185.047 22.9677C185.508 22.6794 185.832 22.4055 186.02 22.1461C186.207 21.8722 186.301 21.5983 186.301 21.3244C186.301 20.9496 186.172 20.6469 185.912 20.4163C185.667 20.1857 185.299 20.0704 184.809 20.0704C184.29 20.0704 183.886 20.2001 183.599 20.4596C183.31 20.719 183.166 21.0506 183.166 21.4542C183.166 21.6704 183.209 21.8866 183.296 22.1028C183.382 22.3046 183.548 22.5425 183.793 22.8163C184.038 23.0758 184.384 23.4145 184.831 23.8325L192.809 31.2271L190.972 33.3677L182.172 25.1947C181.667 24.7334 181.263 24.301 180.961 23.8974C180.658 23.4938 180.434 23.0974 180.29 22.7082C180.161 22.319 180.096 21.9154 180.096 21.4974C180.096 20.7623 180.29 20.1136 180.68 19.5515C181.069 18.9893 181.616 18.5569 182.323 18.2542C183.029 17.9371 183.858 17.7785 184.809 17.7785C185.688 17.7785 186.445 17.9226 187.08 18.2109C187.728 18.4848 188.232 18.8812 188.593 19.4001C188.968 19.919 189.155 20.5388 189.155 21.2596C189.155 21.8938 188.997 22.4776 188.68 23.0109C188.362 23.5298 187.865 24.0199 187.188 24.4812C186.524 24.9425 185.653 25.4109 184.572 25.8866C183.836 26.2182 183.253 26.5425 182.82 26.8596C182.402 27.1623 182.099 27.4722 181.912 27.7893C181.724 28.1064 181.631 28.4596 181.631 28.8488C181.631 29.2091 181.739 29.5334 181.955 29.8217C182.186 30.11 182.503 30.3334 182.907 30.492C183.31 30.6506 183.786 30.7298 184.334 30.7298C185.213 30.7298 186.02 30.528 186.755 30.1244C187.49 29.7064 188.11 29.0938 188.615 28.2866C189.134 27.465 189.501 26.4704 189.718 25.3028L192.42 26.1461C192.118 27.6163 191.577 28.892 190.799 29.9731C190.02 31.0542 189.061 31.8902 187.923 32.4812C186.784 33.0722 185.508 33.3677 184.096 33.3677ZM211.571 17.9731H215.074V33.1082H211.571V17.9731ZM204.695 33.1082H201.193V17.9731H204.695V33.1082ZM211.83 26.9028H204.436V23.9406H211.83V26.9028ZM226.006 33.3677C224.809 33.3677 223.7 33.1731 222.676 32.7839C221.668 32.3947 220.788 31.8469 220.038 31.1407C219.303 30.4344 218.727 29.6055 218.309 28.6542C217.905 27.7028 217.703 26.665 217.703 25.5406C217.703 24.4163 217.905 23.3785 218.309 22.4271C218.727 21.4758 219.311 20.6469 220.06 19.9406C220.809 19.2344 221.689 18.6866 222.698 18.2974C223.707 17.9082 224.803 17.7136 225.984 17.7136C227.181 17.7136 228.276 17.9082 229.271 18.2974C230.28 18.6866 231.152 19.2344 231.887 19.9406C232.636 20.6469 233.22 21.4758 233.638 22.4271C234.057 23.3641 234.265 24.4019 234.265 25.5406C234.265 26.665 234.057 27.71 233.638 28.6758C233.22 29.6271 232.636 30.456 231.887 31.1623C231.152 31.8542 230.28 32.3947 229.271 32.7839C228.276 33.1731 227.188 33.3677 226.006 33.3677ZM225.984 30.3839C226.662 30.3839 227.282 30.2686 227.844 30.0379C228.42 29.8073 228.925 29.4758 229.357 29.0434C229.79 28.6109 230.122 28.0992 230.352 27.5082C230.597 26.9172 230.72 26.2614 230.72 25.5406C230.72 24.8199 230.597 24.1641 230.352 23.5731C230.122 22.9821 229.79 22.4704 229.357 22.0379C228.939 21.6055 228.442 21.274 227.865 21.0434C227.289 20.8127 226.662 20.6974 225.984 20.6974C225.307 20.6974 224.68 20.8127 224.103 21.0434C223.541 21.274 223.044 21.6055 222.611 22.0379C222.179 22.4704 221.84 22.9821 221.595 23.5731C221.365 24.1641 221.249 24.8199 221.249 25.5406C221.249 26.2469 221.365 26.9028 221.595 27.5082C221.84 28.0992 222.172 28.6109 222.59 29.0434C223.022 29.4758 223.527 29.8073 224.103 30.0379C224.68 30.2686 225.307 30.3839 225.984 30.3839ZM236.898 33.1082V17.9731H239.795L246.238 28.6542H244.703L251.038 17.9731H253.914L253.957 33.1082H250.671L250.649 23.0109H251.255L246.195 31.5082H244.617L239.449 23.0109H240.184V33.1082H236.898ZM260.77 24.0704H268.057V26.7947H260.77V24.0704ZM261.03 30.2974H269.268V33.1082H257.549V17.9731H268.986V20.7839H261.03V30.2974ZM277.027 33.3677C275.816 33.3677 274.656 33.2091 273.546 32.892C272.436 32.5604 271.543 32.1352 270.865 31.6163L272.054 28.9785C272.703 29.4398 273.467 29.8217 274.346 30.1244C275.24 30.4127 276.14 30.5569 277.049 30.5569C277.74 30.5569 278.296 30.492 278.713 30.3623C279.146 30.2182 279.463 30.0236 279.665 29.7785C279.867 29.5334 279.967 29.2523 279.967 28.9352C279.967 28.5317 279.809 28.2145 279.492 27.9839C279.175 27.7388 278.757 27.5442 278.238 27.4001C277.719 27.2415 277.143 27.0974 276.508 26.9677C275.888 26.8236 275.261 26.6506 274.627 26.4488C274.007 26.2469 273.438 25.9875 272.919 25.6704C272.4 25.3533 271.975 24.9352 271.643 24.4163C271.326 23.8974 271.168 23.2344 271.168 22.4271C271.168 21.5623 271.399 20.7767 271.859 20.0704C272.335 19.3496 273.042 18.7803 273.978 18.3623C274.93 17.9298 276.119 17.7136 277.546 17.7136C278.497 17.7136 279.434 17.829 280.357 18.0596C281.28 18.2758 282.094 18.6073 282.8 19.0542L281.719 21.7136C281.013 21.31 280.307 21.0145 279.6 20.8271C278.894 20.6253 278.202 20.5244 277.524 20.5244C276.847 20.5244 276.292 20.6037 275.859 20.7623C275.427 20.9209 275.118 21.1298 274.93 21.3893C274.743 21.6344 274.649 21.9226 274.649 22.2542C274.649 22.6434 274.807 22.9604 275.124 23.2055C275.442 23.4361 275.859 23.6236 276.378 23.7677C276.897 23.9118 277.467 24.056 278.086 24.2001C278.721 24.3442 279.348 24.51 279.967 24.6974C280.602 24.8848 281.178 25.1371 281.697 25.4542C282.216 25.7713 282.634 26.1893 282.951 26.7082C283.283 27.2271 283.449 27.883 283.449 28.6758C283.449 29.5263 283.211 30.3046 282.735 31.0109C282.259 31.7172 281.546 32.2866 280.595 32.719C279.658 33.1515 278.469 33.3677 277.027 33.3677ZM302.344 17.9731H305.847V33.1082H302.344V17.9731ZM295.468 33.1082H291.965V17.9731H295.468V33.1082ZM302.603 26.9028H295.209V23.9406H302.603V26.9028ZM316.152 33.3677C314.004 33.3677 312.325 32.7695 311.114 31.5731C309.903 30.3767 309.298 28.6686 309.298 26.4488V17.9731H312.801V26.319C312.801 27.7604 313.096 28.7983 313.687 29.4325C314.278 30.0668 315.107 30.3839 316.174 30.3839C317.24 30.3839 318.069 30.0668 318.66 29.4325C319.251 28.7983 319.547 27.7604 319.547 26.319V17.9731H323.006V26.4488C323.006 28.6686 322.401 30.3767 321.19 31.5731C319.979 32.7695 318.3 33.3677 316.152 33.3677ZM326.468 33.1082V17.9731H333.862C335.765 17.9731 337.192 18.3334 338.143 19.0542C339.109 19.7749 339.592 20.7263 339.592 21.9082C339.592 22.701 339.397 23.3929 339.008 23.9839C338.619 24.5604 338.085 25.0073 337.408 25.3244C336.73 25.6415 335.952 25.8001 335.073 25.8001L335.484 24.9136C336.435 24.9136 337.278 25.0722 338.013 25.3893C338.749 25.692 339.318 26.1461 339.722 26.7515C340.139 27.3569 340.349 28.0992 340.349 28.9785C340.349 30.2758 339.836 31.292 338.813 32.0271C337.79 32.7479 336.284 33.1082 334.295 33.1082H326.468ZM329.949 30.4704H334.035C334.943 30.4704 335.628 30.3263 336.089 30.0379C336.565 29.7352 336.803 29.2596 336.803 28.6109C336.803 27.9767 336.565 27.5082 336.089 27.2055C335.628 26.8884 334.943 26.7298 334.035 26.7298H329.689V24.1785H333.43C334.28 24.1785 334.928 24.0344 335.376 23.7461C335.836 23.4434 336.068 22.9893 336.068 22.3839C336.068 21.7929 335.836 21.3533 335.376 21.065C334.928 20.7623 334.28 20.6109 333.43 20.6109H329.949V30.4704Z" fill="white"/>
<path d="M171.808 46.6217V40.2433H169.3V39.0542H175.722V40.2433H173.214V46.6217H171.808ZM182.92 46.7298C182.328 46.7298 181.785 46.6325 181.287 46.4379C180.79 46.2433 180.357 45.9731 179.99 45.6271C179.622 45.274 179.337 44.8631 179.136 44.3947C178.934 43.919 178.833 43.4001 178.833 42.8379C178.833 42.2758 178.934 41.7604 179.136 41.292C179.337 40.8163 179.622 40.4055 179.99 40.0596C180.357 39.7064 180.79 39.4325 181.287 39.2379C181.785 39.0433 182.325 38.946 182.909 38.946C183.499 38.946 184.04 39.0433 184.53 39.2379C185.028 39.4325 185.46 39.7064 185.828 40.0596C186.195 40.4055 186.48 40.8163 186.682 41.292C186.883 41.7604 186.985 42.2758 186.985 42.8379C186.985 43.4001 186.883 43.919 186.682 44.3947C186.48 44.8704 186.195 45.2812 185.828 45.6271C185.46 45.9731 185.028 46.2433 184.53 46.4379C184.04 46.6325 183.503 46.7298 182.92 46.7298ZM182.909 45.4974C183.291 45.4974 183.644 45.4325 183.968 45.3028C184.293 45.1731 184.574 44.9893 184.812 44.7515C185.049 44.5064 185.233 44.2253 185.363 43.9082C185.499 43.5839 185.568 43.2271 185.568 42.8379C185.568 42.4487 185.499 42.0956 185.363 41.7785C185.233 41.4542 185.049 41.1731 184.812 40.9352C184.574 40.6902 184.293 40.5028 183.968 40.3731C183.644 40.2433 183.291 40.1785 182.909 40.1785C182.526 40.1785 182.174 40.2433 181.849 40.3731C181.532 40.5028 181.251 40.6902 181.006 40.9352C180.768 41.1731 180.58 41.4542 180.444 41.7785C180.314 42.0956 180.249 42.4487 180.249 42.8379C180.249 43.2199 180.314 43.5731 180.444 43.8974C180.58 44.2217 180.768 44.5064 181.006 44.7515C181.244 44.9893 181.525 45.1731 181.849 45.3028C182.174 45.4325 182.526 45.4974 182.909 45.4974ZM191.177 46.6217V39.0542H194.291C194.961 39.0542 195.534 39.1623 196.01 39.3785C196.492 39.5947 196.864 39.9046 197.123 40.3082C197.382 40.7118 197.512 41.1911 197.512 41.746C197.512 42.301 197.382 42.7803 197.123 43.1839C196.864 43.5803 196.492 43.8866 196.01 44.1028C195.534 44.3118 194.961 44.4163 194.291 44.4163H191.955L192.582 43.7785V46.6217H191.177ZM196.128 46.6217L194.215 43.8758H195.717L197.642 46.6217H196.128ZM192.582 43.9298L191.955 43.2596H194.226C194.845 43.2596 195.31 43.1262 195.62 42.8596C195.937 42.5929 196.096 42.2217 196.096 41.746C196.096 41.2631 195.937 40.892 195.62 40.6325C195.31 40.3731 194.845 40.2433 194.226 40.2433H191.955L192.582 39.5515V43.9298ZM205.333 46.7298C204.742 46.7298 204.198 46.6325 203.701 46.4379C203.203 46.2433 202.771 45.9731 202.403 45.6271C202.036 45.274 201.751 44.8631 201.549 44.3947C201.347 43.919 201.247 43.4001 201.247 42.8379C201.247 42.2758 201.347 41.7604 201.549 41.292C201.751 40.8163 202.036 40.4055 202.403 40.0596C202.771 39.7064 203.203 39.4325 203.701 39.2379C204.198 39.0433 204.739 38.946 205.322 38.946C205.913 38.946 206.453 39.0433 206.944 39.2379C207.441 39.4325 207.874 39.7064 208.241 40.0596C208.609 40.4055 208.893 40.8163 209.095 41.292C209.297 41.7604 209.398 42.2758 209.398 42.8379C209.398 43.4001 209.297 43.919 209.095 44.3947C208.893 44.8704 208.609 45.2812 208.241 45.6271C207.874 45.9731 207.441 46.2433 206.944 46.4379C206.453 46.6325 205.917 46.7298 205.333 46.7298ZM205.322 45.4974C205.704 45.4974 206.057 45.4325 206.382 45.3028C206.706 45.1731 206.987 44.9893 207.225 44.7515C207.463 44.5064 207.647 44.2253 207.776 43.9082C207.913 43.5839 207.982 43.2271 207.982 42.8379C207.982 42.4487 207.913 42.0956 207.776 41.7785C207.647 41.4542 207.463 41.1731 207.225 40.9352C206.987 40.6902 206.706 40.5028 206.382 40.3731C206.057 40.2433 205.704 40.1785 205.322 40.1785C204.94 40.1785 204.587 40.2433 204.263 40.3731C203.945 40.5028 203.664 40.6902 203.42 40.9352C203.182 41.1731 202.994 41.4542 202.857 41.7785C202.728 42.0956 202.663 42.4487 202.663 42.8379C202.663 43.2199 202.728 43.5731 202.857 43.8974C202.994 44.2217 203.182 44.5064 203.42 44.7515C203.657 44.9893 203.939 45.1731 204.263 45.3028C204.587 45.4325 204.94 45.4974 205.322 45.4974ZM213.59 46.6217V39.0542H214.747L219.493 44.8812H218.92V39.0542H220.314V46.6217H219.157L214.412 40.7947H214.985V46.6217H213.59ZM226.58 46.6217V40.2433H224.072V39.0542H230.494V40.2433H227.986V46.6217H226.58ZM237.691 46.7298C237.101 46.7298 236.556 46.6325 236.059 46.4379C235.562 46.2433 235.129 45.9731 234.762 45.6271C234.394 45.274 234.11 44.8631 233.907 44.3947C233.706 43.919 233.605 43.4001 233.605 42.8379C233.605 42.2758 233.706 41.7604 233.907 41.292C234.11 40.8163 234.394 40.4055 234.762 40.0596C235.129 39.7064 235.562 39.4325 236.059 39.2379C236.556 39.0433 237.097 38.946 237.68 38.946C238.272 38.946 238.812 39.0433 239.302 39.2379C239.799 39.4325 240.232 39.7064 240.599 40.0596C240.967 40.4055 241.252 40.8163 241.453 41.292C241.655 41.7604 241.756 42.2758 241.756 42.8379C241.756 43.4001 241.655 43.919 241.453 44.3947C241.252 44.8704 240.967 45.2812 240.599 45.6271C240.232 45.9731 239.799 46.2433 239.302 46.4379C238.812 46.6325 238.275 46.7298 237.691 46.7298ZM237.68 45.4974C238.063 45.4974 238.416 45.4325 238.74 45.3028C239.064 45.1731 239.345 44.9893 239.583 44.7515C239.821 44.5064 240.005 44.2253 240.135 43.9082C240.272 43.5839 240.34 43.2271 240.34 42.8379C240.34 42.4487 240.272 42.0956 240.135 41.7785C240.005 41.4542 239.821 41.1731 239.583 40.9352C239.345 40.6902 239.064 40.5028 238.74 40.3731C238.416 40.2433 238.063 40.1785 237.68 40.1785C237.299 40.1785 236.945 40.2433 236.621 40.3731C236.304 40.5028 236.023 40.6902 235.778 40.9352C235.54 41.1731 235.353 41.4542 235.216 41.7785C235.086 42.0956 235.021 42.4487 235.021 42.8379C235.021 43.2199 235.086 43.5731 235.216 43.8974C235.353 44.2217 235.54 44.5064 235.778 44.7515C236.016 44.9893 236.297 45.1731 236.621 45.3028C236.945 45.4325 237.299 45.4974 237.68 45.4974Z" fill="white"/>
<mask id="mask0_1249_221" style="mask-type:luminance" maskUnits="userSpaceOnUse" x="0" y="0" width="60" height="50">
<path d="M59.4595 0H0V50H59.4595V0Z" fill="white"/>
</mask>
<g mask="url(#mask0_1249_221)">
<path d="M59.4595 30.3405L50.2368 29.7747L50.5527 24.1076L39.5014 30.1728L45.578 11.5719L37.6043 13.5493L29.7289 0L21.8552 13.5493L13.8814 11.5719L19.9598 30.1728L8.90676 24.1076L9.22264 29.7747L0 30.3405L6.75672 39.0539L2.07942 43.1378L15.3616 50V42.543H18.7216V35.6041H19.5361V34.1961H24.6268V35.6041H25.5432V45.3589H27.6812L28.0885 33.995H26.9686V32.4866H26.5613V30.4753H27.2739V29.3691H28.0885V28.1624H28.4958V21.6256L28.1903 21.4245V20.9216L28.5976 20.7206L29.0048 9.85966L29.4121 20.7206L29.8194 20.9216V21.4245L29.5139 21.6256V28.1624H30.023V29.3691H30.8374V30.4753H31.4484V32.4866H30.9393V33.995H29.8744L30.6338 50H31.4484V44.0515H33.5864V42.8447H36.5391V44.0515H38.779V50H40.6116V43.6491H41.4262V42.0401H44.0733L47.8405 41.0345V50L57.382 43.1378L52.7028 39.0539L59.4595 30.3405Z" fill="white"/>
</g>
</svg>
